%TF.GenerationSoftware,KiCad,Pcbnew,9.0.3*%
%TF.CreationDate,2026-01-18T23:43:33+07:00*%
%TF.ProjectId,TSPD_v1,54535044-5f76-4312-9e6b-696361645f70,rev?*%
%TF.SameCoordinates,Original*%
%TF.FileFunction,Paste,Top*%
%TF.FilePolarity,Positive*%
%FSLAX46Y46*%
G04 Gerber Fmt 4.6, Leading zero omitted, Abs format (unit mm)*
G04 Created by KiCad (PCBNEW 9.0.3) date 2026-01-18 23:43:33*
%MOMM*%
%LPD*%
G01*
G04 APERTURE LIST*
G04 Aperture macros list*
%AMRoundRect*
0 Rectangle with rounded corners*
0 $1 Rounding radius*
0 $2 $3 $4 $5 $6 $7 $8 $9 X,Y pos of 4 corners*
0 Add a 4 corners polygon primitive as box body*
4,1,4,$2,$3,$4,$5,$6,$7,$8,$9,$2,$3,0*
0 Add four circle primitives for the rounded corners*
1,1,$1+$1,$2,$3*
1,1,$1+$1,$4,$5*
1,1,$1+$1,$6,$7*
1,1,$1+$1,$8,$9*
0 Add four rect primitives between the rounded corners*
20,1,$1+$1,$2,$3,$4,$5,0*
20,1,$1+$1,$4,$5,$6,$7,0*
20,1,$1+$1,$6,$7,$8,$9,0*
20,1,$1+$1,$8,$9,$2,$3,0*%
G04 Aperture macros list end*
%ADD10RoundRect,0.250000X-1.275000X-1.125000X1.275000X-1.125000X1.275000X1.125000X-1.275000X1.125000X0*%
%ADD11RoundRect,0.250000X-0.850000X-0.350000X0.850000X-0.350000X0.850000X0.350000X-0.850000X0.350000X0*%
%ADD12RoundRect,0.250000X-0.337500X-0.475000X0.337500X-0.475000X0.337500X0.475000X-0.337500X0.475000X0*%
%ADD13RoundRect,0.250000X-0.350000X-0.450000X0.350000X-0.450000X0.350000X0.450000X-0.350000X0.450000X0*%
%ADD14R,1.200000X1.200000*%
%ADD15RoundRect,0.250000X0.450000X-0.350000X0.450000X0.350000X-0.450000X0.350000X-0.450000X-0.350000X0*%
%ADD16RoundRect,0.250000X0.325000X0.450000X-0.325000X0.450000X-0.325000X-0.450000X0.325000X-0.450000X0*%
%ADD17RoundRect,0.200000X-0.200000X0.750000X-0.200000X-0.750000X0.200000X-0.750000X0.200000X0.750000X0*%
G04 APERTURE END LIST*
D10*
%TO.C,U2*%
X71462500Y-48297500D03*
X71462500Y-51347500D03*
X74812500Y-48297500D03*
X74812500Y-51347500D03*
D11*
X66837500Y-47542500D03*
X66837500Y-52102500D03*
%TD*%
D12*
%TO.C,C5*%
X70250000Y-66500000D03*
X72325000Y-66500000D03*
%TD*%
D13*
%TO.C,R13*%
X95025000Y-101500000D03*
X97025000Y-101500000D03*
%TD*%
%TO.C,R12*%
X103750000Y-101500000D03*
X105750000Y-101500000D03*
%TD*%
D12*
%TO.C,C1*%
X66500000Y-45000000D03*
X68575000Y-45000000D03*
%TD*%
%TO.C,C3*%
X70175000Y-80500000D03*
X72250000Y-80500000D03*
%TD*%
%TO.C,C6*%
X70250000Y-59500000D03*
X72325000Y-59500000D03*
%TD*%
D13*
%TO.C,R3*%
X66500000Y-74500000D03*
X68500000Y-74500000D03*
%TD*%
%TO.C,R6*%
X70287500Y-68500000D03*
X72287500Y-68500000D03*
%TD*%
D12*
%TO.C,C2*%
X66500000Y-54750000D03*
X68575000Y-54750000D03*
%TD*%
D13*
%TO.C,R10*%
X131500000Y-90500000D03*
X133500000Y-90500000D03*
%TD*%
D12*
%TO.C,C4*%
X70250000Y-73500000D03*
X72325000Y-73500000D03*
%TD*%
D13*
%TO.C,R9*%
X131500000Y-51500000D03*
X133500000Y-51500000D03*
%TD*%
%TO.C,R5*%
X66500000Y-67500000D03*
X68500000Y-67500000D03*
%TD*%
D14*
%TO.C,D1*%
X63875000Y-92000000D03*
X63875000Y-94800000D03*
%TD*%
D15*
%TO.C,R11*%
X81000000Y-78750000D03*
X81000000Y-76750000D03*
%TD*%
D16*
%TO.C,D2*%
X109550000Y-101500000D03*
X107500000Y-101500000D03*
%TD*%
%TO.C,D3*%
X100800000Y-101500000D03*
X98750000Y-101500000D03*
%TD*%
D13*
%TO.C,R2*%
X70212500Y-82500000D03*
X72212500Y-82500000D03*
%TD*%
%TO.C,R8*%
X70250000Y-61500000D03*
X72250000Y-61500000D03*
%TD*%
D17*
%TO.C,U5*%
X80950000Y-81000000D03*
X79050000Y-81000000D03*
X80000000Y-84000000D03*
%TD*%
D13*
%TO.C,R1*%
X66462500Y-81500000D03*
X68462500Y-81500000D03*
%TD*%
%TO.C,R4*%
X70287500Y-75500000D03*
X72287500Y-75500000D03*
%TD*%
%TO.C,R14*%
X86275000Y-101500000D03*
X88275000Y-101500000D03*
%TD*%
D16*
%TO.C,D4*%
X92025000Y-101500000D03*
X89975000Y-101500000D03*
%TD*%
D13*
%TO.C,R7*%
X66500000Y-60500000D03*
X68500000Y-60500000D03*
%TD*%
M02*
