M48
; DRILL file {KiCad 9.0.3} date 2026-01-18T23:43:38+0700
; FORMAT={-:-/ absolute / metric / decimal}
; #@! TF.CreationDate,2026-01-18T23:43:38+07:00
; #@! TF.GenerationSoftware,Kicad,Pcbnew,9.0.3
; #@! TF.FileFunction,Plated,1,2,PTH
FMAT,2
METRIC
; #@! TA.AperFunction,Plated,PTH,ViaDrill
T1C0.300
; #@! TA.AperFunction,Plated,PTH,ComponentDrill
T2C0.500
; #@! TA.AperFunction,Plated,PTH,ComponentDrill
T3C0.800
; #@! TA.AperFunction,Plated,PTH,ComponentDrill
T4C1.000
; #@! TA.AperFunction,Plated,PTH,ComponentDrill
T5C1.200
; #@! TA.AperFunction,Plated,PTH,ComponentDrill
T6C1.300
; #@! TA.AperFunction,Plated,PTH,ComponentDrill
T7C1.500
; #@! TA.AperFunction,Plated,PTH,ComponentDrill
T8C3.200
%
G90
G05
T1
X67.5Y-83.75
X67.5Y-84.5
X68.25Y-83.75
X68.25Y-84.5
X68.25Y-85.25
X68.5Y-43.25
X68.5Y-56.5
X69.0Y-84.5
X69.0Y-85.25
X69.75Y-84.5
X69.75Y-85.25
X70.25Y-45.0
X70.25Y-54.75
X70.25Y-64.5
X70.25Y-78.5
X72.0Y-44.5
X72.0Y-45.25
X72.0Y-46.0
X72.0Y-53.5
X72.0Y-54.25
X72.0Y-55.0
X72.25Y-64.75
X72.25Y-70.25
X72.25Y-71.75
X72.25Y-78.75
X72.75Y-44.5
X72.75Y-45.25
X72.75Y-46.0
X72.75Y-53.5
X72.75Y-54.25
X72.75Y-55.0
X73.5Y-44.5
X73.5Y-45.25
X73.5Y-46.0
X73.5Y-53.5
X73.5Y-54.25
X73.5Y-55.0
X73.75Y-73.5
X73.75Y-75.5
X74.0Y-59.5
X74.0Y-61.5
X74.25Y-44.5
X74.25Y-45.25
X74.25Y-46.0
X74.25Y-53.5
X74.25Y-54.25
X74.25Y-55.0
X75.0Y-44.5
X75.0Y-45.25
X75.0Y-46.0
X75.0Y-53.5
X75.0Y-54.25
X75.0Y-55.0
X75.75Y-44.5
X75.75Y-45.25
X75.75Y-46.0
X75.75Y-53.5
X75.75Y-54.25
X75.75Y-55.0
X76.5Y-44.5
X76.5Y-45.25
X76.5Y-46.0
X76.5Y-53.5
X76.5Y-54.25
X76.5Y-55.0
X77.25Y-44.5
X77.25Y-45.25
X77.25Y-46.0
X77.25Y-46.75
X77.25Y-47.5
X77.25Y-48.25
X77.25Y-49.0
X77.25Y-49.75
X77.25Y-50.5
X77.25Y-51.25
X77.25Y-52.0
X77.25Y-52.75
X77.25Y-53.5
X77.25Y-54.25
X77.25Y-55.0
X77.75Y-81.0
X78.0Y-44.5
X78.0Y-45.25
X78.0Y-46.0
X78.0Y-46.75
X78.0Y-47.5
X78.0Y-48.25
X78.0Y-49.0
X78.0Y-49.75
X78.0Y-50.5
X78.0Y-51.25
X78.0Y-52.0
X78.0Y-52.75
X78.0Y-53.5
X78.0Y-54.25
X78.0Y-55.0
X78.75Y-44.5
X78.75Y-45.25
X78.75Y-46.0
X78.75Y-46.75
X78.75Y-47.5
X78.75Y-48.25
X78.75Y-49.0
X78.75Y-49.75
X78.75Y-50.5
X78.75Y-51.25
X78.75Y-52.0
X78.75Y-52.75
X78.75Y-53.5
X78.75Y-54.25
X78.75Y-55.0
X78.75Y-71.2
X79.0Y-79.25
X79.5Y-44.5
X79.5Y-45.25
X79.5Y-46.0
X79.5Y-46.75
X79.5Y-47.5
X79.5Y-48.25
X79.5Y-49.0
X79.5Y-49.75
X79.5Y-50.5
X79.5Y-51.25
X79.5Y-52.0
X79.5Y-52.75
X79.5Y-53.5
X79.5Y-54.25
X79.5Y-55.0
X80.25Y-44.5
X80.25Y-45.25
X80.25Y-46.0
X80.25Y-46.75
X80.25Y-47.5
X80.25Y-48.25
X80.25Y-49.0
X80.25Y-49.75
X80.25Y-50.5
X80.25Y-51.25
X80.25Y-52.0
X80.25Y-52.75
X80.25Y-53.5
X80.25Y-54.25
X80.25Y-55.0
X81.0Y-44.5
X81.0Y-45.25
X81.0Y-46.0
X81.0Y-46.75
X81.0Y-47.5
X81.0Y-48.25
X81.0Y-49.0
X81.0Y-49.75
X81.0Y-50.5
X81.0Y-51.25
X81.0Y-52.0
X81.0Y-52.75
X81.0Y-53.5
X81.0Y-54.25
X81.0Y-55.0
X81.5Y-85.5
X81.75Y-68.2
X135.25Y-51.5
X135.25Y-90.5
T2
X60.45Y-40.0
X60.45Y-102.0
X61.153Y-38.303
X61.153Y-41.697
X61.153Y-100.303
X61.153Y-103.697
X62.85Y-37.6
X62.85Y-42.4
X62.85Y-99.6
X62.85Y-104.4
X64.547Y-38.303
X64.547Y-41.697
X64.547Y-100.303
X64.547Y-103.697
X65.25Y-40.0
X65.25Y-102.0
X130.403Y-40.0
X130.403Y-102.0
X131.106Y-38.303
X131.106Y-41.697
X131.106Y-100.303
X131.106Y-103.697
X132.803Y-37.6
X132.803Y-42.4
X132.803Y-99.6
X132.803Y-104.4
X134.5Y-38.303
X134.5Y-41.697
X134.5Y-100.303
X134.5Y-103.697
X135.203Y-40.0
X135.203Y-102.0
T3
X85.25Y-52.0
X85.25Y-54.54
X85.25Y-57.08
X85.25Y-59.62
X85.25Y-62.16
X85.25Y-64.7
X85.25Y-67.24
X85.25Y-69.78
X85.25Y-72.32
X85.25Y-74.86
X85.25Y-77.4
X85.25Y-79.94
X85.25Y-82.48
X85.25Y-85.02
X85.25Y-87.56
X85.25Y-90.1
X85.25Y-92.64
X85.25Y-95.18
X85.25Y-97.72
X110.646Y-95.177
X110.646Y-97.717
X110.65Y-52.0
X110.65Y-54.54
X110.65Y-57.08
X110.65Y-59.62
X110.65Y-62.16
X110.65Y-64.7
X110.65Y-67.24
X110.65Y-69.78
X110.65Y-72.32
X110.65Y-74.86
X110.65Y-77.4
X110.65Y-79.94
X110.65Y-82.48
X110.65Y-85.02
X110.65Y-87.56
X110.65Y-90.1
X110.65Y-92.64
T4
X115.75Y-67.21
X115.75Y-69.75
X115.75Y-72.29
X115.75Y-74.83
T5
X55.925Y-60.52
X55.925Y-64.71
X55.925Y-68.9
X55.925Y-73.1
X55.925Y-77.29
X55.925Y-81.48
X62.275Y-60.52
X62.275Y-64.71
X62.275Y-68.9
X62.275Y-73.1
X62.275Y-77.29
X62.275Y-81.48
T6
X115.75Y-46.5
X115.75Y-51.5
X115.75Y-90.5
X115.75Y-95.5
X128.25Y-46.5
X128.25Y-51.5
X128.25Y-90.5
X128.25Y-95.5
T7
X69.075Y-89.25
X69.075Y-97.25
X75.375Y-89.25
X75.375Y-97.25
X80.025Y-89.25
X80.025Y-97.25
T8
X62.85Y-40.0
X62.85Y-102.0
X132.803Y-40.0
X132.803Y-102.0
M30
