%TF.GenerationSoftware,KiCad,Pcbnew,9.0.3*%
%TF.CreationDate,2026-01-18T23:43:33+07:00*%
%TF.ProjectId,TSPD_v1,54535044-5f76-4312-9e6b-696361645f70,rev?*%
%TF.SameCoordinates,Original*%
%TF.FileFunction,Copper,L1,Top*%
%TF.FilePolarity,Positive*%
%FSLAX46Y46*%
G04 Gerber Fmt 4.6, Leading zero omitted, Abs format (unit mm)*
G04 Created by KiCad (PCBNEW 9.0.3) date 2026-01-18 23:43:33*
%MOMM*%
%LPD*%
G01*
G04 APERTURE LIST*
G04 Aperture macros list*
%AMRoundRect*
0 Rectangle with rounded corners*
0 $1 Rounding radius*
0 $2 $3 $4 $5 $6 $7 $8 $9 X,Y pos of 4 corners*
0 Add a 4 corners polygon primitive as box body*
4,1,4,$2,$3,$4,$5,$6,$7,$8,$9,$2,$3,0*
0 Add four circle primitives for the rounded corners*
1,1,$1+$1,$2,$3*
1,1,$1+$1,$4,$5*
1,1,$1+$1,$6,$7*
1,1,$1+$1,$8,$9*
0 Add four rect primitives between the rounded corners*
20,1,$1+$1,$2,$3,$4,$5,0*
20,1,$1+$1,$4,$5,$6,$7,0*
20,1,$1+$1,$6,$7,$8,$9,0*
20,1,$1+$1,$8,$9,$2,$3,0*%
G04 Aperture macros list end*
%TA.AperFunction,SMDPad,CuDef*%
%ADD10RoundRect,0.250000X-0.850000X-0.350000X0.850000X-0.350000X0.850000X0.350000X-0.850000X0.350000X0*%
%TD*%
%TA.AperFunction,SMDPad,CuDef*%
%ADD11RoundRect,0.249997X-2.950003X-2.650003X2.950003X-2.650003X2.950003X2.650003X-2.950003X2.650003X0*%
%TD*%
%TA.AperFunction,SMDPad,CuDef*%
%ADD12RoundRect,0.250000X-0.337500X-0.475000X0.337500X-0.475000X0.337500X0.475000X-0.337500X0.475000X0*%
%TD*%
%TA.AperFunction,ComponentPad*%
%ADD13C,3.000000*%
%TD*%
%TA.AperFunction,SMDPad,CuDef*%
%ADD14RoundRect,0.250000X-0.350000X-0.450000X0.350000X-0.450000X0.350000X0.450000X-0.350000X0.450000X0*%
%TD*%
%TA.AperFunction,ComponentPad*%
%ADD15C,2.000000*%
%TD*%
%TA.AperFunction,ComponentPad*%
%ADD16C,0.800000*%
%TD*%
%TA.AperFunction,ComponentPad*%
%ADD17C,6.400000*%
%TD*%
%TA.AperFunction,ComponentPad*%
%ADD18RoundRect,0.150000X0.960000X-0.950000X0.960000X0.950000X-0.960000X0.950000X-0.960000X-0.950000X0*%
%TD*%
%TA.AperFunction,ComponentPad*%
%ADD19C,2.200000*%
%TD*%
%TA.AperFunction,SMDPad,CuDef*%
%ADD20R,1.200000X1.200000*%
%TD*%
%TA.AperFunction,SMDPad,CuDef*%
%ADD21RoundRect,0.250000X0.450000X-0.350000X0.450000X0.350000X-0.450000X0.350000X-0.450000X-0.350000X0*%
%TD*%
%TA.AperFunction,ComponentPad*%
%ADD22R,2.000000X1.200000*%
%TD*%
%TA.AperFunction,ComponentPad*%
%ADD23O,2.000000X1.200000*%
%TD*%
%TA.AperFunction,SMDPad,CuDef*%
%ADD24RoundRect,0.250000X0.325000X0.450000X-0.325000X0.450000X-0.325000X-0.450000X0.325000X-0.450000X0*%
%TD*%
%TA.AperFunction,ComponentPad*%
%ADD25O,3.200000X1.900000*%
%TD*%
%TA.AperFunction,SMDPad,CuDef*%
%ADD26RoundRect,0.200000X-0.200000X0.750000X-0.200000X-0.750000X0.200000X-0.750000X0.200000X0.750000X0*%
%TD*%
%TA.AperFunction,ViaPad*%
%ADD27C,0.600000*%
%TD*%
%TA.AperFunction,Conductor*%
%ADD28C,0.600000*%
%TD*%
%TA.AperFunction,Conductor*%
%ADD29C,0.400000*%
%TD*%
%TA.AperFunction,Conductor*%
%ADD30C,0.200000*%
%TD*%
%TA.AperFunction,Conductor*%
%ADD31C,1.000000*%
%TD*%
G04 APERTURE END LIST*
D10*
%TO.P,U2,1,IN*%
%TO.N,+12V*%
X66837500Y-47542500D03*
D11*
%TO.P,U2,2,GND*%
%TO.N,GND*%
X73137500Y-49822500D03*
D10*
%TO.P,U2,3,OUT*%
%TO.N,+5V*%
X66837500Y-52102500D03*
%TD*%
D12*
%TO.P,C5,1*%
%TO.N,TPS2*%
X70250000Y-66500000D03*
%TO.P,C5,2*%
%TO.N,GND*%
X72325000Y-66500000D03*
%TD*%
D13*
%TO.P,U4,1,COM*%
%TO.N,Relay_COM*%
X69075000Y-89250000D03*
X69075000Y-97250000D03*
%TO.P,U4,2*%
%TO.N,Net-(U5-D)*%
X75375000Y-97250000D03*
%TO.P,U4,3,NC*%
%TO.N,Relay_NC*%
X80025000Y-97250000D03*
%TO.P,U4,4,NO*%
%TO.N,Relay_NO*%
X80025000Y-89250000D03*
%TO.P,U4,5*%
%TO.N,+12V*%
X75375000Y-89250000D03*
%TD*%
D14*
%TO.P,R13,1*%
%TO.N,+3.3V*%
X95025000Y-101500000D03*
%TO.P,R13,2*%
%TO.N,Net-(D3-A)*%
X97025000Y-101500000D03*
%TD*%
%TO.P,R12,1*%
%TO.N,+3.3V*%
X103750000Y-101500000D03*
%TO.P,R12,2*%
%TO.N,Net-(D2-A)*%
X105750000Y-101500000D03*
%TD*%
D12*
%TO.P,C1,1*%
%TO.N,+12V*%
X66500000Y-45000000D03*
%TO.P,C1,2*%
%TO.N,GND*%
X68575000Y-45000000D03*
%TD*%
D15*
%TO.P,U3,1,GND*%
%TO.N,GND*%
X115750000Y-74830000D03*
%TO.P,U3,2,VCC*%
%TO.N,+3.3V*%
X115750000Y-72290000D03*
%TO.P,U3,3,SCL*%
%TO.N,SCL*%
X115750000Y-69750000D03*
%TO.P,U3,4,SDA*%
%TO.N,SDA*%
X115750000Y-67210000D03*
%TD*%
D16*
%TO.P,H3,1,1*%
%TO.N,GND*%
X60450000Y-102000000D03*
X61152944Y-100302944D03*
X61152944Y-103697056D03*
X62850000Y-99600000D03*
D17*
X62850000Y-102000000D03*
D16*
X62850000Y-104400000D03*
X64547056Y-100302944D03*
X64547056Y-103697056D03*
X65250000Y-102000000D03*
%TD*%
D12*
%TO.P,C3,1*%
%TO.N,APPS2*%
X70175000Y-80500000D03*
%TO.P,C3,2*%
%TO.N,GND*%
X72250000Y-80500000D03*
%TD*%
%TO.P,C6,1*%
%TO.N,TPS1*%
X70250000Y-59500000D03*
%TO.P,C6,2*%
%TO.N,GND*%
X72325000Y-59500000D03*
%TD*%
D14*
%TO.P,R3,1*%
%TO.N,Net-(J1-Pad4)*%
X66500000Y-74500000D03*
%TO.P,R3,2*%
%TO.N,APPS1*%
X68500000Y-74500000D03*
%TD*%
%TO.P,R6,1*%
%TO.N,TPS2*%
X70287500Y-68500000D03*
%TO.P,R6,2*%
%TO.N,GND*%
X72287500Y-68500000D03*
%TD*%
D12*
%TO.P,C2,1*%
%TO.N,+5V*%
X66500000Y-54750000D03*
%TO.P,C2,2*%
%TO.N,GND*%
X68575000Y-54750000D03*
%TD*%
D14*
%TO.P,R10,1*%
%TO.N,B2*%
X131500000Y-90500000D03*
%TO.P,R10,2*%
%TO.N,GND*%
X133500000Y-90500000D03*
%TD*%
D12*
%TO.P,C4,1*%
%TO.N,APPS1*%
X70250000Y-73500000D03*
%TO.P,C4,2*%
%TO.N,GND*%
X72325000Y-73500000D03*
%TD*%
D18*
%TO.P,J1,1,1*%
%TO.N,GND*%
X62275000Y-60520000D03*
D19*
%TO.P,J1,2,2*%
%TO.N,Net-(J1-Pad2)*%
X62275000Y-64710000D03*
%TO.P,J1,3,3*%
%TO.N,Net-(J1-Pad3)*%
X62275000Y-68900000D03*
%TO.P,J1,4,4*%
%TO.N,Net-(J1-Pad4)*%
X62275000Y-73100000D03*
%TO.P,J1,5,5*%
%TO.N,Net-(J1-Pad5)*%
X62275000Y-77290000D03*
%TO.P,J1,6,6*%
%TO.N,+5V*%
X62275000Y-81480000D03*
%TO.P,J1,7,7*%
%TO.N,+12V*%
X55925000Y-81480000D03*
%TO.P,J1,8,8*%
%TO.N,TSPD_status(12V)*%
X55925000Y-77290000D03*
%TO.P,J1,9,9*%
%TO.N,Relay_COM*%
X55925000Y-73100000D03*
%TO.P,J1,10,10*%
%TO.N,Relay_NC*%
X55925000Y-68900000D03*
%TO.P,J1,11,11*%
%TO.N,Relay_NO*%
X55925000Y-64710000D03*
%TO.P,J1,12,12*%
%TO.N,GND*%
X55925000Y-60520000D03*
%TD*%
D14*
%TO.P,R9,1*%
%TO.N,B1*%
X131500000Y-51500000D03*
%TO.P,R9,2*%
%TO.N,GND*%
X133500000Y-51500000D03*
%TD*%
%TO.P,R5,1*%
%TO.N,Net-(J1-Pad3)*%
X66500000Y-67500000D03*
%TO.P,R5,2*%
%TO.N,TPS2*%
X68500000Y-67500000D03*
%TD*%
D20*
%TO.P,D1,1*%
%TO.N,+12V*%
X63875000Y-92000000D03*
%TO.P,D1,2*%
%TO.N,Net-(U5-D)*%
X63875000Y-94800000D03*
%TD*%
D21*
%TO.P,R11,1*%
%TO.N,Net-(U5-G)*%
X81000000Y-78750000D03*
%TO.P,R11,2*%
%TO.N,Logi_Out*%
X81000000Y-76750000D03*
%TD*%
D22*
%TO.P,U1,1,3V3*%
%TO.N,+3.3V*%
X85250000Y-52000000D03*
D23*
%TO.P,U1,2,CHIP_PU*%
%TO.N,unconnected-(U1-CHIP_PU-Pad2)*%
X85250000Y-54540000D03*
%TO.P,U1,3,SENSOR_VP/GPIO36/ADC1_CH0*%
%TO.N,unconnected-(U1-SENSOR_VP{slash}GPIO36{slash}ADC1_CH0-Pad3)*%
X85250000Y-57080000D03*
%TO.P,U1,4,SENSOR_VN/GPIO39/ADC1_CH3*%
%TO.N,unconnected-(U1-SENSOR_VN{slash}GPIO39{slash}ADC1_CH3-Pad4)*%
X85250000Y-59620000D03*
%TO.P,U1,5,VDET_1/GPIO34/ADC1_CH6*%
%TO.N,GPIO34*%
X85250000Y-62160000D03*
%TO.P,U1,6,VDET_2/GPIO35/ADC1_CH7*%
%TO.N,GPIO35*%
X85250000Y-64700000D03*
%TO.P,U1,7,32K_XP/GPIO32/ADC1_CH4*%
%TO.N,TPS1*%
X85250000Y-67240000D03*
%TO.P,U1,8,32K_XN/GPIO33/ADC1_CH5*%
%TO.N,APPS1*%
X85250000Y-69780000D03*
%TO.P,U1,9,DAC_1/ADC2_CH8/GPIO25*%
%TO.N,Logi_Out*%
X85250000Y-72320000D03*
%TO.P,U1,10,DAC_2/ADC2_CH9/GPIO26*%
%TO.N,GPIO26*%
X85250000Y-74860000D03*
%TO.P,U1,11,ADC2_CH7/GPIO27*%
%TO.N,GPIO27*%
X85250000Y-77400000D03*
%TO.P,U1,12,MTMS/GPIO14/ADC2_CH6*%
%TO.N,unconnected-(U1-MTMS{slash}GPIO14{slash}ADC2_CH6-Pad12)*%
X85250000Y-79940000D03*
%TO.P,U1,13,MTDI/GPIO12/ADC2_CH5*%
%TO.N,unconnected-(U1-MTDI{slash}GPIO12{slash}ADC2_CH5-Pad13)*%
X85250000Y-82480000D03*
%TO.P,U1,14,GND*%
%TO.N,GND*%
X85250000Y-85020000D03*
%TO.P,U1,15,MTCK/GPIO13/ADC2_CH4*%
%TO.N,unconnected-(U1-MTCK{slash}GPIO13{slash}ADC2_CH4-Pad15)*%
X85250000Y-87560000D03*
%TO.P,U1,16,SD_DATA2/GPIO9*%
%TO.N,unconnected-(U1-SD_DATA2{slash}GPIO9-Pad16)*%
X85250000Y-90100000D03*
%TO.P,U1,17,SD_DATA3/GPIO10*%
%TO.N,unconnected-(U1-SD_DATA3{slash}GPIO10-Pad17)*%
X85250000Y-92640000D03*
%TO.P,U1,18,CMD*%
%TO.N,unconnected-(U1-CMD-Pad18)*%
X85250000Y-95180000D03*
%TO.P,U1,19,5V*%
%TO.N,+5V*%
X85250000Y-97720000D03*
%TO.P,U1,20,SD_CLK/GPIO6*%
%TO.N,unconnected-(U1-SD_CLK{slash}GPIO6-Pad20)*%
X110646320Y-97717280D03*
%TO.P,U1,21,SD_DATA0/GPIO7*%
%TO.N,unconnected-(U1-SD_DATA0{slash}GPIO7-Pad21)*%
X110646320Y-95177280D03*
%TO.P,U1,22,SD_DATA1/GPIO8*%
%TO.N,unconnected-(U1-SD_DATA1{slash}GPIO8-Pad22)*%
X110650000Y-92640000D03*
%TO.P,U1,23,MTDO/GPIO15/ADC2_CH3*%
%TO.N,unconnected-(U1-MTDO{slash}GPIO15{slash}ADC2_CH3-Pad23)*%
X110650000Y-90100000D03*
%TO.P,U1,24,ADC2_CH2/GPIO2*%
%TO.N,unconnected-(U1-ADC2_CH2{slash}GPIO2-Pad24)*%
X110650000Y-87560000D03*
%TO.P,U1,25,GPIO0/BOOT/ADC2_CH1*%
%TO.N,unconnected-(U1-GPIO0{slash}BOOT{slash}ADC2_CH1-Pad25)*%
X110650000Y-85020000D03*
%TO.P,U1,26,ADC2_CH0/GPIO4*%
%TO.N,unconnected-(U1-ADC2_CH0{slash}GPIO4-Pad26)*%
X110650000Y-82480000D03*
%TO.P,U1,27,GPIO16*%
%TO.N,RLED*%
X110650000Y-79940000D03*
%TO.P,U1,28,GPIO17*%
%TO.N,GLED*%
X110650000Y-77400000D03*
%TO.P,U1,29,GPIO5*%
%TO.N,unconnected-(U1-GPIO5-Pad29)*%
X110650000Y-74860000D03*
%TO.P,U1,30,GPIO18*%
%TO.N,YLED*%
X110650000Y-72320000D03*
%TO.P,U1,31,GPIO19*%
%TO.N,B1*%
X110650000Y-69780000D03*
%TO.P,U1,32,GND*%
%TO.N,GND*%
X110650000Y-67240000D03*
%TO.P,U1,33,GPIO21*%
%TO.N,B2*%
X110650000Y-64700000D03*
%TO.P,U1,34,U0RXD/GPIO3*%
%TO.N,unconnected-(U1-U0RXD{slash}GPIO3-Pad34)*%
X110650000Y-62160000D03*
%TO.P,U1,35,U0TXD/GPIO1*%
%TO.N,unconnected-(U1-U0TXD{slash}GPIO1-Pad35)*%
X110650000Y-59620000D03*
%TO.P,U1,36,GPIO22*%
%TO.N,SCL*%
X110650000Y-57080000D03*
%TO.P,U1,37,GPIO23*%
%TO.N,SDA*%
X110650000Y-54540000D03*
%TO.P,U1,38,GND*%
%TO.N,GND*%
X110650000Y-52000000D03*
%TD*%
D24*
%TO.P,D2,1,K*%
%TO.N,RLED*%
X109550000Y-101500000D03*
%TO.P,D2,2,A*%
%TO.N,Net-(D2-A)*%
X107500000Y-101500000D03*
%TD*%
%TO.P,D3,1,K*%
%TO.N,GLED*%
X100800000Y-101500000D03*
%TO.P,D3,2,A*%
%TO.N,Net-(D3-A)*%
X98750000Y-101500000D03*
%TD*%
D14*
%TO.P,R2,1*%
%TO.N,APPS2*%
X70212500Y-82500000D03*
%TO.P,R2,2*%
%TO.N,GND*%
X72212500Y-82500000D03*
%TD*%
D16*
%TO.P,H4,1,1*%
%TO.N,GND*%
X130402944Y-102000000D03*
X131105888Y-100302944D03*
X131105888Y-103697056D03*
X132802944Y-99600000D03*
D17*
X132802944Y-102000000D03*
D16*
X132802944Y-104400000D03*
X134500000Y-100302944D03*
X134500000Y-103697056D03*
X135202944Y-102000000D03*
%TD*%
D14*
%TO.P,R8,1*%
%TO.N,TPS1*%
X70250000Y-61500000D03*
%TO.P,R8,2*%
%TO.N,GND*%
X72250000Y-61500000D03*
%TD*%
D25*
%TO.P,SW1,1,1*%
%TO.N,B1*%
X128250000Y-51500000D03*
X115750000Y-51500000D03*
%TO.P,SW1,2,2*%
%TO.N,+3.3V*%
X128250000Y-46500000D03*
X115750000Y-46500000D03*
%TD*%
D26*
%TO.P,U5,1,G*%
%TO.N,Net-(U5-G)*%
X80950000Y-81000000D03*
%TO.P,U5,2,S*%
%TO.N,GND*%
X79050000Y-81000000D03*
%TO.P,U5,3,D*%
%TO.N,Net-(U5-D)*%
X80000000Y-84000000D03*
%TD*%
D16*
%TO.P,H1,1,1*%
%TO.N,GND*%
X60450000Y-40000000D03*
X61152944Y-38302944D03*
X61152944Y-41697056D03*
X62850000Y-37600000D03*
D17*
X62850000Y-40000000D03*
D16*
X62850000Y-42400000D03*
X64547056Y-38302944D03*
X64547056Y-41697056D03*
X65250000Y-40000000D03*
%TD*%
D14*
%TO.P,R1,1*%
%TO.N,Net-(J1-Pad5)*%
X66462500Y-81500000D03*
%TO.P,R1,2*%
%TO.N,APPS2*%
X68462500Y-81500000D03*
%TD*%
%TO.P,R4,1*%
%TO.N,APPS1*%
X70287500Y-75500000D03*
%TO.P,R4,2*%
%TO.N,GND*%
X72287500Y-75500000D03*
%TD*%
%TO.P,R14,1*%
%TO.N,+3.3V*%
X86275000Y-101500000D03*
%TO.P,R14,2*%
%TO.N,Net-(D4-A)*%
X88275000Y-101500000D03*
%TD*%
D16*
%TO.P,H2,1,1*%
%TO.N,GND*%
X130402944Y-40000000D03*
X131105888Y-38302944D03*
X131105888Y-41697056D03*
X132802944Y-37600000D03*
D17*
X132802944Y-40000000D03*
D16*
X132802944Y-42400000D03*
X134500000Y-38302944D03*
X134500000Y-41697056D03*
X135202944Y-40000000D03*
%TD*%
D24*
%TO.P,D4,1,K*%
%TO.N,YLED*%
X92025000Y-101500000D03*
%TO.P,D4,2,A*%
%TO.N,Net-(D4-A)*%
X89975000Y-101500000D03*
%TD*%
D14*
%TO.P,R7,1*%
%TO.N,Net-(J1-Pad2)*%
X66500000Y-60500000D03*
%TO.P,R7,2*%
%TO.N,TPS1*%
X68500000Y-60500000D03*
%TD*%
D25*
%TO.P,SW2,1,1*%
%TO.N,B2*%
X115750000Y-90500000D03*
X128250000Y-90500000D03*
%TO.P,SW2,2,2*%
%TO.N,+3.3V*%
X115750000Y-95500000D03*
X128250000Y-95500000D03*
%TD*%
D27*
%TO.N,GND*%
X78000000Y-45250000D03*
X76500000Y-44500000D03*
X77250000Y-51250000D03*
X81000000Y-47500000D03*
X79500000Y-46000000D03*
X76500000Y-54250000D03*
X73500000Y-54250000D03*
X73500000Y-45250000D03*
X77250000Y-48250000D03*
X75000000Y-44500000D03*
X79500000Y-53500000D03*
X80250000Y-47500000D03*
X81000000Y-50500000D03*
X78750000Y-45250000D03*
X81000000Y-53500000D03*
X81000000Y-51250000D03*
X80250000Y-48250000D03*
X78750000Y-50500000D03*
X75000000Y-53500000D03*
X72000000Y-45250000D03*
X81000000Y-49750000D03*
X81000000Y-46000000D03*
X67500000Y-84500000D03*
X78000000Y-53500000D03*
X72000000Y-44500000D03*
X80250000Y-51250000D03*
X79500000Y-50500000D03*
X78750000Y-49750000D03*
X77250000Y-49000000D03*
X77250000Y-52750000D03*
X78750000Y-46750000D03*
X79500000Y-44500000D03*
X78000000Y-51250000D03*
X78000000Y-52000000D03*
X81000000Y-55000000D03*
X77250000Y-53500000D03*
X72000000Y-55000000D03*
X79500000Y-45250000D03*
X78000000Y-49750000D03*
X78000000Y-47500000D03*
X79500000Y-55000000D03*
X77250000Y-46000000D03*
X78750000Y-46000000D03*
X68500000Y-43250000D03*
X72750000Y-45250000D03*
X72000000Y-53500000D03*
X78750000Y-55000000D03*
X135250000Y-90500000D03*
X81000000Y-54250000D03*
X68500000Y-56500000D03*
X69000000Y-85250000D03*
X77250000Y-55000000D03*
X80250000Y-46750000D03*
X72250000Y-71750000D03*
X75750000Y-46000000D03*
X79500000Y-46750000D03*
X78750000Y-52000000D03*
X72750000Y-44500000D03*
X73500000Y-46000000D03*
X81000000Y-52750000D03*
X73500000Y-44500000D03*
X72250000Y-70250000D03*
X74250000Y-55000000D03*
X78000000Y-50500000D03*
X78000000Y-49000000D03*
X78000000Y-44500000D03*
X72750000Y-54250000D03*
X68250000Y-84500000D03*
X77250000Y-46750000D03*
X79500000Y-48250000D03*
X74250000Y-54250000D03*
X78750000Y-47500000D03*
X68250000Y-83750000D03*
X78750000Y-52750000D03*
X72250000Y-64750000D03*
X75000000Y-54250000D03*
X75750000Y-44500000D03*
X79500000Y-47500000D03*
X78000000Y-48250000D03*
X75750000Y-45250000D03*
X81000000Y-44500000D03*
X77250000Y-44500000D03*
X77250000Y-49750000D03*
X67500000Y-83750000D03*
X77750000Y-81000000D03*
X78750000Y-51250000D03*
X81000000Y-49000000D03*
X79500000Y-49000000D03*
X73750000Y-75500000D03*
X78750000Y-54250000D03*
X74250000Y-44500000D03*
X78000000Y-46750000D03*
X76500000Y-45250000D03*
X74250000Y-53500000D03*
X69000000Y-84500000D03*
X72750000Y-46000000D03*
X81000000Y-52000000D03*
X76500000Y-46000000D03*
X72750000Y-55000000D03*
X68250000Y-85250000D03*
X69750000Y-85250000D03*
X75750000Y-55000000D03*
X74250000Y-45250000D03*
X77250000Y-50500000D03*
X75000000Y-46000000D03*
X70250000Y-54750000D03*
X77250000Y-52000000D03*
X80250000Y-50500000D03*
X78750000Y-48250000D03*
X79500000Y-51250000D03*
X79500000Y-54250000D03*
X135250000Y-51500000D03*
X81000000Y-46750000D03*
X78000000Y-52750000D03*
X69750000Y-84500000D03*
X80250000Y-49750000D03*
X79500000Y-49750000D03*
X80250000Y-54250000D03*
X72000000Y-54250000D03*
X80250000Y-52750000D03*
X81000000Y-48250000D03*
X78750000Y-44500000D03*
X73500000Y-53500000D03*
X79000000Y-79250000D03*
X76500000Y-53500000D03*
X80250000Y-53500000D03*
X72000000Y-46000000D03*
X74000000Y-61500000D03*
X72250000Y-78750000D03*
X78000000Y-55000000D03*
X78750000Y-53500000D03*
X72750000Y-53500000D03*
X74000000Y-59500000D03*
X79500000Y-52000000D03*
X75750000Y-54250000D03*
X78000000Y-54250000D03*
X78750000Y-49000000D03*
X79500000Y-52750000D03*
X73500000Y-55000000D03*
X80250000Y-52000000D03*
X76500000Y-55000000D03*
X75000000Y-45250000D03*
X80250000Y-49000000D03*
X77250000Y-47500000D03*
X80250000Y-46000000D03*
X75750000Y-53500000D03*
X70250000Y-45000000D03*
X80250000Y-44500000D03*
X75000000Y-55000000D03*
X77250000Y-54250000D03*
X73750000Y-73500000D03*
X77250000Y-45250000D03*
X81000000Y-45250000D03*
X80250000Y-55000000D03*
X78000000Y-46000000D03*
X74250000Y-46000000D03*
X80250000Y-45250000D03*
%TO.N,APPS2*%
X70250000Y-78500000D03*
%TO.N,TPS2*%
X70250000Y-64500000D03*
%TO.N,Net-(U5-D)*%
X81500000Y-85500000D03*
%TO.N,GPIO35*%
X81750000Y-68200000D03*
X78750000Y-71200000D03*
%TD*%
D28*
%TO.N,+12V*%
X46750000Y-57250000D02*
X56457500Y-47542500D01*
X66500000Y-47205000D02*
X66837500Y-47542500D01*
X46750000Y-72305000D02*
X46750000Y-57250000D01*
X63875000Y-92000000D02*
X72625000Y-92000000D01*
X55925000Y-81480000D02*
X54097500Y-79652500D01*
X56457500Y-47542500D02*
X66837500Y-47542500D01*
X54097500Y-79652500D02*
X46750000Y-72305000D01*
X72625000Y-92000000D02*
X75375000Y-89250000D01*
X66500000Y-45000000D02*
X66500000Y-47205000D01*
D29*
%TO.N,+5V*%
X81750000Y-86750000D02*
X83000000Y-88000000D01*
X60000000Y-58500000D02*
X63750000Y-54750000D01*
D28*
X66500000Y-54750000D02*
X66500000Y-52440000D01*
D29*
X62275000Y-81480000D02*
X67545000Y-86750000D01*
X60000000Y-79205000D02*
X60000000Y-58500000D01*
D28*
X66500000Y-52440000D02*
X66837500Y-52102500D01*
D29*
X62275000Y-81480000D02*
X60000000Y-79205000D01*
X84720000Y-97720000D02*
X85250000Y-97720000D01*
X63750000Y-54750000D02*
X66500000Y-54750000D01*
X67545000Y-86750000D02*
X81750000Y-86750000D01*
X83000000Y-88000000D02*
X83000000Y-96000000D01*
X83000000Y-96000000D02*
X84720000Y-97720000D01*
%TO.N,APPS2*%
X70212500Y-82500000D02*
X69462500Y-82500000D01*
D30*
X70250000Y-78500000D02*
X70250000Y-82462500D01*
D29*
X69462500Y-82500000D02*
X68462500Y-81500000D01*
X70175000Y-80500000D02*
X69462500Y-80500000D01*
X69462500Y-80500000D02*
X68462500Y-81500000D01*
D30*
X70250000Y-82462500D02*
X70212500Y-82500000D01*
%TO.N,APPS1*%
X70287500Y-75500000D02*
X72037500Y-77250000D01*
D29*
X69500000Y-73500000D02*
X68500000Y-74500000D01*
X69500000Y-75500000D02*
X68500000Y-74500000D01*
X70287500Y-75500000D02*
X69500000Y-75500000D01*
D30*
X77780000Y-77250000D02*
X85250000Y-69780000D01*
X72037500Y-77250000D02*
X77780000Y-77250000D01*
D29*
X70250000Y-73500000D02*
X69500000Y-73500000D01*
%TO.N,TPS2*%
X70287500Y-68500000D02*
X69500000Y-68500000D01*
X69500000Y-68500000D02*
X68500000Y-67500000D01*
D30*
X70250000Y-66500000D02*
X70250000Y-64500000D01*
D29*
X70250000Y-66500000D02*
X69500000Y-66500000D01*
X69500000Y-66500000D02*
X68500000Y-67500000D01*
%TO.N,TPS1*%
X70250000Y-61500000D02*
X69500000Y-61500000D01*
X69500000Y-59500000D02*
X68500000Y-60500000D01*
X69500000Y-61500000D02*
X68500000Y-60500000D01*
D30*
X70250000Y-61500000D02*
X72000000Y-63250000D01*
D29*
X70250000Y-59500000D02*
X69500000Y-59500000D01*
D30*
X72000000Y-63250000D02*
X81260000Y-63250000D01*
X81260000Y-63250000D02*
X85250000Y-67240000D01*
D28*
%TO.N,Net-(U5-D)*%
X72925000Y-94800000D02*
X75375000Y-97250000D01*
D29*
X80000000Y-84000000D02*
X81500000Y-85500000D01*
X75375000Y-98375000D02*
X75375000Y-97250000D01*
D28*
X63875000Y-94800000D02*
X72925000Y-94800000D01*
D30*
%TO.N,Net-(D2-A)*%
X105750000Y-101500000D02*
X107500000Y-101500000D01*
%TO.N,RLED*%
X108250000Y-100200000D02*
X108250000Y-82250000D01*
X108250000Y-82250000D02*
X108340000Y-82250000D01*
X108340000Y-82250000D02*
X110650000Y-79940000D01*
X109550000Y-101500000D02*
X108250000Y-100200000D01*
%TO.N,GLED*%
X109850000Y-77400000D02*
X110650000Y-77400000D01*
X100800000Y-101500000D02*
X100800000Y-86450000D01*
X100800000Y-86450000D02*
X109850000Y-77400000D01*
%TO.N,Net-(D3-A)*%
X97025000Y-101500000D02*
X98750000Y-101500000D01*
%TO.N,Net-(D4-A)*%
X88275000Y-101500000D02*
X89975000Y-101500000D01*
%TO.N,YLED*%
X92025000Y-101500000D02*
X92025000Y-90945000D01*
X92025000Y-90945000D02*
X110650000Y-72320000D01*
D29*
%TO.N,Net-(J1-Pad3)*%
X62275000Y-68900000D02*
X65100000Y-68900000D01*
X65100000Y-68900000D02*
X66500000Y-67500000D01*
%TO.N,Net-(J1-Pad2)*%
X66485000Y-60500000D02*
X66500000Y-60500000D01*
X62275000Y-64710000D02*
X66485000Y-60500000D01*
%TO.N,Net-(J1-Pad5)*%
X62275000Y-77290000D02*
X66462500Y-81477500D01*
X66462500Y-81477500D02*
X66462500Y-81500000D01*
D31*
%TO.N,Relay_COM*%
X69075000Y-97250000D02*
X62750000Y-97250000D01*
X62750000Y-97250000D02*
X58750000Y-93250000D01*
X58750000Y-93250000D02*
X58750000Y-75925000D01*
X58750000Y-75925000D02*
X55925000Y-73100000D01*
D29*
%TO.N,Net-(J1-Pad4)*%
X62275000Y-73100000D02*
X65100000Y-73100000D01*
X65100000Y-73100000D02*
X66500000Y-74500000D01*
D30*
%TO.N,B1*%
X108500000Y-67630000D02*
X110650000Y-69780000D01*
X109750000Y-50250000D02*
X108500000Y-51500000D01*
X108500000Y-51500000D02*
X108500000Y-67630000D01*
X131500000Y-51500000D02*
X128250000Y-51500000D01*
X114500000Y-50250000D02*
X109750000Y-50250000D01*
X115750000Y-51500000D02*
X114500000Y-50250000D01*
%TO.N,B2*%
X131500000Y-90500000D02*
X128250000Y-90500000D01*
X110650000Y-64700000D02*
X113000000Y-67050000D01*
X113000000Y-67050000D02*
X113000000Y-87750000D01*
X113000000Y-87750000D02*
X115750000Y-90500000D01*
%TO.N,Logi_Out*%
X85250000Y-72500000D02*
X81000000Y-76750000D01*
X85250000Y-72320000D02*
X85250000Y-72500000D01*
%TO.N,Net-(U5-G)*%
X80950000Y-81000000D02*
X80950000Y-78800000D01*
X80950000Y-78800000D02*
X81000000Y-78750000D01*
D29*
%TO.N,+3.3V*%
X116540000Y-72290000D02*
X120250000Y-76000000D01*
X115750000Y-98750000D02*
X110500000Y-104000000D01*
X115750000Y-46500000D02*
X128250000Y-46500000D01*
X88750000Y-42000000D02*
X111000000Y-42000000D01*
X95025000Y-102275000D02*
X96750000Y-104000000D01*
X115750000Y-72290000D02*
X116710000Y-72290000D01*
X85250000Y-45500000D02*
X88750000Y-42000000D01*
X103750000Y-101500000D02*
X103750000Y-102250000D01*
X120250000Y-68750000D02*
X120250000Y-51000000D01*
X86275000Y-102275000D02*
X86275000Y-101500000D01*
X115750000Y-72290000D02*
X116540000Y-72290000D01*
X85250000Y-52000000D02*
X85250000Y-45500000D01*
X120250000Y-51000000D02*
X115750000Y-46500000D01*
X110500000Y-104000000D02*
X105500000Y-104000000D01*
X88000000Y-104000000D02*
X86275000Y-102275000D01*
X95025000Y-101500000D02*
X95025000Y-102275000D01*
X96750000Y-104000000D02*
X88000000Y-104000000D01*
X105500000Y-104000000D02*
X96750000Y-104000000D01*
X103750000Y-102250000D02*
X105500000Y-104000000D01*
X115750000Y-95500000D02*
X128250000Y-95500000D01*
X115500000Y-46500000D02*
X115750000Y-46500000D01*
X116710000Y-72290000D02*
X120250000Y-68750000D01*
X120250000Y-87500000D02*
X128250000Y-95500000D01*
X115750000Y-95500000D02*
X115750000Y-98750000D01*
X111000000Y-42000000D02*
X115500000Y-46500000D01*
X120250000Y-76000000D02*
X120250000Y-87500000D01*
D30*
%TO.N,GPIO35*%
X81750000Y-68200000D02*
X78750000Y-71200000D01*
%TO.N,SCL*%
X113750000Y-60180000D02*
X113750000Y-67750000D01*
X113750000Y-67750000D02*
X115750000Y-69750000D01*
X110650000Y-57080000D02*
X113750000Y-60180000D01*
%TO.N,SDA*%
X115750000Y-59640000D02*
X115750000Y-67210000D01*
X110650000Y-54540000D02*
X115750000Y-59640000D01*
%TD*%
%TA.AperFunction,Conductor*%
%TO.N,GND*%
G36*
X109305703Y-65278051D02*
G01*
X109324815Y-65298874D01*
X109410586Y-65416928D01*
X109533072Y-65539414D01*
X109673212Y-65641232D01*
X109827555Y-65719873D01*
X109992299Y-65773402D01*
X110163389Y-65800500D01*
X110849903Y-65800500D01*
X110879343Y-65809144D01*
X110909330Y-65815668D01*
X110914345Y-65819422D01*
X110916942Y-65820185D01*
X110937584Y-65836819D01*
X111029084Y-65928319D01*
X111062569Y-65989642D01*
X111057585Y-66059334D01*
X111015713Y-66115267D01*
X110950249Y-66139684D01*
X110941403Y-66140000D01*
X110900000Y-66140000D01*
X110900000Y-66924314D01*
X110895606Y-66919920D01*
X110804394Y-66867259D01*
X110702661Y-66840000D01*
X110597339Y-66840000D01*
X110495606Y-66867259D01*
X110404394Y-66919920D01*
X110400000Y-66924314D01*
X110400000Y-66140000D01*
X110163429Y-66140000D01*
X109992415Y-66167085D01*
X109827742Y-66220591D01*
X109673475Y-66299195D01*
X109533397Y-66400967D01*
X109410965Y-66523399D01*
X109410961Y-66523404D01*
X109324818Y-66641971D01*
X109269488Y-66684637D01*
X109199875Y-66690616D01*
X109138080Y-66658011D01*
X109103723Y-66597172D01*
X109100500Y-66569086D01*
X109100500Y-65371764D01*
X109120185Y-65304725D01*
X109172989Y-65258970D01*
X109242147Y-65249026D01*
X109305703Y-65278051D01*
G37*
%TD.AperFunction*%
%TA.AperFunction,Conductor*%
G36*
X133253244Y-36500670D02*
G01*
X133557046Y-36516592D01*
X133569953Y-36517949D01*
X133701089Y-36538718D01*
X133867209Y-36565028D01*
X133879896Y-36567724D01*
X134170625Y-36645625D01*
X134182965Y-36649635D01*
X134463938Y-36757490D01*
X134475790Y-36762767D01*
X134743968Y-36899411D01*
X134755199Y-36905896D01*
X135007608Y-37069812D01*
X135018109Y-37077441D01*
X135252010Y-37266850D01*
X135261655Y-37275535D01*
X135474464Y-37488344D01*
X135483149Y-37497989D01*
X135672558Y-37731890D01*
X135680187Y-37742391D01*
X135844101Y-37994796D01*
X135850591Y-38006036D01*
X135987231Y-38274206D01*
X135992510Y-38286064D01*
X136100363Y-38567033D01*
X136104374Y-38579376D01*
X136182273Y-38870097D01*
X136184971Y-38882794D01*
X136232050Y-39180046D01*
X136233407Y-39192953D01*
X136249330Y-39496756D01*
X136249500Y-39503246D01*
X136249500Y-102496753D01*
X136249330Y-102503243D01*
X136233407Y-102807046D01*
X136232050Y-102819953D01*
X136184971Y-103117205D01*
X136182273Y-103129902D01*
X136104374Y-103420623D01*
X136100363Y-103432966D01*
X135992510Y-103713935D01*
X135987231Y-103725793D01*
X135850591Y-103993963D01*
X135844101Y-104005203D01*
X135680187Y-104257608D01*
X135672558Y-104268109D01*
X135483149Y-104502010D01*
X135474464Y-104511655D01*
X135261655Y-104724464D01*
X135252010Y-104733149D01*
X135018109Y-104922558D01*
X135007608Y-104930187D01*
X134755203Y-105094101D01*
X134743963Y-105100591D01*
X134475793Y-105237231D01*
X134463935Y-105242510D01*
X134182966Y-105350363D01*
X134170623Y-105354374D01*
X133879902Y-105432273D01*
X133867205Y-105434971D01*
X133569953Y-105482050D01*
X133557046Y-105483407D01*
X133253244Y-105499330D01*
X133246754Y-105499500D01*
X49003246Y-105499500D01*
X48996756Y-105499330D01*
X48692953Y-105483407D01*
X48680046Y-105482050D01*
X48382794Y-105434971D01*
X48370097Y-105432273D01*
X48079376Y-105354374D01*
X48067033Y-105350363D01*
X47786064Y-105242510D01*
X47774206Y-105237231D01*
X47506036Y-105100591D01*
X47494796Y-105094101D01*
X47242391Y-104930187D01*
X47231890Y-104922558D01*
X46997989Y-104733149D01*
X46988344Y-104724464D01*
X46775535Y-104511655D01*
X46766850Y-104502010D01*
X46577441Y-104268109D01*
X46569812Y-104257608D01*
X46405896Y-104005199D01*
X46399408Y-103993963D01*
X46262768Y-103725793D01*
X46257489Y-103713935D01*
X46149636Y-103432966D01*
X46145625Y-103420623D01*
X46113170Y-103299500D01*
X46067724Y-103129896D01*
X46065028Y-103117205D01*
X46017949Y-102819953D01*
X46016592Y-102807046D01*
X46000670Y-102503243D01*
X46000500Y-102496753D01*
X46000500Y-79758872D01*
X47574500Y-79758872D01*
X47574500Y-80021127D01*
X47597180Y-80193386D01*
X47608730Y-80281116D01*
X47656827Y-80460617D01*
X47676602Y-80534418D01*
X47676605Y-80534428D01*
X47776953Y-80776690D01*
X47776958Y-80776700D01*
X47908075Y-81003803D01*
X48067718Y-81211851D01*
X48067726Y-81211860D01*
X48253140Y-81397274D01*
X48253148Y-81397281D01*
X48253149Y-81397282D01*
X48265290Y-81406598D01*
X48461196Y-81556924D01*
X48688299Y-81688041D01*
X48688309Y-81688046D01*
X48884911Y-81769481D01*
X48930581Y-81788398D01*
X49183884Y-81856270D01*
X49443880Y-81890500D01*
X49443887Y-81890500D01*
X49706113Y-81890500D01*
X49706120Y-81890500D01*
X49966116Y-81856270D01*
X50219419Y-81788398D01*
X50461697Y-81688043D01*
X50688803Y-81556924D01*
X50896851Y-81397282D01*
X50896855Y-81397277D01*
X50896860Y-81397274D01*
X51082274Y-81211860D01*
X51082277Y-81211855D01*
X51082282Y-81211851D01*
X51241924Y-81003803D01*
X51373043Y-80776697D01*
X51473398Y-80534419D01*
X51541270Y-80281116D01*
X51575500Y-80021120D01*
X51575500Y-79758880D01*
X51541270Y-79498884D01*
X51473398Y-79245581D01*
X51473394Y-79245571D01*
X51373046Y-79003309D01*
X51373041Y-79003299D01*
X51241924Y-78776196D01*
X51090490Y-78578846D01*
X51082282Y-78568149D01*
X51082281Y-78568148D01*
X51082274Y-78568140D01*
X50896860Y-78382726D01*
X50896851Y-78382718D01*
X50688803Y-78223075D01*
X50461700Y-78091958D01*
X50461690Y-78091953D01*
X50219428Y-77991605D01*
X50219421Y-77991603D01*
X50219419Y-77991602D01*
X49966116Y-77923730D01*
X49908339Y-77916123D01*
X49706127Y-77889500D01*
X49706120Y-77889500D01*
X49443880Y-77889500D01*
X49443872Y-77889500D01*
X49212772Y-77919926D01*
X49183884Y-77923730D01*
X48985868Y-77976788D01*
X48930581Y-77991602D01*
X48930571Y-77991605D01*
X48688309Y-78091953D01*
X48688299Y-78091958D01*
X48461196Y-78223075D01*
X48253148Y-78382718D01*
X48067718Y-78568148D01*
X47908075Y-78776196D01*
X47776958Y-79003299D01*
X47776953Y-79003309D01*
X47676605Y-79245571D01*
X47676602Y-79245581D01*
X47638434Y-79388029D01*
X47608730Y-79498885D01*
X47574500Y-79758872D01*
X46000500Y-79758872D01*
X46000500Y-72986940D01*
X46020185Y-72919901D01*
X46072989Y-72874146D01*
X46142147Y-72864202D01*
X46205703Y-72893227D01*
X46212181Y-72899259D01*
X54326648Y-81013726D01*
X54360133Y-81075049D01*
X54361440Y-81120805D01*
X54333956Y-81294334D01*
X54324500Y-81354038D01*
X54324500Y-81605962D01*
X54349384Y-81763070D01*
X54363910Y-81854785D01*
X54441760Y-82094383D01*
X54488028Y-82185188D01*
X54549316Y-82305472D01*
X54556132Y-82318848D01*
X54704201Y-82522649D01*
X54704205Y-82522654D01*
X54882345Y-82700794D01*
X54882350Y-82700798D01*
X55039277Y-82814811D01*
X55086155Y-82848870D01*
X55191302Y-82902445D01*
X55310616Y-82963239D01*
X55310618Y-82963239D01*
X55310621Y-82963241D01*
X55550215Y-83041090D01*
X55799038Y-83080500D01*
X55799039Y-83080500D01*
X56050961Y-83080500D01*
X56050962Y-83080500D01*
X56299785Y-83041090D01*
X56539379Y-82963241D01*
X56763845Y-82848870D01*
X56967656Y-82700793D01*
X57145793Y-82522656D01*
X57293870Y-82318845D01*
X57408241Y-82094379D01*
X57486090Y-81854785D01*
X57503027Y-81747848D01*
X57532956Y-81684714D01*
X57592268Y-81647783D01*
X57662130Y-81648781D01*
X57720363Y-81687391D01*
X57748477Y-81751354D01*
X57749500Y-81767247D01*
X57749500Y-93348544D01*
X57775532Y-93479414D01*
X57787947Y-93541829D01*
X57787949Y-93541837D01*
X57863364Y-93723907D01*
X57863371Y-93723920D01*
X57972859Y-93887780D01*
X57972860Y-93887781D01*
X57972861Y-93887782D01*
X58112218Y-94027139D01*
X58112219Y-94027139D01*
X58119286Y-94034206D01*
X58119285Y-94034206D01*
X58119288Y-94034208D01*
X61972860Y-97887781D01*
X61972861Y-97887782D01*
X62060056Y-97974977D01*
X62112219Y-98027140D01*
X62276079Y-98136628D01*
X62276092Y-98136635D01*
X62404833Y-98189961D01*
X62447744Y-98207735D01*
X62458164Y-98212051D01*
X62554812Y-98231275D01*
X62603135Y-98240887D01*
X62651458Y-98250500D01*
X62651459Y-98250500D01*
X62651460Y-98250500D01*
X62848540Y-98250500D01*
X67271069Y-98250500D01*
X67338108Y-98270185D01*
X67378456Y-98312500D01*
X67408075Y-98363803D01*
X67567718Y-98571851D01*
X67567726Y-98571860D01*
X67753140Y-98757274D01*
X67753148Y-98757281D01*
X67961196Y-98916924D01*
X68188299Y-99048041D01*
X68188309Y-99048046D01*
X68430571Y-99148394D01*
X68430581Y-99148398D01*
X68683884Y-99216270D01*
X68943880Y-99250500D01*
X68943887Y-99250500D01*
X69206113Y-99250500D01*
X69206120Y-99250500D01*
X69466116Y-99216270D01*
X69719419Y-99148398D01*
X69961697Y-99048043D01*
X70188803Y-98916924D01*
X70396851Y-98757282D01*
X70396855Y-98757277D01*
X70396860Y-98757274D01*
X70582274Y-98571860D01*
X70582277Y-98571855D01*
X70582282Y-98571851D01*
X70741924Y-98363803D01*
X70873043Y-98136697D01*
X70973398Y-97894419D01*
X71041270Y-97641116D01*
X71075500Y-97381120D01*
X71075500Y-97118880D01*
X71041270Y-96858884D01*
X70973398Y-96605581D01*
X70909372Y-96451009D01*
X70873046Y-96363309D01*
X70873041Y-96363299D01*
X70741924Y-96136196D01*
X70582281Y-95928148D01*
X70582274Y-95928140D01*
X70466315Y-95812181D01*
X70432830Y-95750858D01*
X70437814Y-95681166D01*
X70479686Y-95625233D01*
X70545150Y-95600816D01*
X70553996Y-95600500D01*
X72542060Y-95600500D01*
X72609099Y-95620185D01*
X72629741Y-95636819D01*
X73453718Y-96460796D01*
X73487203Y-96522119D01*
X73482219Y-96591811D01*
X73480602Y-96595920D01*
X73476608Y-96605564D01*
X73476606Y-96605571D01*
X73476602Y-96605581D01*
X73451998Y-96697407D01*
X73408730Y-96858885D01*
X73374500Y-97118872D01*
X73374500Y-97381127D01*
X73385188Y-97462302D01*
X73408730Y-97641116D01*
X73474824Y-97887782D01*
X73476602Y-97894418D01*
X73476605Y-97894428D01*
X73576953Y-98136690D01*
X73576958Y-98136700D01*
X73708075Y-98363803D01*
X73867718Y-98571851D01*
X73867726Y-98571860D01*
X74053140Y-98757274D01*
X74053148Y-98757281D01*
X74261196Y-98916924D01*
X74488299Y-99048041D01*
X74488309Y-99048046D01*
X74730571Y-99148394D01*
X74730581Y-99148398D01*
X74983884Y-99216270D01*
X75243880Y-99250500D01*
X75243887Y-99250500D01*
X75506113Y-99250500D01*
X75506120Y-99250500D01*
X75766116Y-99216270D01*
X76019419Y-99148398D01*
X76261697Y-99048043D01*
X76488803Y-98916924D01*
X76696851Y-98757282D01*
X76696855Y-98757277D01*
X76696860Y-98757274D01*
X76882274Y-98571860D01*
X76882277Y-98571855D01*
X76882282Y-98571851D01*
X77041924Y-98363803D01*
X77173043Y-98136697D01*
X77273398Y-97894419D01*
X77341270Y-97641116D01*
X77375500Y-97381120D01*
X77375500Y-97118880D01*
X77375499Y-97118872D01*
X78024500Y-97118872D01*
X78024500Y-97381127D01*
X78035188Y-97462302D01*
X78058730Y-97641116D01*
X78124824Y-97887782D01*
X78126602Y-97894418D01*
X78126605Y-97894428D01*
X78226953Y-98136690D01*
X78226958Y-98136700D01*
X78358075Y-98363803D01*
X78517718Y-98571851D01*
X78517726Y-98571860D01*
X78703140Y-98757274D01*
X78703148Y-98757281D01*
X78911196Y-98916924D01*
X79138299Y-99048041D01*
X79138309Y-99048046D01*
X79380571Y-99148394D01*
X79380581Y-99148398D01*
X79633884Y-99216270D01*
X79893880Y-99250500D01*
X79893887Y-99250500D01*
X80156113Y-99250500D01*
X80156120Y-99250500D01*
X80416116Y-99216270D01*
X80669419Y-99148398D01*
X80911697Y-99048043D01*
X81138803Y-98916924D01*
X81346851Y-98757282D01*
X81346855Y-98757277D01*
X81346860Y-98757274D01*
X81532274Y-98571860D01*
X81532277Y-98571855D01*
X81532282Y-98571851D01*
X81691924Y-98363803D01*
X81823043Y-98136697D01*
X81923398Y-97894419D01*
X81991270Y-97641116D01*
X82025500Y-97381120D01*
X82025500Y-97118880D01*
X81991270Y-96858884D01*
X81923398Y-96605581D01*
X81859372Y-96451009D01*
X81823046Y-96363309D01*
X81823041Y-96363299D01*
X81691924Y-96136196D01*
X81532281Y-95928148D01*
X81532274Y-95928140D01*
X81346860Y-95742726D01*
X81346851Y-95742718D01*
X81138803Y-95583075D01*
X80911700Y-95451958D01*
X80911690Y-95451953D01*
X80669428Y-95351605D01*
X80669421Y-95351603D01*
X80669419Y-95351602D01*
X80416116Y-95283730D01*
X80358339Y-95276123D01*
X80156127Y-95249500D01*
X80156120Y-95249500D01*
X79893880Y-95249500D01*
X79893872Y-95249500D01*
X79662772Y-95279926D01*
X79633884Y-95283730D01*
X79380581Y-95351602D01*
X79380571Y-95351605D01*
X79138309Y-95451953D01*
X79138299Y-95451958D01*
X78911196Y-95583075D01*
X78703148Y-95742718D01*
X78517718Y-95928148D01*
X78358075Y-96136196D01*
X78226958Y-96363299D01*
X78226953Y-96363309D01*
X78126605Y-96605571D01*
X78126602Y-96605581D01*
X78101998Y-96697407D01*
X78058730Y-96858885D01*
X78024500Y-97118872D01*
X77375499Y-97118872D01*
X77341270Y-96858884D01*
X77273398Y-96605581D01*
X77209372Y-96451009D01*
X77173046Y-96363309D01*
X77173041Y-96363299D01*
X77041924Y-96136196D01*
X76882281Y-95928148D01*
X76882274Y-95928140D01*
X76696860Y-95742726D01*
X76696851Y-95742718D01*
X76488803Y-95583075D01*
X76261700Y-95451958D01*
X76261690Y-95451953D01*
X76019428Y-95351605D01*
X76019421Y-95351603D01*
X76019419Y-95351602D01*
X75766116Y-95283730D01*
X75708339Y-95276123D01*
X75506127Y-95249500D01*
X75506120Y-95249500D01*
X75243880Y-95249500D01*
X75243872Y-95249500D01*
X75012772Y-95279926D01*
X74983884Y-95283730D01*
X74730581Y-95351602D01*
X74730564Y-95351608D01*
X74720920Y-95355602D01*
X74651450Y-95363065D01*
X74588974Y-95331785D01*
X74585796Y-95328718D01*
X73435292Y-94178213D01*
X73435288Y-94178210D01*
X73304185Y-94090609D01*
X73304172Y-94090602D01*
X73158501Y-94030264D01*
X73158489Y-94030261D01*
X73003845Y-93999500D01*
X73003842Y-93999500D01*
X65012180Y-93999500D01*
X64945141Y-93979815D01*
X64912913Y-93949811D01*
X64832546Y-93842454D01*
X64809709Y-93825358D01*
X64717335Y-93756206D01*
X64717328Y-93756202D01*
X64582482Y-93705908D01*
X64582483Y-93705908D01*
X64522883Y-93699501D01*
X64522881Y-93699500D01*
X64522873Y-93699500D01*
X64522864Y-93699500D01*
X63227129Y-93699500D01*
X63227123Y-93699501D01*
X63167516Y-93705908D01*
X63032671Y-93756202D01*
X63032664Y-93756206D01*
X62917455Y-93842452D01*
X62917452Y-93842455D01*
X62831206Y-93957664D01*
X62831202Y-93957671D01*
X62780908Y-94092517D01*
X62774501Y-94152116D01*
X62774500Y-94152135D01*
X62774500Y-95447870D01*
X62774501Y-95447876D01*
X62780909Y-95507484D01*
X62794963Y-95545166D01*
X62799947Y-95614857D01*
X62766461Y-95676180D01*
X62705138Y-95709664D01*
X62635446Y-95704679D01*
X62591100Y-95676179D01*
X59786819Y-92871898D01*
X59753334Y-92810575D01*
X59750500Y-92784217D01*
X59750500Y-80245519D01*
X59770185Y-80178480D01*
X59822989Y-80132725D01*
X59892147Y-80122781D01*
X59955703Y-80151806D01*
X59962181Y-80157838D01*
X60708158Y-80903815D01*
X60741643Y-80965138D01*
X60738408Y-81029813D01*
X60713910Y-81105211D01*
X60683956Y-81294334D01*
X60674500Y-81354038D01*
X60674500Y-81605962D01*
X60699384Y-81763070D01*
X60713910Y-81854785D01*
X60791760Y-82094383D01*
X60838028Y-82185188D01*
X60899316Y-82305472D01*
X60906132Y-82318848D01*
X61054201Y-82522649D01*
X61054205Y-82522654D01*
X61232345Y-82700794D01*
X61232350Y-82700798D01*
X61389277Y-82814811D01*
X61436155Y-82848870D01*
X61541302Y-82902445D01*
X61660616Y-82963239D01*
X61660618Y-82963239D01*
X61660621Y-82963241D01*
X61900215Y-83041090D01*
X62149038Y-83080500D01*
X62149039Y-83080500D01*
X62400961Y-83080500D01*
X62400962Y-83080500D01*
X62649785Y-83041090D01*
X62725186Y-83016589D01*
X62795024Y-83014594D01*
X62851183Y-83046840D01*
X64978738Y-85174394D01*
X67000886Y-87196542D01*
X67050506Y-87246162D01*
X67098459Y-87294115D01*
X67213182Y-87370771D01*
X67213186Y-87370773D01*
X67213189Y-87370775D01*
X67287866Y-87401707D01*
X67340671Y-87423580D01*
X67367591Y-87428934D01*
X67464630Y-87448237D01*
X67476006Y-87450500D01*
X67476007Y-87450500D01*
X67768682Y-87450500D01*
X67835721Y-87470185D01*
X67881476Y-87522989D01*
X67891420Y-87592147D01*
X67862395Y-87655703D01*
X67844169Y-87672875D01*
X67753148Y-87742718D01*
X67567718Y-87928148D01*
X67408075Y-88136196D01*
X67276958Y-88363299D01*
X67276953Y-88363309D01*
X67176605Y-88605571D01*
X67176602Y-88605581D01*
X67108730Y-88858885D01*
X67074500Y-89118872D01*
X67074500Y-89381127D01*
X67100282Y-89576952D01*
X67108730Y-89641116D01*
X67176602Y-89894418D01*
X67176605Y-89894428D01*
X67276953Y-90136690D01*
X67276958Y-90136700D01*
X67408075Y-90363803D01*
X67567718Y-90571851D01*
X67567726Y-90571860D01*
X67753140Y-90757274D01*
X67753148Y-90757281D01*
X67961196Y-90916924D01*
X68049859Y-90968113D01*
X68098074Y-91018680D01*
X68111298Y-91087287D01*
X68085330Y-91152151D01*
X68028416Y-91192680D01*
X67987859Y-91199500D01*
X65012180Y-91199500D01*
X64945141Y-91179815D01*
X64912913Y-91149811D01*
X64911856Y-91148399D01*
X64832546Y-91042454D01*
X64775847Y-91000009D01*
X64717335Y-90956206D01*
X64717328Y-90956202D01*
X64582482Y-90905908D01*
X64582483Y-90905908D01*
X64522883Y-90899501D01*
X64522881Y-90899500D01*
X64522873Y-90899500D01*
X64522864Y-90899500D01*
X63227129Y-90899500D01*
X63227123Y-90899501D01*
X63167516Y-90905908D01*
X63032671Y-90956202D01*
X63032664Y-90956206D01*
X62917455Y-91042452D01*
X62917452Y-91042455D01*
X62831206Y-91157664D01*
X62831202Y-91157671D01*
X62780908Y-91292517D01*
X62774501Y-91352116D01*
X62774500Y-91352135D01*
X62774500Y-92647870D01*
X62774501Y-92647876D01*
X62780908Y-92707483D01*
X62831202Y-92842328D01*
X62831206Y-92842335D01*
X62917452Y-92957544D01*
X62917455Y-92957547D01*
X63032664Y-93043793D01*
X63032671Y-93043797D01*
X63167517Y-93094091D01*
X63167516Y-93094091D01*
X63174444Y-93094835D01*
X63227127Y-93100500D01*
X64522872Y-93100499D01*
X64582483Y-93094091D01*
X64717331Y-93043796D01*
X64832546Y-92957546D01*
X64912914Y-92850188D01*
X64968847Y-92808318D01*
X65012180Y-92800500D01*
X72703844Y-92800500D01*
X72703845Y-92800499D01*
X72858497Y-92769737D01*
X73004179Y-92709394D01*
X73135289Y-92621789D01*
X74585796Y-91171279D01*
X74647119Y-91137795D01*
X74716810Y-91142779D01*
X74720894Y-91144385D01*
X74730581Y-91148398D01*
X74983884Y-91216270D01*
X75243880Y-91250500D01*
X75243887Y-91250500D01*
X75506113Y-91250500D01*
X75506120Y-91250500D01*
X75766116Y-91216270D01*
X76019419Y-91148398D01*
X76261697Y-91048043D01*
X76488803Y-90916924D01*
X76696851Y-90757282D01*
X76696855Y-90757277D01*
X76696860Y-90757274D01*
X76882274Y-90571860D01*
X76882277Y-90571855D01*
X76882282Y-90571851D01*
X77041924Y-90363803D01*
X77173043Y-90136697D01*
X77273398Y-89894419D01*
X77341270Y-89641116D01*
X77375500Y-89381120D01*
X77375500Y-89118880D01*
X77341270Y-88858884D01*
X77273398Y-88605581D01*
X77273394Y-88605571D01*
X77173046Y-88363309D01*
X77173041Y-88363299D01*
X77041924Y-88136196D01*
X76919424Y-87976554D01*
X76882282Y-87928149D01*
X76882281Y-87928148D01*
X76882274Y-87928140D01*
X76696860Y-87742726D01*
X76696851Y-87742718D01*
X76605831Y-87672875D01*
X76564628Y-87616447D01*
X76560474Y-87546701D01*
X76594687Y-87485781D01*
X76656405Y-87453029D01*
X76681318Y-87450500D01*
X78718682Y-87450500D01*
X78785721Y-87470185D01*
X78831476Y-87522989D01*
X78841420Y-87592147D01*
X78812395Y-87655703D01*
X78794169Y-87672875D01*
X78703148Y-87742718D01*
X78517718Y-87928148D01*
X78358075Y-88136196D01*
X78226958Y-88363299D01*
X78226953Y-88363309D01*
X78126605Y-88605571D01*
X78126602Y-88605581D01*
X78058730Y-88858885D01*
X78024500Y-89118872D01*
X78024500Y-89381127D01*
X78050282Y-89576952D01*
X78058730Y-89641116D01*
X78126602Y-89894418D01*
X78126605Y-89894428D01*
X78226953Y-90136690D01*
X78226958Y-90136700D01*
X78358075Y-90363803D01*
X78517718Y-90571851D01*
X78517726Y-90571860D01*
X78703140Y-90757274D01*
X78703148Y-90757281D01*
X78911196Y-90916924D01*
X79138299Y-91048041D01*
X79138309Y-91048046D01*
X79368266Y-91143297D01*
X79380581Y-91148398D01*
X79633884Y-91216270D01*
X79893880Y-91250500D01*
X79893887Y-91250500D01*
X80156113Y-91250500D01*
X80156120Y-91250500D01*
X80416116Y-91216270D01*
X80669419Y-91148398D01*
X80911697Y-91048043D01*
X81138803Y-90916924D01*
X81346851Y-90757282D01*
X81346855Y-90757277D01*
X81346860Y-90757274D01*
X81532274Y-90571860D01*
X81532277Y-90571855D01*
X81532282Y-90571851D01*
X81691924Y-90363803D01*
X81823043Y-90136697D01*
X81923398Y-89894419D01*
X81991270Y-89641116D01*
X82025500Y-89381120D01*
X82025500Y-89118880D01*
X81991270Y-88858884D01*
X81923398Y-88605581D01*
X81923394Y-88605571D01*
X81823046Y-88363309D01*
X81823041Y-88363299D01*
X81691924Y-88136196D01*
X81569424Y-87976554D01*
X81532282Y-87928149D01*
X81532281Y-87928148D01*
X81532274Y-87928140D01*
X81346860Y-87742726D01*
X81346851Y-87742718D01*
X81255831Y-87672875D01*
X81214628Y-87616447D01*
X81210474Y-87546701D01*
X81244687Y-87485781D01*
X81306405Y-87453029D01*
X81331318Y-87450500D01*
X81408481Y-87450500D01*
X81475520Y-87470185D01*
X81496162Y-87486819D01*
X82263181Y-88253838D01*
X82296666Y-88315161D01*
X82299500Y-88341519D01*
X82299500Y-95931006D01*
X82299500Y-96068994D01*
X82299500Y-96068996D01*
X82299499Y-96068996D01*
X82326418Y-96204322D01*
X82326421Y-96204332D01*
X82379222Y-96331807D01*
X82455887Y-96446545D01*
X82455888Y-96446546D01*
X83713181Y-97703837D01*
X83746666Y-97765160D01*
X83749500Y-97791518D01*
X83749500Y-97806610D01*
X83776166Y-97974977D01*
X83776598Y-97977701D01*
X83830127Y-98142445D01*
X83908768Y-98296788D01*
X84010586Y-98436928D01*
X84133072Y-98559414D01*
X84273212Y-98661232D01*
X84427555Y-98739873D01*
X84592299Y-98793402D01*
X84763389Y-98820500D01*
X84763390Y-98820500D01*
X85736610Y-98820500D01*
X85736611Y-98820500D01*
X85907701Y-98793402D01*
X86072445Y-98739873D01*
X86226788Y-98661232D01*
X86366928Y-98559414D01*
X86489414Y-98436928D01*
X86591232Y-98296788D01*
X86669873Y-98142445D01*
X86723402Y-97977701D01*
X86750500Y-97806611D01*
X86750500Y-97633389D01*
X86723402Y-97462299D01*
X86669873Y-97297555D01*
X86591232Y-97143212D01*
X86489414Y-97003072D01*
X86366928Y-96880586D01*
X86226788Y-96778768D01*
X86072445Y-96700127D01*
X85907701Y-96646598D01*
X85907699Y-96646597D01*
X85907698Y-96646597D01*
X85774083Y-96625435D01*
X85736611Y-96619500D01*
X84763389Y-96619500D01*
X84763384Y-96619500D01*
X84693510Y-96630567D01*
X84688084Y-96629865D01*
X84682958Y-96631778D01*
X84653801Y-96625435D01*
X84624217Y-96621612D01*
X84618613Y-96617780D01*
X84614685Y-96616926D01*
X84586431Y-96595775D01*
X84441665Y-96451009D01*
X84408180Y-96389686D01*
X84413164Y-96319994D01*
X84455036Y-96264061D01*
X84520500Y-96239644D01*
X84567660Y-96245396D01*
X84592299Y-96253402D01*
X84763389Y-96280500D01*
X84763390Y-96280500D01*
X85736610Y-96280500D01*
X85736611Y-96280500D01*
X85907701Y-96253402D01*
X86072445Y-96199873D01*
X86226788Y-96121232D01*
X86366928Y-96019414D01*
X86489414Y-95896928D01*
X86591232Y-95756788D01*
X86669873Y-95602445D01*
X86723402Y-95437701D01*
X86750500Y-95266611D01*
X86750500Y-95093389D01*
X86723402Y-94922299D01*
X86669873Y-94757555D01*
X86591232Y-94603212D01*
X86489414Y-94463072D01*
X86366928Y-94340586D01*
X86226788Y-94238768D01*
X86072445Y-94160127D01*
X85907701Y-94106598D01*
X85907699Y-94106597D01*
X85907698Y-94106597D01*
X85772694Y-94085215D01*
X85736611Y-94079500D01*
X84763389Y-94079500D01*
X84727306Y-94085215D01*
X84592302Y-94106597D01*
X84592299Y-94106598D01*
X84440968Y-94155769D01*
X84427552Y-94160128D01*
X84273211Y-94238768D01*
X84193256Y-94296859D01*
X84133072Y-94340586D01*
X84133070Y-94340588D01*
X84133069Y-94340588D01*
X84010587Y-94463070D01*
X83924818Y-94581121D01*
X83869487Y-94623786D01*
X83799874Y-94629765D01*
X83738079Y-94597159D01*
X83703722Y-94536320D01*
X83700500Y-94508235D01*
X83700500Y-93311764D01*
X83720185Y-93244725D01*
X83772989Y-93198970D01*
X83842147Y-93189026D01*
X83905703Y-93218051D01*
X83924815Y-93238874D01*
X84010586Y-93356928D01*
X84133072Y-93479414D01*
X84273212Y-93581232D01*
X84427555Y-93659873D01*
X84592299Y-93713402D01*
X84763389Y-93740500D01*
X84763390Y-93740500D01*
X85736610Y-93740500D01*
X85736611Y-93740500D01*
X85907701Y-93713402D01*
X86072445Y-93659873D01*
X86226788Y-93581232D01*
X86366928Y-93479414D01*
X86489414Y-93356928D01*
X86591232Y-93216788D01*
X86669873Y-93062445D01*
X86723402Y-92897701D01*
X86750500Y-92726611D01*
X86750500Y-92553389D01*
X86723402Y-92382299D01*
X86669873Y-92217555D01*
X86591232Y-92063212D01*
X86489414Y-91923072D01*
X86366928Y-91800586D01*
X86226788Y-91698768D01*
X86072445Y-91620127D01*
X85907701Y-91566598D01*
X85907699Y-91566597D01*
X85907698Y-91566597D01*
X85776271Y-91545781D01*
X85736611Y-91539500D01*
X84763389Y-91539500D01*
X84723728Y-91545781D01*
X84592302Y-91566597D01*
X84427552Y-91620128D01*
X84273211Y-91698768D01*
X84215664Y-91740579D01*
X84133072Y-91800586D01*
X84133070Y-91800588D01*
X84133069Y-91800588D01*
X84010587Y-91923070D01*
X83924818Y-92041121D01*
X83869487Y-92083786D01*
X83799874Y-92089765D01*
X83738079Y-92057159D01*
X83703722Y-91996320D01*
X83700500Y-91968235D01*
X83700500Y-90771764D01*
X83720185Y-90704725D01*
X83772989Y-90658970D01*
X83842147Y-90649026D01*
X83905703Y-90678051D01*
X83924815Y-90698874D01*
X84010586Y-90816928D01*
X84133072Y-90939414D01*
X84273212Y-91041232D01*
X84427555Y-91119873D01*
X84592299Y-91173402D01*
X84763389Y-91200500D01*
X84763390Y-91200500D01*
X85736610Y-91200500D01*
X85736611Y-91200500D01*
X85907701Y-91173402D01*
X86072445Y-91119873D01*
X86226788Y-91041232D01*
X86366928Y-90939414D01*
X86489414Y-90816928D01*
X86591232Y-90676788D01*
X86669873Y-90522445D01*
X86723402Y-90357701D01*
X86750500Y-90186611D01*
X86750500Y-90013389D01*
X86723402Y-89842299D01*
X86669873Y-89677555D01*
X86591232Y-89523212D01*
X86489414Y-89383072D01*
X86366928Y-89260586D01*
X86226788Y-89158768D01*
X86220902Y-89155769D01*
X86072447Y-89080128D01*
X86072446Y-89080127D01*
X86072445Y-89080127D01*
X85907701Y-89026598D01*
X85907699Y-89026597D01*
X85907698Y-89026597D01*
X85776271Y-89005781D01*
X85736611Y-88999500D01*
X84763389Y-88999500D01*
X84723728Y-89005781D01*
X84592302Y-89026597D01*
X84427552Y-89080128D01*
X84273211Y-89158768D01*
X84193256Y-89216859D01*
X84133072Y-89260586D01*
X84133070Y-89260588D01*
X84133069Y-89260588D01*
X84010587Y-89383070D01*
X83924818Y-89501121D01*
X83869487Y-89543786D01*
X83799874Y-89549765D01*
X83738079Y-89517159D01*
X83703722Y-89456320D01*
X83700500Y-89428235D01*
X83700500Y-88231764D01*
X83720185Y-88164725D01*
X83772989Y-88118970D01*
X83842147Y-88109026D01*
X83905703Y-88138051D01*
X83924815Y-88158874D01*
X84010586Y-88276928D01*
X84133072Y-88399414D01*
X84273212Y-88501232D01*
X84427555Y-88579873D01*
X84592299Y-88633402D01*
X84763389Y-88660500D01*
X84763390Y-88660500D01*
X85736610Y-88660500D01*
X85736611Y-88660500D01*
X85907701Y-88633402D01*
X86072445Y-88579873D01*
X86226788Y-88501232D01*
X86366928Y-88399414D01*
X86489414Y-88276928D01*
X86591232Y-88136788D01*
X86669873Y-87982445D01*
X86723402Y-87817701D01*
X86750500Y-87646611D01*
X86750500Y-87473389D01*
X86723402Y-87302299D01*
X86669873Y-87137555D01*
X86591232Y-86983212D01*
X86489414Y-86843072D01*
X86366928Y-86720586D01*
X86226788Y-86618768D01*
X86072445Y-86540127D01*
X85907701Y-86486598D01*
X85907699Y-86486597D01*
X85907698Y-86486597D01*
X85776271Y-86465781D01*
X85736611Y-86459500D01*
X84763389Y-86459500D01*
X84723728Y-86465781D01*
X84592302Y-86486597D01*
X84427552Y-86540128D01*
X84273211Y-86618768D01*
X84213136Y-86662416D01*
X84133072Y-86720586D01*
X84133070Y-86720588D01*
X84133069Y-86720588D01*
X84010588Y-86843069D01*
X84010588Y-86843070D01*
X84010586Y-86843072D01*
X83966859Y-86903256D01*
X83908768Y-86983211D01*
X83830128Y-87137552D01*
X83776597Y-87302302D01*
X83765753Y-87370771D01*
X83750008Y-87470185D01*
X83748738Y-87478201D01*
X83746739Y-87477884D01*
X83724845Y-87535219D01*
X83668588Y-87576654D01*
X83598860Y-87581097D01*
X83538478Y-87547820D01*
X82196546Y-86205888D01*
X82196542Y-86205885D01*
X82157610Y-86179871D01*
X82112805Y-86126258D01*
X82104098Y-86056933D01*
X82123396Y-86007883D01*
X82209394Y-85879179D01*
X82269737Y-85733497D01*
X82300500Y-85578842D01*
X82300500Y-85421158D01*
X82300500Y-85421155D01*
X82300499Y-85421153D01*
X82269739Y-85266512D01*
X82269738Y-85266510D01*
X82269737Y-85266503D01*
X82259875Y-85242695D01*
X82209397Y-85120827D01*
X82209390Y-85120814D01*
X82121789Y-84989711D01*
X82121786Y-84989707D01*
X82010292Y-84878213D01*
X82010288Y-84878210D01*
X81879185Y-84790609D01*
X81879176Y-84790604D01*
X81829431Y-84769999D01*
X83775884Y-84769999D01*
X83775885Y-84770000D01*
X84934314Y-84770000D01*
X84929920Y-84774394D01*
X84877259Y-84865606D01*
X84850000Y-84967339D01*
X84850000Y-85072661D01*
X84877259Y-85174394D01*
X84929920Y-85265606D01*
X84934314Y-85270000D01*
X83775885Y-85270000D01*
X83777085Y-85277584D01*
X83830591Y-85442255D01*
X83909195Y-85596524D01*
X84010967Y-85736602D01*
X84133397Y-85859032D01*
X84273475Y-85960804D01*
X84427742Y-86039408D01*
X84592415Y-86092914D01*
X84763429Y-86120000D01*
X85000000Y-86120000D01*
X85000000Y-85335686D01*
X85004394Y-85340080D01*
X85095606Y-85392741D01*
X85197339Y-85420000D01*
X85302661Y-85420000D01*
X85404394Y-85392741D01*
X85495606Y-85340080D01*
X85500000Y-85335686D01*
X85500000Y-86120000D01*
X85736571Y-86120000D01*
X85907584Y-86092914D01*
X86072257Y-86039408D01*
X86226524Y-85960804D01*
X86366602Y-85859032D01*
X86489032Y-85736602D01*
X86590804Y-85596524D01*
X86669408Y-85442255D01*
X86722914Y-85277584D01*
X86724115Y-85270000D01*
X85565686Y-85270000D01*
X85570080Y-85265606D01*
X85622741Y-85174394D01*
X85650000Y-85072661D01*
X85650000Y-84967339D01*
X85622741Y-84865606D01*
X85570080Y-84774394D01*
X85565686Y-84770000D01*
X86724115Y-84770000D01*
X86724115Y-84769999D01*
X86722914Y-84762415D01*
X86669408Y-84597744D01*
X86590804Y-84443475D01*
X86489032Y-84303397D01*
X86366602Y-84180967D01*
X86226524Y-84079195D01*
X86072257Y-84000591D01*
X85907584Y-83947085D01*
X85736571Y-83920000D01*
X85500000Y-83920000D01*
X85500000Y-84704314D01*
X85495606Y-84699920D01*
X85404394Y-84647259D01*
X85302661Y-84620000D01*
X85197339Y-84620000D01*
X85095606Y-84647259D01*
X85004394Y-84699920D01*
X85000000Y-84704314D01*
X85000000Y-83920000D01*
X84763429Y-83920000D01*
X84592415Y-83947085D01*
X84427742Y-84000591D01*
X84273475Y-84079195D01*
X84133397Y-84180967D01*
X84010967Y-84303397D01*
X83909195Y-84443475D01*
X83830591Y-84597744D01*
X83777085Y-84762415D01*
X83775884Y-84769999D01*
X81829431Y-84769999D01*
X81734812Y-84730807D01*
X81694584Y-84703927D01*
X80936819Y-83946162D01*
X80903334Y-83884839D01*
X80900500Y-83858481D01*
X80900500Y-83193386D01*
X80894086Y-83122807D01*
X80894086Y-83122804D01*
X80843478Y-82960394D01*
X80755472Y-82814815D01*
X80755470Y-82814813D01*
X80755469Y-82814811D01*
X80635188Y-82694530D01*
X80627693Y-82689999D01*
X80610147Y-82679391D01*
X80562960Y-82627865D01*
X80551122Y-82559005D01*
X80578391Y-82494677D01*
X80636110Y-82455303D01*
X80685518Y-82449785D01*
X80693384Y-82450500D01*
X80693388Y-82450500D01*
X81206613Y-82450500D01*
X81206616Y-82450500D01*
X81277196Y-82444086D01*
X81439606Y-82393478D01*
X81439753Y-82393389D01*
X83749500Y-82393389D01*
X83749500Y-82566610D01*
X83770752Y-82700794D01*
X83776598Y-82737701D01*
X83830127Y-82902445D01*
X83908768Y-83056788D01*
X84010586Y-83196928D01*
X84133072Y-83319414D01*
X84273212Y-83421232D01*
X84427555Y-83499873D01*
X84592299Y-83553402D01*
X84763389Y-83580500D01*
X84763390Y-83580500D01*
X85736610Y-83580500D01*
X85736611Y-83580500D01*
X85907701Y-83553402D01*
X86072445Y-83499873D01*
X86226788Y-83421232D01*
X86366928Y-83319414D01*
X86489414Y-83196928D01*
X86591232Y-83056788D01*
X86669873Y-82902445D01*
X86723402Y-82737701D01*
X86750500Y-82566611D01*
X86750500Y-82393389D01*
X86723402Y-82222299D01*
X86669873Y-82057555D01*
X86591232Y-81903212D01*
X86489414Y-81763072D01*
X86366928Y-81640586D01*
X86226788Y-81538768D01*
X86072445Y-81460127D01*
X85907701Y-81406598D01*
X85907699Y-81406597D01*
X85907698Y-81406597D01*
X85776271Y-81385781D01*
X85736611Y-81379500D01*
X84763389Y-81379500D01*
X84723728Y-81385781D01*
X84592302Y-81406597D01*
X84427552Y-81460128D01*
X84273211Y-81538768D01*
X84248222Y-81556924D01*
X84133072Y-81640586D01*
X84133070Y-81640588D01*
X84133069Y-81640588D01*
X84010588Y-81763069D01*
X84010588Y-81763070D01*
X84010586Y-81763072D01*
X83992186Y-81788398D01*
X83908768Y-81903211D01*
X83830128Y-82057552D01*
X83776597Y-82222302D01*
X83749500Y-82393389D01*
X81439753Y-82393389D01*
X81585185Y-82305472D01*
X81585586Y-82305071D01*
X81589822Y-82300836D01*
X81705468Y-82185189D01*
X81705469Y-82185188D01*
X81705472Y-82185185D01*
X81793478Y-82039606D01*
X81844086Y-81877196D01*
X81850500Y-81806616D01*
X81850500Y-80193384D01*
X81844086Y-80122804D01*
X81793478Y-79960394D01*
X81773184Y-79926825D01*
X81771016Y-79918612D01*
X81765572Y-79912089D01*
X81762229Y-79885334D01*
X81755348Y-79859271D01*
X81757252Y-79853389D01*
X83749500Y-79853389D01*
X83749500Y-80026610D01*
X83775914Y-80193386D01*
X83776598Y-80197701D01*
X83813086Y-80310000D01*
X83830128Y-80362447D01*
X83878452Y-80457289D01*
X83908768Y-80516788D01*
X84010586Y-80656928D01*
X84133072Y-80779414D01*
X84273212Y-80881232D01*
X84427555Y-80959873D01*
X84592299Y-81013402D01*
X84763389Y-81040500D01*
X84763390Y-81040500D01*
X85736610Y-81040500D01*
X85736611Y-81040500D01*
X85907701Y-81013402D01*
X86072445Y-80959873D01*
X86226788Y-80881232D01*
X86366928Y-80779414D01*
X86489414Y-80656928D01*
X86591232Y-80516788D01*
X86669873Y-80362445D01*
X86723402Y-80197701D01*
X86750500Y-80026611D01*
X86750500Y-79853389D01*
X86723402Y-79682299D01*
X86669873Y-79517555D01*
X86591232Y-79363212D01*
X86489414Y-79223072D01*
X86366928Y-79100586D01*
X86226788Y-78998768D01*
X86072445Y-78920127D01*
X85907701Y-78866598D01*
X85907699Y-78866597D01*
X85907698Y-78866597D01*
X85776271Y-78845781D01*
X85736611Y-78839500D01*
X84763389Y-78839500D01*
X84723728Y-78845781D01*
X84592302Y-78866597D01*
X84427552Y-78920128D01*
X84273211Y-78998768D01*
X84231711Y-79028920D01*
X84133072Y-79100586D01*
X84133070Y-79100588D01*
X84133069Y-79100588D01*
X84010588Y-79223069D01*
X84010588Y-79223070D01*
X84010586Y-79223072D01*
X83988988Y-79252799D01*
X83908768Y-79363211D01*
X83830128Y-79517552D01*
X83776597Y-79682302D01*
X83749500Y-79853389D01*
X81757252Y-79853389D01*
X81757964Y-79851188D01*
X81756911Y-79842758D01*
X81768562Y-79818447D01*
X81776865Y-79792797D01*
X81784223Y-79785769D01*
X81787108Y-79779751D01*
X81814198Y-79757141D01*
X81918656Y-79692712D01*
X82042712Y-79568656D01*
X82134814Y-79419334D01*
X82189999Y-79252797D01*
X82200500Y-79150009D01*
X82200499Y-78349992D01*
X82198727Y-78332650D01*
X82189999Y-78247203D01*
X82189998Y-78247200D01*
X82182004Y-78223075D01*
X82134814Y-78080666D01*
X82042712Y-77931344D01*
X81949049Y-77837681D01*
X81915564Y-77776358D01*
X81920548Y-77706666D01*
X81949049Y-77662319D01*
X81992655Y-77618713D01*
X82042712Y-77568656D01*
X82134814Y-77419334D01*
X82169921Y-77313389D01*
X83749500Y-77313389D01*
X83749500Y-77486611D01*
X83776598Y-77657701D01*
X83830127Y-77822445D01*
X83908768Y-77976788D01*
X84010586Y-78116928D01*
X84133072Y-78239414D01*
X84273212Y-78341232D01*
X84427555Y-78419873D01*
X84592299Y-78473402D01*
X84763389Y-78500500D01*
X84763390Y-78500500D01*
X85736610Y-78500500D01*
X85736611Y-78500500D01*
X85907701Y-78473402D01*
X86072445Y-78419873D01*
X86226788Y-78341232D01*
X86366928Y-78239414D01*
X86489414Y-78116928D01*
X86591232Y-77976788D01*
X86669873Y-77822445D01*
X86723402Y-77657701D01*
X86750500Y-77486611D01*
X86750500Y-77313389D01*
X86723402Y-77142299D01*
X86669873Y-76977555D01*
X86591232Y-76823212D01*
X86489414Y-76683072D01*
X86366928Y-76560586D01*
X86226788Y-76458768D01*
X86072445Y-76380127D01*
X85907701Y-76326598D01*
X85907699Y-76326597D01*
X85907698Y-76326597D01*
X85769979Y-76304785D01*
X85736611Y-76299500D01*
X84763389Y-76299500D01*
X84730021Y-76304785D01*
X84592302Y-76326597D01*
X84592299Y-76326598D01*
X84475884Y-76364424D01*
X84427552Y-76380128D01*
X84273211Y-76458768D01*
X84193256Y-76516859D01*
X84133072Y-76560586D01*
X84133070Y-76560588D01*
X84133069Y-76560588D01*
X84010588Y-76683069D01*
X84010588Y-76683070D01*
X84010586Y-76683072D01*
X83997925Y-76700499D01*
X83908768Y-76823211D01*
X83830128Y-76977552D01*
X83776597Y-77142302D01*
X83756449Y-77269513D01*
X83749500Y-77313389D01*
X82169921Y-77313389D01*
X82189999Y-77252797D01*
X82200500Y-77150009D01*
X82200499Y-76450096D01*
X82220183Y-76383058D01*
X82236813Y-76362421D01*
X83564172Y-75035062D01*
X83625493Y-75001579D01*
X83695185Y-75006563D01*
X83751118Y-75048435D01*
X83774324Y-75103345D01*
X83776597Y-75117699D01*
X83797995Y-75183554D01*
X83830127Y-75282445D01*
X83908768Y-75436788D01*
X84010586Y-75576928D01*
X84133072Y-75699414D01*
X84273212Y-75801232D01*
X84427555Y-75879873D01*
X84592299Y-75933402D01*
X84763389Y-75960500D01*
X84763390Y-75960500D01*
X85736610Y-75960500D01*
X85736611Y-75960500D01*
X85907701Y-75933402D01*
X86072445Y-75879873D01*
X86226788Y-75801232D01*
X86366928Y-75699414D01*
X86489414Y-75576928D01*
X86591232Y-75436788D01*
X86669873Y-75282445D01*
X86723402Y-75117701D01*
X86750500Y-74946611D01*
X86750500Y-74773389D01*
X86723402Y-74602299D01*
X86669873Y-74437555D01*
X86591232Y-74283212D01*
X86489414Y-74143072D01*
X86366928Y-74020586D01*
X86226788Y-73918768D01*
X86072445Y-73840127D01*
X85907701Y-73786598D01*
X85907699Y-73786597D01*
X85907698Y-73786597D01*
X85776271Y-73765781D01*
X85736611Y-73759500D01*
X85736610Y-73759500D01*
X85139098Y-73759500D01*
X85117852Y-73753261D01*
X85095764Y-73751682D01*
X85084980Y-73743609D01*
X85072059Y-73739815D01*
X85057559Y-73723081D01*
X85039831Y-73709810D01*
X85035123Y-73697189D01*
X85026304Y-73687011D01*
X85023152Y-73665093D01*
X85015414Y-73644346D01*
X85018276Y-73631185D01*
X85016360Y-73617853D01*
X85025559Y-73597709D01*
X85030266Y-73576073D01*
X85043534Y-73558347D01*
X85045385Y-73554297D01*
X85051417Y-73547819D01*
X85142417Y-73456819D01*
X85203740Y-73423334D01*
X85230098Y-73420500D01*
X85736610Y-73420500D01*
X85736611Y-73420500D01*
X85907701Y-73393402D01*
X86072445Y-73339873D01*
X86226788Y-73261232D01*
X86366928Y-73159414D01*
X86489414Y-73036928D01*
X86591232Y-72896788D01*
X86669873Y-72742445D01*
X86723402Y-72577701D01*
X86750500Y-72406611D01*
X86750500Y-72233389D01*
X86723402Y-72062299D01*
X86669873Y-71897555D01*
X86591232Y-71743212D01*
X86489414Y-71603072D01*
X86366928Y-71480586D01*
X86226788Y-71378768D01*
X86072445Y-71300127D01*
X85907701Y-71246598D01*
X85907699Y-71246597D01*
X85907698Y-71246597D01*
X85776271Y-71225781D01*
X85736611Y-71219500D01*
X84959097Y-71219500D01*
X84937851Y-71213261D01*
X84915763Y-71211682D01*
X84904979Y-71203609D01*
X84892058Y-71199815D01*
X84877558Y-71183081D01*
X84859830Y-71169810D01*
X84855122Y-71157189D01*
X84846303Y-71147011D01*
X84843151Y-71125093D01*
X84835413Y-71104346D01*
X84838275Y-71091185D01*
X84836359Y-71077853D01*
X84845558Y-71057709D01*
X84850265Y-71036073D01*
X84863533Y-71018347D01*
X84865384Y-71014297D01*
X84871416Y-71007819D01*
X84962416Y-70916819D01*
X85023739Y-70883334D01*
X85050097Y-70880500D01*
X85736610Y-70880500D01*
X85736611Y-70880500D01*
X85907701Y-70853402D01*
X86072445Y-70799873D01*
X86226788Y-70721232D01*
X86366928Y-70619414D01*
X86489414Y-70496928D01*
X86591232Y-70356788D01*
X86669873Y-70202445D01*
X86723402Y-70037701D01*
X86750500Y-69866611D01*
X86750500Y-69693389D01*
X86723402Y-69522299D01*
X86669873Y-69357555D01*
X86591232Y-69203212D01*
X86489414Y-69063072D01*
X86366928Y-68940586D01*
X86226788Y-68838768D01*
X86072445Y-68760127D01*
X85907701Y-68706598D01*
X85907699Y-68706597D01*
X85907698Y-68706597D01*
X85776271Y-68685781D01*
X85736611Y-68679500D01*
X84763389Y-68679500D01*
X84723728Y-68685781D01*
X84592302Y-68706597D01*
X84427552Y-68760128D01*
X84273211Y-68838768D01*
X84193256Y-68896859D01*
X84133072Y-68940586D01*
X84133070Y-68940588D01*
X84133069Y-68940588D01*
X84010588Y-69063069D01*
X84010588Y-69063070D01*
X84010586Y-69063072D01*
X83981802Y-69102690D01*
X83908768Y-69203211D01*
X83830128Y-69357552D01*
X83830127Y-69357554D01*
X83830127Y-69357555D01*
X83816780Y-69398632D01*
X83776597Y-69522302D01*
X83758778Y-69634812D01*
X83749500Y-69693389D01*
X83749500Y-69866611D01*
X83776598Y-70037701D01*
X83803597Y-70120794D01*
X83830126Y-70202442D01*
X83830128Y-70202447D01*
X83839248Y-70220346D01*
X83852143Y-70289015D01*
X83825866Y-70353755D01*
X83816443Y-70364320D01*
X77567584Y-76613181D01*
X77506261Y-76646666D01*
X77479903Y-76649500D01*
X73298023Y-76649500D01*
X73230984Y-76629815D01*
X73185229Y-76577011D01*
X73175285Y-76507853D01*
X73204310Y-76444297D01*
X73210342Y-76437819D01*
X73229815Y-76418345D01*
X73321856Y-76269124D01*
X73321858Y-76269119D01*
X73377005Y-76102697D01*
X73377006Y-76102690D01*
X73387499Y-75999986D01*
X73387500Y-75999973D01*
X73387500Y-75750000D01*
X72411500Y-75750000D01*
X72344461Y-75730315D01*
X72298706Y-75677511D01*
X72287500Y-75626000D01*
X72287500Y-75500000D01*
X72161500Y-75500000D01*
X72094461Y-75480315D01*
X72048706Y-75427511D01*
X72037500Y-75376000D01*
X72037500Y-74855000D01*
X72537500Y-74855000D01*
X72537500Y-75250000D01*
X73387499Y-75250000D01*
X73387499Y-75000028D01*
X73387498Y-75000013D01*
X73377005Y-74897302D01*
X73321858Y-74730880D01*
X73321856Y-74730875D01*
X73238060Y-74595020D01*
X73219620Y-74527627D01*
X73240543Y-74460964D01*
X73250353Y-74449018D01*
X73250339Y-74449007D01*
X73254815Y-74443346D01*
X73346856Y-74294124D01*
X73346858Y-74294119D01*
X73402005Y-74127697D01*
X73402006Y-74127690D01*
X73412499Y-74024986D01*
X73412500Y-74024973D01*
X73412500Y-73750000D01*
X72575000Y-73750000D01*
X72575000Y-74766138D01*
X72566355Y-74795578D01*
X72559832Y-74825565D01*
X72556077Y-74830580D01*
X72555315Y-74833177D01*
X72538681Y-74853819D01*
X72537500Y-74855000D01*
X72037500Y-74855000D01*
X72037500Y-74258862D01*
X72057185Y-74191823D01*
X72073819Y-74171181D01*
X72075000Y-74170000D01*
X72075000Y-73250000D01*
X72575000Y-73250000D01*
X73412499Y-73250000D01*
X73412499Y-72975028D01*
X73412498Y-72975013D01*
X73402005Y-72872302D01*
X73346858Y-72705880D01*
X73346856Y-72705875D01*
X73254815Y-72556654D01*
X73130845Y-72432684D01*
X72981624Y-72340643D01*
X72981619Y-72340641D01*
X72815197Y-72285494D01*
X72815190Y-72285493D01*
X72712486Y-72275000D01*
X72575000Y-72275000D01*
X72575000Y-73250000D01*
X72075000Y-73250000D01*
X72075000Y-72275000D01*
X71937527Y-72275000D01*
X71937512Y-72275001D01*
X71834802Y-72285494D01*
X71668380Y-72340641D01*
X71668375Y-72340643D01*
X71519154Y-72432684D01*
X71395183Y-72556655D01*
X71395179Y-72556660D01*
X71393326Y-72559665D01*
X71391518Y-72561290D01*
X71390702Y-72562323D01*
X71390525Y-72562183D01*
X71341374Y-72606385D01*
X71272411Y-72617601D01*
X71208331Y-72589752D01*
X71182253Y-72559653D01*
X71182237Y-72559628D01*
X71180212Y-72556344D01*
X71056156Y-72432288D01*
X70906834Y-72340186D01*
X70740297Y-72285001D01*
X70740295Y-72285000D01*
X70637510Y-72274500D01*
X69862498Y-72274500D01*
X69862480Y-72274501D01*
X69759703Y-72285000D01*
X69759700Y-72285001D01*
X69593168Y-72340185D01*
X69593163Y-72340187D01*
X69443842Y-72432289D01*
X69319789Y-72556342D01*
X69227687Y-72705663D01*
X69227682Y-72705674D01*
X69184135Y-72837088D01*
X69144362Y-72894533D01*
X69135321Y-72901185D01*
X69053457Y-72955885D01*
X69053453Y-72955888D01*
X68746160Y-73263181D01*
X68684837Y-73296666D01*
X68658479Y-73299500D01*
X68099998Y-73299500D01*
X68099980Y-73299501D01*
X67997203Y-73310000D01*
X67997200Y-73310001D01*
X67830668Y-73365185D01*
X67830663Y-73365187D01*
X67681342Y-73457289D01*
X67587681Y-73550951D01*
X67526358Y-73584436D01*
X67456666Y-73579452D01*
X67412319Y-73550951D01*
X67318657Y-73457289D01*
X67318656Y-73457288D01*
X67215080Y-73393402D01*
X67169336Y-73365187D01*
X67169331Y-73365185D01*
X67167862Y-73364698D01*
X67002797Y-73310001D01*
X67002795Y-73310000D01*
X66900016Y-73299500D01*
X66900009Y-73299500D01*
X66341519Y-73299500D01*
X66274480Y-73279815D01*
X66253838Y-73263181D01*
X65546546Y-72555888D01*
X65546545Y-72555887D01*
X65431807Y-72479222D01*
X65304332Y-72426421D01*
X65304322Y-72426418D01*
X65168996Y-72399500D01*
X65168994Y-72399500D01*
X65168993Y-72399500D01*
X63790348Y-72399500D01*
X63723309Y-72379815D01*
X63679863Y-72331795D01*
X63656271Y-72285494D01*
X63643870Y-72261155D01*
X63592633Y-72190633D01*
X63495798Y-72057350D01*
X63495794Y-72057345D01*
X63317654Y-71879205D01*
X63317649Y-71879201D01*
X63113848Y-71731132D01*
X63113847Y-71731131D01*
X63113845Y-71731130D01*
X63043747Y-71695413D01*
X62889383Y-71616760D01*
X62649785Y-71538910D01*
X62400962Y-71499500D01*
X62149038Y-71499500D01*
X62024626Y-71519205D01*
X61900214Y-71538910D01*
X61660616Y-71616760D01*
X61436151Y-71731132D01*
X61232350Y-71879201D01*
X61232345Y-71879205D01*
X61054205Y-72057345D01*
X61054201Y-72057350D01*
X60924818Y-72235432D01*
X60869488Y-72278098D01*
X60799875Y-72284077D01*
X60738080Y-72251472D01*
X60703723Y-72190633D01*
X60700500Y-72162547D01*
X60700500Y-71121153D01*
X77949500Y-71121153D01*
X77949500Y-71278846D01*
X77980261Y-71433489D01*
X77980264Y-71433501D01*
X78040602Y-71579172D01*
X78040609Y-71579185D01*
X78128210Y-71710288D01*
X78128213Y-71710292D01*
X78239707Y-71821786D01*
X78239711Y-71821789D01*
X78370814Y-71909390D01*
X78370827Y-71909397D01*
X78516498Y-71969735D01*
X78516503Y-71969737D01*
X78671153Y-72000499D01*
X78671156Y-72000500D01*
X78671158Y-72000500D01*
X78828844Y-72000500D01*
X78828845Y-72000499D01*
X78983497Y-71969737D01*
X79129179Y-71909394D01*
X79260289Y-71821789D01*
X79371789Y-71710289D01*
X79459394Y-71579179D01*
X79519737Y-71433497D01*
X79546266Y-71300127D01*
X79550638Y-71278150D01*
X79583023Y-71216239D01*
X79584517Y-71214717D01*
X81764664Y-69034571D01*
X81825985Y-69001088D01*
X81828152Y-69000637D01*
X81828841Y-69000500D01*
X81828842Y-69000500D01*
X81983497Y-68969737D01*
X82129179Y-68909394D01*
X82260289Y-68821789D01*
X82371789Y-68710289D01*
X82459394Y-68579179D01*
X82519737Y-68433497D01*
X82550500Y-68278842D01*
X82550500Y-68121158D01*
X82550500Y-68121155D01*
X82550499Y-68121153D01*
X82543124Y-68084077D01*
X82519737Y-67966503D01*
X82515636Y-67956602D01*
X82459397Y-67820827D01*
X82459390Y-67820814D01*
X82371789Y-67689711D01*
X82371786Y-67689707D01*
X82260292Y-67578213D01*
X82260288Y-67578210D01*
X82129185Y-67490609D01*
X82129172Y-67490602D01*
X81983501Y-67430264D01*
X81983489Y-67430261D01*
X81828845Y-67399500D01*
X81828842Y-67399500D01*
X81671158Y-67399500D01*
X81671155Y-67399500D01*
X81516510Y-67430261D01*
X81516498Y-67430264D01*
X81370827Y-67490602D01*
X81370814Y-67490609D01*
X81239711Y-67578210D01*
X81239707Y-67578213D01*
X81128213Y-67689707D01*
X81128210Y-67689711D01*
X81040609Y-67820814D01*
X81040602Y-67820827D01*
X80980264Y-67966498D01*
X80980261Y-67966508D01*
X80949362Y-68121848D01*
X80916977Y-68183759D01*
X80915426Y-68185337D01*
X78735339Y-70365425D01*
X78674016Y-70398910D01*
X78671850Y-70399361D01*
X78516508Y-70430261D01*
X78516498Y-70430264D01*
X78370827Y-70490602D01*
X78370814Y-70490609D01*
X78239711Y-70578210D01*
X78239707Y-70578213D01*
X78128213Y-70689707D01*
X78128210Y-70689711D01*
X78040609Y-70820814D01*
X78040602Y-70820827D01*
X77980264Y-70966498D01*
X77980261Y-70966510D01*
X77949500Y-71121153D01*
X60700500Y-71121153D01*
X60700500Y-69837452D01*
X60720185Y-69770413D01*
X60772989Y-69724658D01*
X60842147Y-69714714D01*
X60905703Y-69743739D01*
X60924818Y-69764567D01*
X61054201Y-69942650D01*
X61232345Y-70120794D01*
X61232350Y-70120798D01*
X61344731Y-70202447D01*
X61436155Y-70268870D01*
X61579184Y-70341747D01*
X61660616Y-70383239D01*
X61660618Y-70383239D01*
X61660621Y-70383241D01*
X61900215Y-70461090D01*
X62149038Y-70500500D01*
X62149039Y-70500500D01*
X62400961Y-70500500D01*
X62400962Y-70500500D01*
X62649785Y-70461090D01*
X62889379Y-70383241D01*
X63113845Y-70268870D01*
X63317656Y-70120793D01*
X63495793Y-69942656D01*
X63643870Y-69738845D01*
X63679863Y-69668205D01*
X63727838Y-69617409D01*
X63790348Y-69600500D01*
X65168996Y-69600500D01*
X65260040Y-69582389D01*
X65304328Y-69573580D01*
X65379809Y-69542315D01*
X65431807Y-69520777D01*
X65431808Y-69520776D01*
X65431811Y-69520775D01*
X65546543Y-69444114D01*
X66253838Y-68736817D01*
X66315161Y-68703333D01*
X66341519Y-68700499D01*
X66900002Y-68700499D01*
X66900008Y-68700499D01*
X67002797Y-68689999D01*
X67169334Y-68634814D01*
X67318656Y-68542712D01*
X67412319Y-68449049D01*
X67473642Y-68415564D01*
X67543334Y-68420548D01*
X67587681Y-68449049D01*
X67681344Y-68542712D01*
X67830666Y-68634814D01*
X67997203Y-68689999D01*
X68099991Y-68700500D01*
X68658479Y-68700499D01*
X68725518Y-68720183D01*
X68746160Y-68736818D01*
X69053454Y-69044112D01*
X69053457Y-69044114D01*
X69141133Y-69102697D01*
X69173254Y-69124159D01*
X69172463Y-69125342D01*
X69217211Y-69169287D01*
X69226627Y-69190693D01*
X69252614Y-69269119D01*
X69252686Y-69269334D01*
X69344788Y-69418656D01*
X69468844Y-69542712D01*
X69618166Y-69634814D01*
X69784703Y-69689999D01*
X69887491Y-69700500D01*
X70687508Y-69700499D01*
X70687516Y-69700498D01*
X70687519Y-69700498D01*
X70757111Y-69693389D01*
X70790297Y-69689999D01*
X70956834Y-69634814D01*
X71106156Y-69542712D01*
X71200175Y-69448692D01*
X71261494Y-69415210D01*
X71331186Y-69420194D01*
X71375534Y-69448695D01*
X71469154Y-69542315D01*
X71618375Y-69634356D01*
X71618380Y-69634358D01*
X71784802Y-69689505D01*
X71784809Y-69689506D01*
X71887519Y-69699999D01*
X72037499Y-69699999D01*
X72537500Y-69699999D01*
X72687472Y-69699999D01*
X72687486Y-69699998D01*
X72790197Y-69689505D01*
X72956619Y-69634358D01*
X72956624Y-69634356D01*
X73105845Y-69542315D01*
X73229815Y-69418345D01*
X73321856Y-69269124D01*
X73321858Y-69269119D01*
X73377005Y-69102697D01*
X73377006Y-69102690D01*
X73387499Y-68999986D01*
X73387500Y-68999973D01*
X73387500Y-68750000D01*
X72537500Y-68750000D01*
X72537500Y-69699999D01*
X72037499Y-69699999D01*
X72037500Y-69699998D01*
X72037500Y-67855000D01*
X72537500Y-67855000D01*
X72537500Y-68250000D01*
X73387499Y-68250000D01*
X73387499Y-68000028D01*
X73387498Y-68000013D01*
X73377005Y-67897302D01*
X73321858Y-67730880D01*
X73321856Y-67730875D01*
X73238060Y-67595020D01*
X73219620Y-67527627D01*
X73240543Y-67460964D01*
X73250353Y-67449018D01*
X73250339Y-67449007D01*
X73254815Y-67443346D01*
X73346856Y-67294124D01*
X73346858Y-67294119D01*
X73402005Y-67127697D01*
X73402006Y-67127690D01*
X73412499Y-67024986D01*
X73412500Y-67024973D01*
X73412500Y-66750000D01*
X72575000Y-66750000D01*
X72575000Y-67766138D01*
X72566355Y-67795578D01*
X72559832Y-67825565D01*
X72556077Y-67830580D01*
X72555315Y-67833177D01*
X72538681Y-67853819D01*
X72537500Y-67855000D01*
X72037500Y-67855000D01*
X72037500Y-67258862D01*
X72057185Y-67191823D01*
X72073819Y-67171181D01*
X72075000Y-67170000D01*
X72075000Y-66250000D01*
X72575000Y-66250000D01*
X73412499Y-66250000D01*
X73412499Y-65975028D01*
X73412498Y-65975013D01*
X73402005Y-65872302D01*
X73346858Y-65705880D01*
X73346856Y-65705875D01*
X73254815Y-65556654D01*
X73130845Y-65432684D01*
X72981624Y-65340643D01*
X72981619Y-65340641D01*
X72815197Y-65285494D01*
X72815190Y-65285493D01*
X72712486Y-65275000D01*
X72575000Y-65275000D01*
X72575000Y-66250000D01*
X72075000Y-66250000D01*
X72075000Y-65275000D01*
X71937527Y-65275000D01*
X71937512Y-65275001D01*
X71834802Y-65285494D01*
X71668380Y-65340641D01*
X71668375Y-65340643D01*
X71519154Y-65432684D01*
X71395183Y-65556655D01*
X71395179Y-65556660D01*
X71393326Y-65559665D01*
X71391518Y-65561290D01*
X71390702Y-65562323D01*
X71390525Y-65562183D01*
X71341374Y-65606385D01*
X71272411Y-65617601D01*
X71208331Y-65589752D01*
X71182253Y-65559653D01*
X71182237Y-65559628D01*
X71180212Y-65556344D01*
X71056156Y-65432288D01*
X70909402Y-65341770D01*
X70902578Y-65334183D01*
X70893297Y-65329945D01*
X70879608Y-65308645D01*
X70862679Y-65289823D01*
X70860034Y-65278187D01*
X70855523Y-65271167D01*
X70850500Y-65236232D01*
X70850500Y-65079765D01*
X70870185Y-65012726D01*
X70871398Y-65010874D01*
X70959390Y-64879185D01*
X70959390Y-64879184D01*
X70959394Y-64879179D01*
X71019737Y-64733497D01*
X71050500Y-64578842D01*
X71050500Y-64421158D01*
X71050500Y-64421155D01*
X71050499Y-64421153D01*
X71033405Y-64335215D01*
X71019737Y-64266503D01*
X71016967Y-64259815D01*
X70959397Y-64120827D01*
X70959390Y-64120814D01*
X70871789Y-63989711D01*
X70871786Y-63989707D01*
X70760292Y-63878213D01*
X70760288Y-63878210D01*
X70629185Y-63790609D01*
X70629172Y-63790602D01*
X70483501Y-63730264D01*
X70483489Y-63730261D01*
X70328845Y-63699500D01*
X70328842Y-63699500D01*
X70171158Y-63699500D01*
X70171155Y-63699500D01*
X70016510Y-63730261D01*
X70016498Y-63730264D01*
X69870827Y-63790602D01*
X69870814Y-63790609D01*
X69739711Y-63878210D01*
X69739707Y-63878213D01*
X69628213Y-63989707D01*
X69628210Y-63989711D01*
X69540609Y-64120814D01*
X69540602Y-64120827D01*
X69480264Y-64266498D01*
X69480261Y-64266510D01*
X69449500Y-64421153D01*
X69449500Y-64578846D01*
X69480261Y-64733489D01*
X69480264Y-64733501D01*
X69540602Y-64879172D01*
X69540609Y-64879185D01*
X69628602Y-65010874D01*
X69634252Y-65028920D01*
X69644477Y-65044830D01*
X69648928Y-65075789D01*
X69649480Y-65077551D01*
X69649500Y-65079765D01*
X69649500Y-65236232D01*
X69629815Y-65303271D01*
X69590598Y-65341769D01*
X69541970Y-65371764D01*
X69443842Y-65432289D01*
X69319789Y-65556342D01*
X69227687Y-65705663D01*
X69227682Y-65705674D01*
X69184135Y-65837088D01*
X69144362Y-65894533D01*
X69135321Y-65901185D01*
X69053457Y-65955885D01*
X69053453Y-65955888D01*
X68746160Y-66263181D01*
X68684837Y-66296666D01*
X68658479Y-66299500D01*
X68099998Y-66299500D01*
X68099980Y-66299501D01*
X67997203Y-66310000D01*
X67997200Y-66310001D01*
X67830668Y-66365185D01*
X67830663Y-66365187D01*
X67681342Y-66457289D01*
X67587681Y-66550951D01*
X67526358Y-66584436D01*
X67456666Y-66579452D01*
X67412319Y-66550951D01*
X67318657Y-66457289D01*
X67318656Y-66457288D01*
X67169334Y-66365186D01*
X67002797Y-66310001D01*
X67002795Y-66310000D01*
X66900010Y-66299500D01*
X66099998Y-66299500D01*
X66099980Y-66299501D01*
X65997203Y-66310000D01*
X65997200Y-66310001D01*
X65830668Y-66365185D01*
X65830663Y-66365187D01*
X65681342Y-66457289D01*
X65557289Y-66581342D01*
X65465187Y-66730663D01*
X65465186Y-66730666D01*
X65410001Y-66897203D01*
X65410001Y-66897204D01*
X65410000Y-66897204D01*
X65399500Y-66999983D01*
X65399500Y-67558480D01*
X65379815Y-67625519D01*
X65363181Y-67646161D01*
X64846162Y-68163181D01*
X64784839Y-68196666D01*
X64758481Y-68199500D01*
X63790348Y-68199500D01*
X63723309Y-68179815D01*
X63679863Y-68131795D01*
X63653173Y-68079414D01*
X63643870Y-68061155D01*
X63575105Y-67966508D01*
X63495798Y-67857350D01*
X63495794Y-67857345D01*
X63317654Y-67679205D01*
X63317649Y-67679201D01*
X63113848Y-67531132D01*
X63113847Y-67531131D01*
X63113845Y-67531130D01*
X63024499Y-67485606D01*
X62889383Y-67416760D01*
X62649785Y-67338910D01*
X62581483Y-67328092D01*
X62400962Y-67299500D01*
X62149038Y-67299500D01*
X62024626Y-67319205D01*
X61900214Y-67338910D01*
X61660616Y-67416760D01*
X61436151Y-67531132D01*
X61232350Y-67679201D01*
X61232345Y-67679205D01*
X61054205Y-67857345D01*
X61054201Y-67857350D01*
X60924818Y-68035432D01*
X60869488Y-68078098D01*
X60799875Y-68084077D01*
X60738080Y-68051472D01*
X60703723Y-67990633D01*
X60700500Y-67962547D01*
X60700500Y-65647452D01*
X60720185Y-65580413D01*
X60772989Y-65534658D01*
X60842147Y-65524714D01*
X60905703Y-65553739D01*
X60924818Y-65574567D01*
X61054201Y-65752650D01*
X61232345Y-65930794D01*
X61232350Y-65930798D01*
X61344365Y-66012181D01*
X61436155Y-66078870D01*
X61556130Y-66140000D01*
X61660616Y-66193239D01*
X61660618Y-66193239D01*
X61660621Y-66193241D01*
X61900215Y-66271090D01*
X62149038Y-66310500D01*
X62149039Y-66310500D01*
X62400961Y-66310500D01*
X62400962Y-66310500D01*
X62649785Y-66271090D01*
X62889379Y-66193241D01*
X63113845Y-66078870D01*
X63317656Y-65930793D01*
X63495793Y-65752656D01*
X63643870Y-65548845D01*
X63758241Y-65324379D01*
X63836090Y-65084785D01*
X63875500Y-64835962D01*
X63875500Y-64584038D01*
X63836090Y-64335215D01*
X63811589Y-64259812D01*
X63809595Y-64189973D01*
X63841838Y-64133817D01*
X66238838Y-61736818D01*
X66300161Y-61703333D01*
X66326519Y-61700499D01*
X66900002Y-61700499D01*
X66900008Y-61700499D01*
X67002797Y-61689999D01*
X67169334Y-61634814D01*
X67318656Y-61542712D01*
X67412319Y-61449049D01*
X67473642Y-61415564D01*
X67543334Y-61420548D01*
X67587681Y-61449049D01*
X67681344Y-61542712D01*
X67830666Y-61634814D01*
X67997203Y-61689999D01*
X68099991Y-61700500D01*
X68658479Y-61700499D01*
X68725518Y-61720183D01*
X68746160Y-61736818D01*
X69053454Y-62044112D01*
X69053457Y-62044114D01*
X69129906Y-62095195D01*
X69174710Y-62148806D01*
X69178721Y-62159292D01*
X69215186Y-62269334D01*
X69307288Y-62418656D01*
X69431344Y-62542712D01*
X69580666Y-62634814D01*
X69747203Y-62689999D01*
X69849991Y-62700500D01*
X70549901Y-62700499D01*
X70616940Y-62720183D01*
X70637582Y-62736818D01*
X71631284Y-63730520D01*
X71631286Y-63730521D01*
X71631290Y-63730524D01*
X71735350Y-63790602D01*
X71768216Y-63809577D01*
X71920943Y-63850501D01*
X71920945Y-63850501D01*
X72086654Y-63850501D01*
X72086670Y-63850500D01*
X80959903Y-63850500D01*
X81026942Y-63870185D01*
X81047584Y-63886819D01*
X83816443Y-66655678D01*
X83849928Y-66717001D01*
X83844944Y-66786693D01*
X83839250Y-66799648D01*
X83830125Y-66817557D01*
X83776597Y-66982301D01*
X83753570Y-67127690D01*
X83749500Y-67153389D01*
X83749500Y-67326611D01*
X83751448Y-67338910D01*
X83775474Y-67490609D01*
X83776598Y-67497701D01*
X83830127Y-67662445D01*
X83908768Y-67816788D01*
X84010586Y-67956928D01*
X84133072Y-68079414D01*
X84273212Y-68181232D01*
X84427555Y-68259873D01*
X84592299Y-68313402D01*
X84763389Y-68340500D01*
X84763390Y-68340500D01*
X85736610Y-68340500D01*
X85736611Y-68340500D01*
X85907701Y-68313402D01*
X86072445Y-68259873D01*
X86226788Y-68181232D01*
X86366928Y-68079414D01*
X86489414Y-67956928D01*
X86591232Y-67816788D01*
X86669873Y-67662445D01*
X86723402Y-67497701D01*
X86750500Y-67326611D01*
X86750500Y-67153389D01*
X86723402Y-66982299D01*
X86669873Y-66817555D01*
X86591232Y-66663212D01*
X86489414Y-66523072D01*
X86366928Y-66400586D01*
X86226788Y-66298768D01*
X86072445Y-66220127D01*
X85907701Y-66166598D01*
X85907699Y-66166597D01*
X85907698Y-66166597D01*
X85768912Y-66144616D01*
X85736611Y-66139500D01*
X85736610Y-66139500D01*
X85050097Y-66139500D01*
X85020656Y-66130855D01*
X84990670Y-66124332D01*
X84985654Y-66120577D01*
X84983058Y-66119815D01*
X84962416Y-66103181D01*
X84871416Y-66012181D01*
X84837931Y-65950858D01*
X84842915Y-65881166D01*
X84884787Y-65825233D01*
X84950251Y-65800816D01*
X84959097Y-65800500D01*
X85736610Y-65800500D01*
X85736611Y-65800500D01*
X85907701Y-65773402D01*
X86072445Y-65719873D01*
X86226788Y-65641232D01*
X86366928Y-65539414D01*
X86489414Y-65416928D01*
X86591232Y-65276788D01*
X86669873Y-65122445D01*
X86723402Y-64957701D01*
X86750500Y-64786611D01*
X86750500Y-64613389D01*
X86723402Y-64442299D01*
X86669873Y-64277555D01*
X86591232Y-64123212D01*
X86489414Y-63983072D01*
X86366928Y-63860586D01*
X86226788Y-63758768D01*
X86072445Y-63680127D01*
X85907701Y-63626598D01*
X85907699Y-63626597D01*
X85907698Y-63626597D01*
X85776271Y-63605781D01*
X85736611Y-63599500D01*
X84763389Y-63599500D01*
X84723728Y-63605781D01*
X84592302Y-63626597D01*
X84427552Y-63680128D01*
X84273211Y-63758768D01*
X84215590Y-63800633D01*
X84133072Y-63860586D01*
X84133070Y-63860588D01*
X84133069Y-63860588D01*
X84010588Y-63983069D01*
X84010588Y-63983070D01*
X84010586Y-63983072D01*
X83992186Y-64008398D01*
X83908768Y-64123211D01*
X83830128Y-64277552D01*
X83776597Y-64442302D01*
X83749713Y-64612041D01*
X83719784Y-64675176D01*
X83660472Y-64712107D01*
X83590610Y-64711109D01*
X83539559Y-64680324D01*
X81747590Y-62888355D01*
X81747588Y-62888352D01*
X81628717Y-62769481D01*
X81628716Y-62769480D01*
X81541904Y-62719360D01*
X81541904Y-62719359D01*
X81541900Y-62719358D01*
X81491785Y-62690423D01*
X81339057Y-62649499D01*
X81180943Y-62649499D01*
X81173347Y-62649499D01*
X81173331Y-62649500D01*
X73260523Y-62649500D01*
X73193484Y-62629815D01*
X73147729Y-62577011D01*
X73137785Y-62507853D01*
X73166810Y-62444297D01*
X73172842Y-62437819D01*
X73192315Y-62418345D01*
X73284356Y-62269124D01*
X73284358Y-62269119D01*
X73339505Y-62102697D01*
X73339506Y-62102690D01*
X73342500Y-62073389D01*
X83749500Y-62073389D01*
X83749500Y-62246611D01*
X83776598Y-62417701D01*
X83828361Y-62577011D01*
X83830128Y-62582447D01*
X83894623Y-62709026D01*
X83908768Y-62736788D01*
X84010586Y-62876928D01*
X84133072Y-62999414D01*
X84273212Y-63101232D01*
X84427555Y-63179873D01*
X84592299Y-63233402D01*
X84763389Y-63260500D01*
X84763390Y-63260500D01*
X85736610Y-63260500D01*
X85736611Y-63260500D01*
X85907701Y-63233402D01*
X86072445Y-63179873D01*
X86226788Y-63101232D01*
X86366928Y-62999414D01*
X86489414Y-62876928D01*
X86591232Y-62736788D01*
X86669873Y-62582445D01*
X86723402Y-62417701D01*
X86750500Y-62246611D01*
X86750500Y-62073389D01*
X86723402Y-61902299D01*
X86669873Y-61737555D01*
X86591232Y-61583212D01*
X86489414Y-61443072D01*
X86366928Y-61320586D01*
X86226788Y-61218768D01*
X86072445Y-61140127D01*
X85907701Y-61086598D01*
X85907699Y-61086597D01*
X85907698Y-61086597D01*
X85776271Y-61065781D01*
X85736611Y-61059500D01*
X84763389Y-61059500D01*
X84723728Y-61065781D01*
X84592302Y-61086597D01*
X84427552Y-61140128D01*
X84273211Y-61218768D01*
X84212362Y-61262978D01*
X84133072Y-61320586D01*
X84133070Y-61320588D01*
X84133069Y-61320588D01*
X84010588Y-61443069D01*
X84010588Y-61443070D01*
X84010586Y-61443072D01*
X83983527Y-61480315D01*
X83908768Y-61583211D01*
X83830128Y-61737552D01*
X83776597Y-61902302D01*
X83760683Y-62002780D01*
X83749500Y-62073389D01*
X73342500Y-62073389D01*
X73344286Y-62055913D01*
X73344286Y-62055912D01*
X73349999Y-61999988D01*
X73350000Y-61999973D01*
X73350000Y-61750000D01*
X72374000Y-61750000D01*
X72306961Y-61730315D01*
X72261206Y-61677511D01*
X72250000Y-61626000D01*
X72250000Y-61500000D01*
X72124000Y-61500000D01*
X72056961Y-61480315D01*
X72011206Y-61427511D01*
X72000000Y-61376000D01*
X72000000Y-60856166D01*
X72500000Y-60856166D01*
X72500000Y-61250000D01*
X73349999Y-61250000D01*
X73349999Y-61000028D01*
X73349998Y-61000013D01*
X73339505Y-60897302D01*
X73284358Y-60730880D01*
X73284356Y-60730875D01*
X73214866Y-60618214D01*
X73196426Y-60550821D01*
X73217349Y-60484158D01*
X73232725Y-60465434D01*
X73254817Y-60443342D01*
X73346856Y-60294124D01*
X73346858Y-60294119D01*
X73402005Y-60127697D01*
X73402006Y-60127690D01*
X73412499Y-60024986D01*
X73412500Y-60024973D01*
X73412500Y-59750000D01*
X72575000Y-59750000D01*
X72575000Y-60731000D01*
X72566089Y-60761346D01*
X72558868Y-60792160D01*
X72555924Y-60795963D01*
X72555315Y-60798039D01*
X72552289Y-60800660D01*
X72537267Y-60820073D01*
X72500000Y-60856166D01*
X72000000Y-60856166D01*
X72000000Y-60294000D01*
X72019685Y-60226961D01*
X72040921Y-60208559D01*
X72038681Y-60206319D01*
X72075000Y-60170000D01*
X72075000Y-59533389D01*
X83749500Y-59533389D01*
X83749500Y-59706611D01*
X83753310Y-59730666D01*
X83766078Y-59811284D01*
X83776598Y-59877701D01*
X83830127Y-60042445D01*
X83908768Y-60196788D01*
X84010586Y-60336928D01*
X84133072Y-60459414D01*
X84273212Y-60561232D01*
X84427555Y-60639873D01*
X84592299Y-60693402D01*
X84763389Y-60720500D01*
X84763390Y-60720500D01*
X85736610Y-60720500D01*
X85736611Y-60720500D01*
X85907701Y-60693402D01*
X86072445Y-60639873D01*
X86226788Y-60561232D01*
X86366928Y-60459414D01*
X86489414Y-60336928D01*
X86591232Y-60196788D01*
X86669873Y-60042445D01*
X86723402Y-59877701D01*
X86750500Y-59706611D01*
X86750500Y-59533389D01*
X86723402Y-59362299D01*
X86669873Y-59197555D01*
X86591232Y-59043212D01*
X86489414Y-58903072D01*
X86366928Y-58780586D01*
X86226788Y-58678768D01*
X86072445Y-58600127D01*
X85907701Y-58546598D01*
X85907699Y-58546597D01*
X85907698Y-58546597D01*
X85776271Y-58525781D01*
X85736611Y-58519500D01*
X84763389Y-58519500D01*
X84723728Y-58525781D01*
X84592302Y-58546597D01*
X84427552Y-58600128D01*
X84273211Y-58678768D01*
X84193256Y-58736859D01*
X84133072Y-58780586D01*
X84133070Y-58780588D01*
X84133069Y-58780588D01*
X84010588Y-58903069D01*
X84010588Y-58903070D01*
X84010586Y-58903072D01*
X83998287Y-58920000D01*
X83908768Y-59043211D01*
X83830128Y-59197552D01*
X83776597Y-59362302D01*
X83761553Y-59457288D01*
X83749500Y-59533389D01*
X72075000Y-59533389D01*
X72075000Y-59250000D01*
X72575000Y-59250000D01*
X73412499Y-59250000D01*
X73412499Y-58975028D01*
X73412498Y-58975013D01*
X73402005Y-58872302D01*
X73346858Y-58705880D01*
X73346856Y-58705875D01*
X73254815Y-58556654D01*
X73130845Y-58432684D01*
X72981624Y-58340643D01*
X72981619Y-58340641D01*
X72815197Y-58285494D01*
X72815190Y-58285493D01*
X72712486Y-58275000D01*
X72575000Y-58275000D01*
X72575000Y-59250000D01*
X72075000Y-59250000D01*
X72075000Y-58275000D01*
X71937527Y-58275000D01*
X71937512Y-58275001D01*
X71834802Y-58285494D01*
X71668380Y-58340641D01*
X71668375Y-58340643D01*
X71519154Y-58432684D01*
X71395183Y-58556655D01*
X71395179Y-58556660D01*
X71393326Y-58559665D01*
X71391518Y-58561290D01*
X71390702Y-58562323D01*
X71390525Y-58562183D01*
X71341374Y-58606385D01*
X71272411Y-58617601D01*
X71208331Y-58589752D01*
X71182253Y-58559653D01*
X71182237Y-58559628D01*
X71180212Y-58556344D01*
X71056156Y-58432288D01*
X70907572Y-58340641D01*
X70906836Y-58340187D01*
X70906831Y-58340185D01*
X70905362Y-58339698D01*
X70740297Y-58285001D01*
X70740295Y-58285000D01*
X70637510Y-58274500D01*
X69862498Y-58274500D01*
X69862480Y-58274501D01*
X69759703Y-58285000D01*
X69759700Y-58285001D01*
X69593168Y-58340185D01*
X69593163Y-58340187D01*
X69443842Y-58432289D01*
X69319789Y-58556342D01*
X69227687Y-58705663D01*
X69227682Y-58705674D01*
X69184135Y-58837088D01*
X69144362Y-58894533D01*
X69135321Y-58901185D01*
X69053457Y-58955885D01*
X69053453Y-58955888D01*
X68746160Y-59263181D01*
X68684837Y-59296666D01*
X68658479Y-59299500D01*
X68099998Y-59299500D01*
X68099980Y-59299501D01*
X67997203Y-59310000D01*
X67997200Y-59310001D01*
X67830668Y-59365185D01*
X67830663Y-59365187D01*
X67681342Y-59457289D01*
X67587681Y-59550951D01*
X67526358Y-59584436D01*
X67456666Y-59579452D01*
X67412319Y-59550951D01*
X67318657Y-59457289D01*
X67318656Y-59457288D01*
X67169334Y-59365186D01*
X67002797Y-59310001D01*
X67002795Y-59310000D01*
X66900010Y-59299500D01*
X66099998Y-59299500D01*
X66099980Y-59299501D01*
X65997203Y-59310000D01*
X65997200Y-59310001D01*
X65830668Y-59365185D01*
X65830663Y-59365187D01*
X65681342Y-59457289D01*
X65557289Y-59581342D01*
X65465187Y-59730663D01*
X65465186Y-59730666D01*
X65410001Y-59897203D01*
X65410001Y-59897204D01*
X65410000Y-59897204D01*
X65399500Y-59999983D01*
X65399500Y-60543480D01*
X65379815Y-60610519D01*
X65363181Y-60631161D01*
X62851183Y-63143158D01*
X62789860Y-63176643D01*
X62725184Y-63173408D01*
X62649787Y-63148910D01*
X62483903Y-63122636D01*
X62400962Y-63109500D01*
X62149038Y-63109500D01*
X62024626Y-63129205D01*
X61900214Y-63148910D01*
X61660616Y-63226760D01*
X61436151Y-63341132D01*
X61232350Y-63489201D01*
X61232345Y-63489205D01*
X61054205Y-63667345D01*
X61054201Y-63667350D01*
X60924818Y-63845432D01*
X60869488Y-63888098D01*
X60799875Y-63894077D01*
X60738080Y-63861472D01*
X60703723Y-63800633D01*
X60700500Y-63772547D01*
X60700500Y-62074102D01*
X60720185Y-62007063D01*
X60772989Y-61961308D01*
X60842147Y-61951364D01*
X60905703Y-61980389D01*
X60912181Y-61986421D01*
X60913438Y-61987678D01*
X60913447Y-61987685D01*
X61054803Y-62071282D01*
X61054806Y-62071283D01*
X61212504Y-62117099D01*
X61212510Y-62117100D01*
X61249350Y-62119999D01*
X61249366Y-62120000D01*
X63300634Y-62120000D01*
X63300649Y-62119999D01*
X63337489Y-62117100D01*
X63337495Y-62117099D01*
X63495193Y-62071283D01*
X63495196Y-62071282D01*
X63636552Y-61987685D01*
X63636561Y-61987678D01*
X63752678Y-61871561D01*
X63752685Y-61871552D01*
X63836282Y-61730196D01*
X63836283Y-61730193D01*
X63882099Y-61572495D01*
X63882100Y-61572489D01*
X63884999Y-61535649D01*
X63885000Y-61535634D01*
X63885000Y-59504365D01*
X63884999Y-59504350D01*
X63882100Y-59467510D01*
X63882099Y-59467504D01*
X63836837Y-59311713D01*
X63836836Y-59311713D01*
X62839611Y-60308938D01*
X62834111Y-60288409D01*
X62755119Y-60151592D01*
X62643408Y-60039881D01*
X62506591Y-59960889D01*
X62486060Y-59955387D01*
X63477788Y-58963659D01*
X63337490Y-58922900D01*
X63337484Y-58922899D01*
X63300649Y-58920000D01*
X61249350Y-58920000D01*
X61212510Y-58922899D01*
X61212504Y-58922900D01*
X61054806Y-58968716D01*
X61054803Y-58968717D01*
X60913447Y-59052314D01*
X60913438Y-59052321D01*
X60912181Y-59053579D01*
X60910952Y-59054249D01*
X60907278Y-59057100D01*
X60906818Y-59056507D01*
X60892744Y-59064191D01*
X60876011Y-59078692D01*
X60862679Y-59080608D01*
X60850858Y-59087064D01*
X60828771Y-59085484D01*
X60806853Y-59088636D01*
X60794601Y-59083040D01*
X60781166Y-59082080D01*
X60763439Y-59068809D01*
X60743297Y-59059611D01*
X60736014Y-59048279D01*
X60725233Y-59040208D01*
X60717495Y-59019462D01*
X60705523Y-59000833D01*
X60702371Y-58978914D01*
X60700816Y-58974744D01*
X60700500Y-58965898D01*
X60700500Y-58841519D01*
X60720185Y-58774480D01*
X60736819Y-58753838D01*
X62497268Y-56993389D01*
X83749500Y-56993389D01*
X83749500Y-57166611D01*
X83776598Y-57337701D01*
X83830127Y-57502445D01*
X83908768Y-57656788D01*
X84010586Y-57796928D01*
X84133072Y-57919414D01*
X84273212Y-58021232D01*
X84427555Y-58099873D01*
X84592299Y-58153402D01*
X84763389Y-58180500D01*
X84763390Y-58180500D01*
X85736610Y-58180500D01*
X85736611Y-58180500D01*
X85907701Y-58153402D01*
X86072445Y-58099873D01*
X86226788Y-58021232D01*
X86366928Y-57919414D01*
X86489414Y-57796928D01*
X86591232Y-57656788D01*
X86669873Y-57502445D01*
X86723402Y-57337701D01*
X86750500Y-57166611D01*
X86750500Y-56993389D01*
X86723402Y-56822299D01*
X86669873Y-56657555D01*
X86591232Y-56503212D01*
X86489414Y-56363072D01*
X86366928Y-56240586D01*
X86226788Y-56138768D01*
X86072445Y-56060127D01*
X85907701Y-56006598D01*
X85907699Y-56006597D01*
X85907698Y-56006597D01*
X85776271Y-55985781D01*
X85736611Y-55979500D01*
X84763389Y-55979500D01*
X84723728Y-55985781D01*
X84592302Y-56006597D01*
X84427552Y-56060128D01*
X84273211Y-56138768D01*
X84193256Y-56196859D01*
X84133072Y-56240586D01*
X84133070Y-56240588D01*
X84133069Y-56240588D01*
X84010588Y-56363069D01*
X84010588Y-56363070D01*
X84010586Y-56363072D01*
X83977773Y-56408235D01*
X83908768Y-56503211D01*
X83830128Y-56657552D01*
X83776597Y-56822302D01*
X83753577Y-56967646D01*
X83749500Y-56993389D01*
X62497268Y-56993389D01*
X64003838Y-55486819D01*
X64065161Y-55453334D01*
X64091519Y-55450500D01*
X65357051Y-55450500D01*
X65424090Y-55470185D01*
X65469845Y-55522989D01*
X65474756Y-55535493D01*
X65477614Y-55544119D01*
X65477686Y-55544334D01*
X65569788Y-55693656D01*
X65693844Y-55817712D01*
X65843166Y-55909814D01*
X66009703Y-55964999D01*
X66112491Y-55975500D01*
X66887508Y-55975499D01*
X66887516Y-55975498D01*
X66887519Y-55975498D01*
X66943802Y-55969748D01*
X66990297Y-55964999D01*
X67156834Y-55909814D01*
X67306156Y-55817712D01*
X67430212Y-55693656D01*
X67432252Y-55690347D01*
X67434245Y-55688555D01*
X67434693Y-55687989D01*
X67434789Y-55688065D01*
X67484194Y-55643623D01*
X67553156Y-55632395D01*
X67617240Y-55660234D01*
X67643329Y-55690339D01*
X67645181Y-55693341D01*
X67645183Y-55693344D01*
X67769154Y-55817315D01*
X67918375Y-55909356D01*
X67918380Y-55909358D01*
X68084802Y-55964505D01*
X68084809Y-55964506D01*
X68187519Y-55974999D01*
X68324999Y-55974999D01*
X68825000Y-55974999D01*
X68962472Y-55974999D01*
X68962486Y-55974998D01*
X69065197Y-55964505D01*
X69231619Y-55909358D01*
X69231624Y-55909356D01*
X69380845Y-55817315D01*
X69504815Y-55693345D01*
X69596856Y-55544124D01*
X69596858Y-55544119D01*
X69652005Y-55377697D01*
X69652006Y-55377690D01*
X69662499Y-55274986D01*
X69662500Y-55274973D01*
X69662500Y-55000000D01*
X68825000Y-55000000D01*
X68825000Y-55974999D01*
X68324999Y-55974999D01*
X68325000Y-55974998D01*
X68325000Y-54500000D01*
X68825000Y-54500000D01*
X69662499Y-54500000D01*
X69662499Y-54453389D01*
X83749500Y-54453389D01*
X83749500Y-54626611D01*
X83776598Y-54797701D01*
X83830127Y-54962445D01*
X83908768Y-55116788D01*
X84010586Y-55256928D01*
X84133072Y-55379414D01*
X84273212Y-55481232D01*
X84427555Y-55559873D01*
X84592299Y-55613402D01*
X84763389Y-55640500D01*
X84763390Y-55640500D01*
X85736610Y-55640500D01*
X85736611Y-55640500D01*
X85907701Y-55613402D01*
X86072445Y-55559873D01*
X86226788Y-55481232D01*
X86366928Y-55379414D01*
X86489414Y-55256928D01*
X86591232Y-55116788D01*
X86669873Y-54962445D01*
X86723402Y-54797701D01*
X86750500Y-54626611D01*
X86750500Y-54453389D01*
X86723402Y-54282299D01*
X86669873Y-54117555D01*
X86591232Y-53963212D01*
X86489414Y-53823072D01*
X86366928Y-53700586D01*
X86226788Y-53598768D01*
X86072445Y-53520127D01*
X85907701Y-53466598D01*
X85907699Y-53466597D01*
X85907698Y-53466597D01*
X85776271Y-53445781D01*
X85736611Y-53439500D01*
X84763389Y-53439500D01*
X84723728Y-53445781D01*
X84592302Y-53466597D01*
X84427552Y-53520128D01*
X84273211Y-53598768D01*
X84236735Y-53625270D01*
X84133072Y-53700586D01*
X84133070Y-53700588D01*
X84133069Y-53700588D01*
X84010588Y-53823069D01*
X84010588Y-53823070D01*
X84010586Y-53823072D01*
X83986383Y-53856385D01*
X83908768Y-53963211D01*
X83830128Y-54117552D01*
X83776597Y-54282302D01*
X83749500Y-54453389D01*
X69662499Y-54453389D01*
X69662499Y-54225028D01*
X69662498Y-54225013D01*
X69652005Y-54122302D01*
X69596858Y-53955880D01*
X69596856Y-53955875D01*
X69504815Y-53806654D01*
X69380845Y-53682684D01*
X69231624Y-53590643D01*
X69231619Y-53590641D01*
X69065197Y-53535494D01*
X69065190Y-53535493D01*
X68962486Y-53525000D01*
X68825000Y-53525000D01*
X68825000Y-54500000D01*
X68325000Y-54500000D01*
X68325000Y-53525000D01*
X68187527Y-53525000D01*
X68187512Y-53525001D01*
X68084802Y-53535494D01*
X67918380Y-53590641D01*
X67918375Y-53590643D01*
X67769154Y-53682684D01*
X67645183Y-53806655D01*
X67645179Y-53806660D01*
X67643326Y-53809665D01*
X67641518Y-53811290D01*
X67640702Y-53812323D01*
X67640525Y-53812183D01*
X67591374Y-53856385D01*
X67522411Y-53867601D01*
X67458331Y-53839752D01*
X67447881Y-53829951D01*
X67439014Y-53820615D01*
X67430212Y-53806344D01*
X67335683Y-53711815D01*
X67334588Y-53710662D01*
X67319337Y-53680936D01*
X67303334Y-53651628D01*
X67303077Y-53649242D01*
X67302695Y-53648497D01*
X67302838Y-53647022D01*
X67300500Y-53625270D01*
X67300500Y-53326999D01*
X67320185Y-53259960D01*
X67372989Y-53214205D01*
X67424500Y-53202999D01*
X67737502Y-53202999D01*
X67737508Y-53202999D01*
X67840297Y-53192499D01*
X68006834Y-53137314D01*
X68156156Y-53045212D01*
X68280212Y-52921156D01*
X68372314Y-52771834D01*
X68427499Y-52605297D01*
X68435959Y-52522488D01*
X69437501Y-52522488D01*
X69447994Y-52625199D01*
X69503140Y-52791620D01*
X69503142Y-52791625D01*
X69595183Y-52940846D01*
X69719153Y-53064816D01*
X69868374Y-53156857D01*
X69868379Y-53156859D01*
X70034801Y-53212005D01*
X70137517Y-53222499D01*
X72887499Y-53222499D01*
X73387500Y-53222499D01*
X76137474Y-53222499D01*
X76137488Y-53222498D01*
X76240199Y-53212005D01*
X76406620Y-53156859D01*
X76406625Y-53156857D01*
X76555846Y-53064816D01*
X76679816Y-52940846D01*
X76771857Y-52791625D01*
X76771859Y-52791620D01*
X76827005Y-52625198D01*
X76837499Y-52522488D01*
X76837500Y-52522475D01*
X76837500Y-51352135D01*
X83749500Y-51352135D01*
X83749500Y-52647870D01*
X83749501Y-52647876D01*
X83755908Y-52707483D01*
X83806202Y-52842328D01*
X83806206Y-52842335D01*
X83892452Y-52957544D01*
X83892455Y-52957547D01*
X84007664Y-53043793D01*
X84007671Y-53043797D01*
X84142517Y-53094091D01*
X84142516Y-53094091D01*
X84149444Y-53094835D01*
X84202127Y-53100500D01*
X86297872Y-53100499D01*
X86357483Y-53094091D01*
X86492331Y-53043796D01*
X86607546Y-52957546D01*
X86693796Y-52842331D01*
X86744091Y-52707483D01*
X86750500Y-52647873D01*
X86750499Y-51352128D01*
X86744091Y-51292517D01*
X86740856Y-51283844D01*
X86693797Y-51157671D01*
X86693793Y-51157664D01*
X86607547Y-51042455D01*
X86607544Y-51042452D01*
X86492335Y-50956206D01*
X86492328Y-50956202D01*
X86357482Y-50905908D01*
X86357483Y-50905908D01*
X86297883Y-50899501D01*
X86297881Y-50899500D01*
X86297873Y-50899500D01*
X86297865Y-50899500D01*
X86074500Y-50899500D01*
X86007461Y-50879815D01*
X85961706Y-50827011D01*
X85950500Y-50775500D01*
X85950500Y-45841518D01*
X85970185Y-45774479D01*
X85986819Y-45753837D01*
X89003837Y-42736819D01*
X89065160Y-42703334D01*
X89091518Y-42700500D01*
X110658481Y-42700500D01*
X110725520Y-42720185D01*
X110746162Y-42736819D01*
X113758483Y-45749140D01*
X113791968Y-45810463D01*
X113786984Y-45880155D01*
X113781288Y-45893114D01*
X113755771Y-45943196D01*
X113755770Y-45943198D01*
X113755769Y-45943201D01*
X113740193Y-45991136D01*
X113685215Y-46160339D01*
X113649500Y-46385837D01*
X113649500Y-46614162D01*
X113685215Y-46839660D01*
X113755770Y-47056803D01*
X113828988Y-47200500D01*
X113859421Y-47260228D01*
X113993621Y-47444937D01*
X114155063Y-47606379D01*
X114339772Y-47740579D01*
X114435884Y-47789550D01*
X114543196Y-47844229D01*
X114543198Y-47844229D01*
X114543201Y-47844231D01*
X114659592Y-47882049D01*
X114760339Y-47914784D01*
X114985838Y-47950500D01*
X114985843Y-47950500D01*
X116158481Y-47950500D01*
X116225520Y-47970185D01*
X116246162Y-47986819D01*
X119513181Y-51253838D01*
X119546666Y-51315161D01*
X119549500Y-51341519D01*
X119549500Y-68408481D01*
X119529815Y-68475520D01*
X119513181Y-68496162D01*
X116881369Y-71127973D01*
X116820046Y-71161458D01*
X116750354Y-71156474D01*
X116720807Y-71140613D01*
X116692870Y-71120315D01*
X116650207Y-71064989D01*
X116644228Y-70995376D01*
X116676833Y-70933580D01*
X116692873Y-70919682D01*
X116727510Y-70894517D01*
X116894517Y-70727510D01*
X117033343Y-70536433D01*
X117140568Y-70325992D01*
X117213553Y-70101368D01*
X117223637Y-70037701D01*
X117250500Y-69868097D01*
X117250500Y-69631902D01*
X117213553Y-69398631D01*
X117179689Y-69294412D01*
X117140568Y-69174008D01*
X117140566Y-69174005D01*
X117140566Y-69174003D01*
X117051899Y-68999986D01*
X117033343Y-68963567D01*
X116894517Y-68772490D01*
X116727510Y-68605483D01*
X116692872Y-68580317D01*
X116650207Y-68524989D01*
X116644228Y-68455375D01*
X116676833Y-68393580D01*
X116692873Y-68379682D01*
X116727510Y-68354517D01*
X116894517Y-68187510D01*
X117033343Y-67996433D01*
X117140568Y-67785992D01*
X117213553Y-67561368D01*
X117223637Y-67497701D01*
X117250500Y-67328097D01*
X117250500Y-67091902D01*
X117213553Y-66858631D01*
X117157018Y-66684637D01*
X117140568Y-66634008D01*
X117140566Y-66634005D01*
X117140566Y-66634003D01*
X117050525Y-66457289D01*
X117033343Y-66423567D01*
X116894517Y-66232490D01*
X116727510Y-66065483D01*
X116576666Y-65955888D01*
X116536431Y-65926655D01*
X116418204Y-65866415D01*
X116367409Y-65818441D01*
X116350500Y-65755931D01*
X116350500Y-59560945D01*
X116350500Y-59560943D01*
X116309577Y-59408216D01*
X116309577Y-59408215D01*
X116252873Y-59310001D01*
X116230520Y-59271284D01*
X116118716Y-59159480D01*
X116118715Y-59159479D01*
X116114385Y-59155149D01*
X116114374Y-59155139D01*
X112083556Y-55124321D01*
X112050071Y-55062998D01*
X112055055Y-54993306D01*
X112060749Y-54980350D01*
X112069873Y-54962445D01*
X112123402Y-54797701D01*
X112150500Y-54626611D01*
X112150500Y-54453389D01*
X112123402Y-54282299D01*
X112069873Y-54117555D01*
X111991232Y-53963212D01*
X111889414Y-53823072D01*
X111766928Y-53700586D01*
X111626788Y-53598768D01*
X111472445Y-53520127D01*
X111307701Y-53466598D01*
X111307699Y-53466597D01*
X111307698Y-53466597D01*
X111176271Y-53445781D01*
X111136611Y-53439500D01*
X110163389Y-53439500D01*
X110123728Y-53445781D01*
X109992302Y-53466597D01*
X109827552Y-53520128D01*
X109673211Y-53598768D01*
X109636735Y-53625270D01*
X109533072Y-53700586D01*
X109533070Y-53700588D01*
X109533069Y-53700588D01*
X109410587Y-53823070D01*
X109324818Y-53941121D01*
X109269487Y-53983786D01*
X109199874Y-53989765D01*
X109138079Y-53957159D01*
X109103722Y-53896320D01*
X109100500Y-53868235D01*
X109100500Y-52670913D01*
X109120185Y-52603874D01*
X109172989Y-52558119D01*
X109242147Y-52548175D01*
X109305703Y-52577200D01*
X109324819Y-52598028D01*
X109410967Y-52716602D01*
X109533397Y-52839032D01*
X109673475Y-52940804D01*
X109827742Y-53019408D01*
X109992415Y-53072914D01*
X110163429Y-53100000D01*
X110400000Y-53100000D01*
X110400000Y-52315686D01*
X110404394Y-52320080D01*
X110495606Y-52372741D01*
X110597339Y-52400000D01*
X110702661Y-52400000D01*
X110804394Y-52372741D01*
X110895606Y-52320080D01*
X110900000Y-52315686D01*
X110900000Y-53100000D01*
X111136571Y-53100000D01*
X111307584Y-53072914D01*
X111472257Y-53019408D01*
X111626524Y-52940804D01*
X111766602Y-52839032D01*
X111889032Y-52716602D01*
X111990804Y-52576524D01*
X112069408Y-52422255D01*
X112122914Y-52257584D01*
X112124115Y-52250000D01*
X110965686Y-52250000D01*
X110970080Y-52245606D01*
X111022741Y-52154394D01*
X111050000Y-52052661D01*
X111050000Y-51947339D01*
X111022741Y-51845606D01*
X110970080Y-51754394D01*
X110965686Y-51750000D01*
X112124115Y-51750000D01*
X112124115Y-51749999D01*
X112122914Y-51742415D01*
X112069408Y-51577744D01*
X111990804Y-51423475D01*
X111889032Y-51283397D01*
X111766602Y-51160967D01*
X111648028Y-51074819D01*
X111605362Y-51019489D01*
X111599383Y-50949875D01*
X111631988Y-50888080D01*
X111692827Y-50853723D01*
X111720913Y-50850500D01*
X113615218Y-50850500D01*
X113682257Y-50870185D01*
X113728012Y-50922989D01*
X113737956Y-50992147D01*
X113733149Y-51012815D01*
X113723520Y-51042452D01*
X113685215Y-51160339D01*
X113649500Y-51385837D01*
X113649500Y-51614162D01*
X113685215Y-51839660D01*
X113755770Y-52056803D01*
X113821343Y-52185496D01*
X113859421Y-52260228D01*
X113993621Y-52444937D01*
X114155063Y-52606379D01*
X114339772Y-52740579D01*
X114435884Y-52789550D01*
X114543196Y-52844229D01*
X114543198Y-52844229D01*
X114543201Y-52844231D01*
X114659592Y-52882049D01*
X114760339Y-52914784D01*
X114985838Y-52950500D01*
X114985843Y-52950500D01*
X116514162Y-52950500D01*
X116739660Y-52914784D01*
X116956799Y-52844231D01*
X117160228Y-52740579D01*
X117344937Y-52606379D01*
X117506379Y-52444937D01*
X117640579Y-52260228D01*
X117744231Y-52056799D01*
X117814784Y-51839660D01*
X117830186Y-51742415D01*
X117850500Y-51614162D01*
X117850500Y-51385837D01*
X117814784Y-51160339D01*
X117776480Y-51042452D01*
X117744231Y-50943201D01*
X117744229Y-50943198D01*
X117744229Y-50943196D01*
X117640578Y-50739771D01*
X117506379Y-50555063D01*
X117344937Y-50393621D01*
X117160228Y-50259421D01*
X116956803Y-50155770D01*
X116739660Y-50085215D01*
X116514162Y-50049500D01*
X116514157Y-50049500D01*
X115200097Y-50049500D01*
X115170656Y-50040855D01*
X115140670Y-50034332D01*
X115135654Y-50030577D01*
X115133058Y-50029815D01*
X115112416Y-50013181D01*
X114987590Y-49888355D01*
X114987588Y-49888352D01*
X114868717Y-49769481D01*
X114868716Y-49769480D01*
X114781904Y-49719360D01*
X114781904Y-49719359D01*
X114781900Y-49719358D01*
X114731785Y-49690423D01*
X114579057Y-49649499D01*
X114420943Y-49649499D01*
X114413347Y-49649499D01*
X114413331Y-49649500D01*
X109836669Y-49649500D01*
X109836653Y-49649499D01*
X109829057Y-49649499D01*
X109670943Y-49649499D01*
X109563587Y-49678265D01*
X109518210Y-49690424D01*
X109518209Y-49690425D01*
X109468096Y-49719359D01*
X109468095Y-49719360D01*
X109424689Y-49744420D01*
X109381285Y-49769479D01*
X109381282Y-49769481D01*
X108019481Y-51131282D01*
X108019479Y-51131285D01*
X107969361Y-51218094D01*
X107969359Y-51218096D01*
X107940425Y-51268209D01*
X107940424Y-51268210D01*
X107933911Y-51292516D01*
X107899499Y-51420943D01*
X107899499Y-51420945D01*
X107899499Y-51589046D01*
X107899500Y-51589059D01*
X107899500Y-67543330D01*
X107899499Y-67543348D01*
X107899499Y-67709054D01*
X107899498Y-67709054D01*
X107911656Y-67754427D01*
X107939233Y-67857345D01*
X107940424Y-67861787D01*
X107950491Y-67879223D01*
X107950492Y-67879225D01*
X108019477Y-67998712D01*
X108019481Y-67998717D01*
X108138349Y-68117585D01*
X108138355Y-68117590D01*
X109216443Y-69195678D01*
X109249928Y-69257001D01*
X109244944Y-69326693D01*
X109239250Y-69339648D01*
X109230125Y-69357557D01*
X109176597Y-69522301D01*
X109158777Y-69634814D01*
X109149500Y-69693389D01*
X109149500Y-69866611D01*
X109176598Y-70037701D01*
X109230127Y-70202445D01*
X109308768Y-70356788D01*
X109410586Y-70496928D01*
X109533072Y-70619414D01*
X109673212Y-70721232D01*
X109827555Y-70799873D01*
X109992299Y-70853402D01*
X110163389Y-70880500D01*
X110163390Y-70880500D01*
X111136610Y-70880500D01*
X111136611Y-70880500D01*
X111307701Y-70853402D01*
X111472445Y-70799873D01*
X111626788Y-70721232D01*
X111766928Y-70619414D01*
X111889414Y-70496928D01*
X111991232Y-70356788D01*
X112069873Y-70202445D01*
X112123402Y-70037701D01*
X112150500Y-69866611D01*
X112150500Y-69693389D01*
X112123402Y-69522299D01*
X112069873Y-69357555D01*
X111991232Y-69203212D01*
X111889414Y-69063072D01*
X111766928Y-68940586D01*
X111626788Y-68838768D01*
X111472445Y-68760127D01*
X111307701Y-68706598D01*
X111307699Y-68706597D01*
X111307698Y-68706597D01*
X111176271Y-68685781D01*
X111136611Y-68679500D01*
X111136610Y-68679500D01*
X110450097Y-68679500D01*
X110420656Y-68670855D01*
X110390670Y-68664332D01*
X110385654Y-68660577D01*
X110383058Y-68659815D01*
X110362416Y-68643181D01*
X110270916Y-68551681D01*
X110237431Y-68490358D01*
X110242415Y-68420666D01*
X110284287Y-68364733D01*
X110349751Y-68340316D01*
X110358597Y-68340000D01*
X110400000Y-68340000D01*
X110400000Y-67555686D01*
X110404394Y-67560080D01*
X110495606Y-67612741D01*
X110597339Y-67640000D01*
X110702661Y-67640000D01*
X110804394Y-67612741D01*
X110895606Y-67560080D01*
X110900000Y-67555686D01*
X110900000Y-68340000D01*
X111136571Y-68340000D01*
X111307584Y-68312914D01*
X111472257Y-68259408D01*
X111626524Y-68180804D01*
X111766602Y-68079032D01*
X111889032Y-67956602D01*
X111990804Y-67816524D01*
X112069408Y-67662255D01*
X112122914Y-67497584D01*
X112124115Y-67490000D01*
X110965686Y-67490000D01*
X110970080Y-67485606D01*
X111022741Y-67394394D01*
X111050000Y-67292661D01*
X111050000Y-67187339D01*
X111022741Y-67085606D01*
X110970080Y-66994394D01*
X110965686Y-66990000D01*
X112039403Y-66990000D01*
X112106442Y-67009685D01*
X112127084Y-67026319D01*
X112363181Y-67262416D01*
X112396666Y-67323739D01*
X112399500Y-67350097D01*
X112399500Y-87663330D01*
X112399499Y-87663348D01*
X112399499Y-87829054D01*
X112399498Y-87829054D01*
X112430981Y-87946546D01*
X112440423Y-87981785D01*
X112450651Y-87999500D01*
X112519477Y-88118712D01*
X112519481Y-88118717D01*
X112638349Y-88237585D01*
X112638355Y-88237590D01*
X113902829Y-89502064D01*
X113936314Y-89563387D01*
X113931330Y-89633079D01*
X113915467Y-89662629D01*
X113859422Y-89739769D01*
X113755770Y-89943196D01*
X113685215Y-90160339D01*
X113649500Y-90385837D01*
X113649500Y-90614162D01*
X113685215Y-90839660D01*
X113755770Y-91056803D01*
X113828988Y-91200500D01*
X113859421Y-91260228D01*
X113993621Y-91444937D01*
X114155063Y-91606379D01*
X114339772Y-91740579D01*
X114435884Y-91789550D01*
X114543196Y-91844229D01*
X114543198Y-91844229D01*
X114543201Y-91844231D01*
X114659592Y-91882049D01*
X114760339Y-91914784D01*
X114985838Y-91950500D01*
X114985843Y-91950500D01*
X116514162Y-91950500D01*
X116739660Y-91914784D01*
X116956799Y-91844231D01*
X117160228Y-91740579D01*
X117344937Y-91606379D01*
X117506379Y-91444937D01*
X117640579Y-91260228D01*
X117744231Y-91056799D01*
X117814784Y-90839660D01*
X117825538Y-90771764D01*
X117850500Y-90614162D01*
X117850500Y-90385837D01*
X117814784Y-90160339D01*
X117774391Y-90036023D01*
X117744231Y-89943201D01*
X117744229Y-89943198D01*
X117744229Y-89943196D01*
X117640578Y-89739771D01*
X117640577Y-89739769D01*
X117506379Y-89555063D01*
X117344937Y-89393621D01*
X117160228Y-89259421D01*
X116956803Y-89155770D01*
X116739660Y-89085215D01*
X116514162Y-89049500D01*
X116514157Y-89049500D01*
X115200097Y-89049500D01*
X115133058Y-89029815D01*
X115112416Y-89013181D01*
X113636819Y-87537584D01*
X113603334Y-87476261D01*
X113600500Y-87449903D01*
X113600500Y-68749097D01*
X113620185Y-68682058D01*
X113672989Y-68636303D01*
X113742147Y-68626359D01*
X113805703Y-68655384D01*
X113812181Y-68661416D01*
X114297200Y-69146435D01*
X114330685Y-69207758D01*
X114327450Y-69272433D01*
X114286447Y-69398628D01*
X114249500Y-69631902D01*
X114249500Y-69868097D01*
X114286446Y-70101368D01*
X114359433Y-70325996D01*
X114446528Y-70496928D01*
X114466657Y-70536433D01*
X114605483Y-70727510D01*
X114772490Y-70894517D01*
X114807127Y-70919683D01*
X114849792Y-70975013D01*
X114855771Y-71044626D01*
X114823165Y-71106421D01*
X114807130Y-71120315D01*
X114789365Y-71133222D01*
X114772488Y-71145484D01*
X114605485Y-71312487D01*
X114605485Y-71312488D01*
X114605483Y-71312490D01*
X114557329Y-71378768D01*
X114466657Y-71503566D01*
X114359433Y-71714003D01*
X114286446Y-71938631D01*
X114249500Y-72171902D01*
X114249500Y-72408097D01*
X114286446Y-72641368D01*
X114359433Y-72865996D01*
X114439718Y-73023563D01*
X114466657Y-73076433D01*
X114605483Y-73267510D01*
X114772490Y-73434517D01*
X114831716Y-73477547D01*
X114874381Y-73532875D01*
X114882448Y-73587593D01*
X114880893Y-73607340D01*
X115620591Y-74347037D01*
X115557007Y-74364075D01*
X115442993Y-74429901D01*
X115349901Y-74522993D01*
X115284075Y-74637007D01*
X115267037Y-74700591D01*
X114527340Y-73960894D01*
X114467084Y-74043830D01*
X114359897Y-74254197D01*
X114286934Y-74478752D01*
X114250000Y-74711947D01*
X114250000Y-74948052D01*
X114286934Y-75181247D01*
X114359897Y-75405802D01*
X114467087Y-75616174D01*
X114527338Y-75699104D01*
X114527340Y-75699105D01*
X115267037Y-74959408D01*
X115284075Y-75022993D01*
X115349901Y-75137007D01*
X115442993Y-75230099D01*
X115557007Y-75295925D01*
X115620590Y-75312962D01*
X114880893Y-76052658D01*
X114963828Y-76112914D01*
X115174197Y-76220102D01*
X115398752Y-76293065D01*
X115398751Y-76293065D01*
X115631948Y-76330000D01*
X115868052Y-76330000D01*
X116101247Y-76293065D01*
X116325802Y-76220102D01*
X116536163Y-76112918D01*
X116536169Y-76112914D01*
X116619104Y-76052658D01*
X116619105Y-76052658D01*
X115879408Y-75312962D01*
X115942993Y-75295925D01*
X116057007Y-75230099D01*
X116150099Y-75137007D01*
X116215925Y-75022993D01*
X116232962Y-74959408D01*
X116972658Y-75699105D01*
X116972658Y-75699104D01*
X117032914Y-75616169D01*
X117032918Y-75616163D01*
X117140102Y-75405802D01*
X117213065Y-75181247D01*
X117250000Y-74948052D01*
X117250000Y-74711947D01*
X117213065Y-74478752D01*
X117140102Y-74254197D01*
X117107591Y-74190390D01*
X117094695Y-74121721D01*
X117120971Y-74056981D01*
X117178077Y-74016723D01*
X117247883Y-74013731D01*
X117305757Y-74046414D01*
X119513181Y-76253837D01*
X119546666Y-76315160D01*
X119549500Y-76341518D01*
X119549500Y-87431006D01*
X119549500Y-87568994D01*
X119549500Y-87568996D01*
X119549499Y-87568996D01*
X119576418Y-87704322D01*
X119576421Y-87704332D01*
X119629222Y-87831807D01*
X119705887Y-87946545D01*
X119705888Y-87946546D01*
X126343376Y-94584033D01*
X126357463Y-94609832D01*
X126373889Y-94634215D01*
X126374017Y-94640148D01*
X126376861Y-94645356D01*
X126374764Y-94674675D01*
X126375400Y-94704068D01*
X126372117Y-94711688D01*
X126371877Y-94715048D01*
X126361436Y-94736482D01*
X126359117Y-94740268D01*
X126307314Y-94787154D01*
X126253376Y-94799500D01*
X117746624Y-94799500D01*
X117679585Y-94779815D01*
X117643913Y-94743371D01*
X117643443Y-94743714D01*
X117641123Y-94740521D01*
X117640897Y-94740290D01*
X117640582Y-94739777D01*
X117640580Y-94739774D01*
X117640579Y-94739772D01*
X117506379Y-94555063D01*
X117344937Y-94393621D01*
X117160228Y-94259421D01*
X116956803Y-94155770D01*
X116739660Y-94085215D01*
X116514162Y-94049500D01*
X116514157Y-94049500D01*
X114985843Y-94049500D01*
X114985838Y-94049500D01*
X114760339Y-94085215D01*
X114543196Y-94155770D01*
X114339771Y-94259421D01*
X114155061Y-94393622D01*
X113993622Y-94555061D01*
X113859421Y-94739771D01*
X113755770Y-94943196D01*
X113685215Y-95160339D01*
X113649500Y-95385837D01*
X113649500Y-95614162D01*
X113685215Y-95839660D01*
X113755770Y-96056803D01*
X113835273Y-96212835D01*
X113859421Y-96260228D01*
X113993621Y-96444937D01*
X114155063Y-96606379D01*
X114339772Y-96740579D01*
X114435884Y-96789550D01*
X114543196Y-96844229D01*
X114543198Y-96844229D01*
X114543201Y-96844231D01*
X114760340Y-96914784D01*
X114940470Y-96943313D01*
X114944898Y-96944015D01*
X115008032Y-96973944D01*
X115044964Y-97033255D01*
X115049500Y-97066488D01*
X115049500Y-98408481D01*
X115029815Y-98475520D01*
X115013181Y-98496162D01*
X110246162Y-103263181D01*
X110184839Y-103296666D01*
X110158481Y-103299500D01*
X105841519Y-103299500D01*
X105774480Y-103279815D01*
X105753838Y-103263181D01*
X105402837Y-102912180D01*
X105369352Y-102850857D01*
X105374336Y-102781165D01*
X105416208Y-102725232D01*
X105481672Y-102700815D01*
X105490494Y-102700499D01*
X106150008Y-102700499D01*
X106150016Y-102700498D01*
X106150019Y-102700498D01*
X106206302Y-102694748D01*
X106252797Y-102689999D01*
X106419334Y-102634814D01*
X106568656Y-102542712D01*
X106568658Y-102542709D01*
X106572403Y-102540400D01*
X106639796Y-102521960D01*
X106702597Y-102540400D01*
X106706341Y-102542709D01*
X106706344Y-102542712D01*
X106855666Y-102634814D01*
X107022203Y-102689999D01*
X107124991Y-102700500D01*
X107875008Y-102700499D01*
X107875016Y-102700498D01*
X107875019Y-102700498D01*
X107931302Y-102694748D01*
X107977797Y-102689999D01*
X108144334Y-102634814D01*
X108293656Y-102542712D01*
X108417712Y-102418656D01*
X108419461Y-102415819D01*
X108421169Y-102414283D01*
X108422193Y-102412989D01*
X108422414Y-102413163D01*
X108471406Y-102369096D01*
X108540368Y-102357872D01*
X108604451Y-102385713D01*
X108630537Y-102415817D01*
X108632288Y-102418656D01*
X108756344Y-102542712D01*
X108905666Y-102634814D01*
X109072203Y-102689999D01*
X109174991Y-102700500D01*
X109925008Y-102700499D01*
X109925016Y-102700498D01*
X109925019Y-102700498D01*
X109981302Y-102694748D01*
X110027797Y-102689999D01*
X110194334Y-102634814D01*
X110343656Y-102542712D01*
X110467712Y-102418656D01*
X110559814Y-102269334D01*
X110614999Y-102102797D01*
X110625500Y-102000009D01*
X110625499Y-100999992D01*
X110614999Y-100897203D01*
X110559814Y-100730666D01*
X110467712Y-100581344D01*
X110343656Y-100457288D01*
X110194334Y-100365186D01*
X110027797Y-100310001D01*
X110027795Y-100310000D01*
X109925016Y-100299500D01*
X109925009Y-100299500D01*
X109250098Y-100299500D01*
X109183059Y-100279815D01*
X109162417Y-100263181D01*
X108886819Y-99987583D01*
X108853334Y-99926260D01*
X108850500Y-99899902D01*
X108850500Y-97630669D01*
X109145820Y-97630669D01*
X109145820Y-97803891D01*
X109172918Y-97974981D01*
X109226447Y-98139725D01*
X109305088Y-98294068D01*
X109406906Y-98434208D01*
X109529392Y-98556694D01*
X109669532Y-98658512D01*
X109823875Y-98737153D01*
X109988619Y-98790682D01*
X110159709Y-98817780D01*
X110159710Y-98817780D01*
X111132930Y-98817780D01*
X111132931Y-98817780D01*
X111304021Y-98790682D01*
X111468765Y-98737153D01*
X111623108Y-98658512D01*
X111763248Y-98556694D01*
X111885734Y-98434208D01*
X111987552Y-98294068D01*
X112066193Y-98139725D01*
X112119722Y-97974981D01*
X112146820Y-97803891D01*
X112146820Y-97630669D01*
X112119722Y-97459579D01*
X112066193Y-97294835D01*
X111987552Y-97140492D01*
X111885734Y-97000352D01*
X111763248Y-96877866D01*
X111623108Y-96776048D01*
X111468765Y-96697407D01*
X111304021Y-96643878D01*
X111304019Y-96643877D01*
X111304018Y-96643877D01*
X111150104Y-96619500D01*
X111132931Y-96616780D01*
X110159709Y-96616780D01*
X110142536Y-96619500D01*
X109988622Y-96643877D01*
X109823872Y-96697408D01*
X109669531Y-96776048D01*
X109589576Y-96834139D01*
X109529392Y-96877866D01*
X109529390Y-96877868D01*
X109529389Y-96877868D01*
X109406908Y-97000349D01*
X109406908Y-97000350D01*
X109406906Y-97000352D01*
X109363179Y-97060536D01*
X109305088Y-97140491D01*
X109226448Y-97294832D01*
X109172917Y-97459582D01*
X109145820Y-97630669D01*
X108850500Y-97630669D01*
X108850500Y-95090669D01*
X109145820Y-95090669D01*
X109145820Y-95263890D01*
X109161527Y-95363065D01*
X109172918Y-95434981D01*
X109226447Y-95599725D01*
X109305088Y-95754068D01*
X109406906Y-95894208D01*
X109529392Y-96016694D01*
X109669532Y-96118512D01*
X109823875Y-96197153D01*
X109988619Y-96250682D01*
X110159709Y-96277780D01*
X110159710Y-96277780D01*
X111132930Y-96277780D01*
X111132931Y-96277780D01*
X111304021Y-96250682D01*
X111468765Y-96197153D01*
X111623108Y-96118512D01*
X111763248Y-96016694D01*
X111885734Y-95894208D01*
X111987552Y-95754068D01*
X112066193Y-95599725D01*
X112119722Y-95434981D01*
X112146820Y-95263891D01*
X112146820Y-95090669D01*
X112119722Y-94919579D01*
X112066193Y-94754835D01*
X111987552Y-94600492D01*
X111885734Y-94460352D01*
X111763248Y-94337866D01*
X111623108Y-94236048D01*
X111468765Y-94157407D01*
X111304021Y-94103878D01*
X111304019Y-94103877D01*
X111304018Y-94103877D01*
X111150104Y-94079500D01*
X111132931Y-94076780D01*
X110159709Y-94076780D01*
X110142536Y-94079500D01*
X109988622Y-94103877D01*
X109823872Y-94157408D01*
X109669531Y-94236048D01*
X109589576Y-94294139D01*
X109529392Y-94337866D01*
X109529390Y-94337868D01*
X109529389Y-94337868D01*
X109406908Y-94460349D01*
X109406908Y-94460350D01*
X109406906Y-94460352D01*
X109404930Y-94463072D01*
X109305088Y-94600491D01*
X109226448Y-94754832D01*
X109172917Y-94919582D01*
X109145820Y-95090669D01*
X108850500Y-95090669D01*
X108850500Y-92553389D01*
X109149500Y-92553389D01*
X109149500Y-92726611D01*
X109156331Y-92769738D01*
X109162798Y-92810575D01*
X109176598Y-92897701D01*
X109230127Y-93062445D01*
X109308768Y-93216788D01*
X109410586Y-93356928D01*
X109533072Y-93479414D01*
X109673212Y-93581232D01*
X109827555Y-93659873D01*
X109992299Y-93713402D01*
X110163389Y-93740500D01*
X110163390Y-93740500D01*
X111136610Y-93740500D01*
X111136611Y-93740500D01*
X111307701Y-93713402D01*
X111472445Y-93659873D01*
X111626788Y-93581232D01*
X111766928Y-93479414D01*
X111889414Y-93356928D01*
X111991232Y-93216788D01*
X112069873Y-93062445D01*
X112123402Y-92897701D01*
X112150500Y-92726611D01*
X112150500Y-92553389D01*
X112123402Y-92382299D01*
X112069873Y-92217555D01*
X111991232Y-92063212D01*
X111889414Y-91923072D01*
X111766928Y-91800586D01*
X111626788Y-91698768D01*
X111472445Y-91620127D01*
X111307701Y-91566598D01*
X111307699Y-91566597D01*
X111307698Y-91566597D01*
X111176271Y-91545781D01*
X111136611Y-91539500D01*
X110163389Y-91539500D01*
X110123728Y-91545781D01*
X109992302Y-91566597D01*
X109827552Y-91620128D01*
X109673211Y-91698768D01*
X109615664Y-91740579D01*
X109533072Y-91800586D01*
X109533070Y-91800588D01*
X109533069Y-91800588D01*
X109410588Y-91923069D01*
X109410588Y-91923070D01*
X109410586Y-91923072D01*
X109377773Y-91968235D01*
X109308768Y-92063211D01*
X109230128Y-92217552D01*
X109176597Y-92382302D01*
X109149500Y-92553389D01*
X108850500Y-92553389D01*
X108850500Y-90013389D01*
X109149500Y-90013389D01*
X109149500Y-90186611D01*
X109176598Y-90357701D01*
X109230127Y-90522445D01*
X109308768Y-90676788D01*
X109410586Y-90816928D01*
X109533072Y-90939414D01*
X109673212Y-91041232D01*
X109827555Y-91119873D01*
X109992299Y-91173402D01*
X110163389Y-91200500D01*
X110163390Y-91200500D01*
X111136610Y-91200500D01*
X111136611Y-91200500D01*
X111307701Y-91173402D01*
X111472445Y-91119873D01*
X111626788Y-91041232D01*
X111766928Y-90939414D01*
X111889414Y-90816928D01*
X111991232Y-90676788D01*
X112069873Y-90522445D01*
X112123402Y-90357701D01*
X112150500Y-90186611D01*
X112150500Y-90013389D01*
X112123402Y-89842299D01*
X112069873Y-89677555D01*
X111991232Y-89523212D01*
X111889414Y-89383072D01*
X111766928Y-89260586D01*
X111626788Y-89158768D01*
X111620902Y-89155769D01*
X111472447Y-89080128D01*
X111472446Y-89080127D01*
X111472445Y-89080127D01*
X111307701Y-89026598D01*
X111307699Y-89026597D01*
X111307698Y-89026597D01*
X111176271Y-89005781D01*
X111136611Y-88999500D01*
X110163389Y-88999500D01*
X110123728Y-89005781D01*
X109992302Y-89026597D01*
X109827552Y-89080128D01*
X109673211Y-89158768D01*
X109593256Y-89216859D01*
X109533072Y-89260586D01*
X109533070Y-89260588D01*
X109533069Y-89260588D01*
X109410588Y-89383069D01*
X109410588Y-89383070D01*
X109410586Y-89383072D01*
X109402922Y-89393621D01*
X109308768Y-89523211D01*
X109230128Y-89677552D01*
X109176597Y-89842302D01*
X109155811Y-89973545D01*
X109149500Y-90013389D01*
X108850500Y-90013389D01*
X108850500Y-87473389D01*
X109149500Y-87473389D01*
X109149500Y-87646611D01*
X109176598Y-87817701D01*
X109230127Y-87982445D01*
X109308768Y-88136788D01*
X109410586Y-88276928D01*
X109533072Y-88399414D01*
X109673212Y-88501232D01*
X109827555Y-88579873D01*
X109992299Y-88633402D01*
X110163389Y-88660500D01*
X110163390Y-88660500D01*
X111136610Y-88660500D01*
X111136611Y-88660500D01*
X111307701Y-88633402D01*
X111472445Y-88579873D01*
X111626788Y-88501232D01*
X111766928Y-88399414D01*
X111889414Y-88276928D01*
X111991232Y-88136788D01*
X112069873Y-87982445D01*
X112123402Y-87817701D01*
X112150500Y-87646611D01*
X112150500Y-87473389D01*
X112123402Y-87302299D01*
X112069873Y-87137555D01*
X111991232Y-86983212D01*
X111889414Y-86843072D01*
X111766928Y-86720586D01*
X111626788Y-86618768D01*
X111472445Y-86540127D01*
X111307701Y-86486598D01*
X111307699Y-86486597D01*
X111307698Y-86486597D01*
X111176271Y-86465781D01*
X111136611Y-86459500D01*
X110163389Y-86459500D01*
X110123728Y-86465781D01*
X109992302Y-86486597D01*
X109827552Y-86540128D01*
X109673211Y-86618768D01*
X109613136Y-86662416D01*
X109533072Y-86720586D01*
X109533070Y-86720588D01*
X109533069Y-86720588D01*
X109410588Y-86843069D01*
X109410588Y-86843070D01*
X109410586Y-86843072D01*
X109366859Y-86903256D01*
X109308768Y-86983211D01*
X109230128Y-87137552D01*
X109176597Y-87302302D01*
X109165752Y-87370775D01*
X109149500Y-87473389D01*
X108850500Y-87473389D01*
X108850500Y-84933389D01*
X109149500Y-84933389D01*
X109149500Y-85106611D01*
X109176598Y-85277701D01*
X109230127Y-85442445D01*
X109308768Y-85596788D01*
X109410586Y-85736928D01*
X109533072Y-85859414D01*
X109673212Y-85961232D01*
X109827555Y-86039873D01*
X109992299Y-86093402D01*
X110163389Y-86120500D01*
X110163390Y-86120500D01*
X111136610Y-86120500D01*
X111136611Y-86120500D01*
X111307701Y-86093402D01*
X111472445Y-86039873D01*
X111626788Y-85961232D01*
X111766928Y-85859414D01*
X111889414Y-85736928D01*
X111991232Y-85596788D01*
X112069873Y-85442445D01*
X112123402Y-85277701D01*
X112150500Y-85106611D01*
X112150500Y-84933389D01*
X112123402Y-84762299D01*
X112069873Y-84597555D01*
X111991232Y-84443212D01*
X111889414Y-84303072D01*
X111766928Y-84180586D01*
X111626788Y-84078768D01*
X111472445Y-84000127D01*
X111307701Y-83946598D01*
X111307699Y-83946597D01*
X111307698Y-83946597D01*
X111176271Y-83925781D01*
X111136611Y-83919500D01*
X110163389Y-83919500D01*
X110123728Y-83925781D01*
X109992302Y-83946597D01*
X109827552Y-84000128D01*
X109673211Y-84078768D01*
X109593256Y-84136859D01*
X109533072Y-84180586D01*
X109533070Y-84180588D01*
X109533069Y-84180588D01*
X109410588Y-84303069D01*
X109410588Y-84303070D01*
X109410586Y-84303072D01*
X109410350Y-84303397D01*
X109308768Y-84443211D01*
X109230128Y-84597552D01*
X109176597Y-84762302D01*
X109160236Y-84865606D01*
X109149500Y-84933389D01*
X108850500Y-84933389D01*
X108850500Y-82640096D01*
X108870185Y-82573057D01*
X108886815Y-82552419D01*
X108939560Y-82499674D01*
X109000882Y-82466190D01*
X109070574Y-82471174D01*
X109126507Y-82513046D01*
X109149713Y-82567958D01*
X109170752Y-82700794D01*
X109176598Y-82737701D01*
X109230127Y-82902445D01*
X109308768Y-83056788D01*
X109410586Y-83196928D01*
X109533072Y-83319414D01*
X109673212Y-83421232D01*
X109827555Y-83499873D01*
X109992299Y-83553402D01*
X110163389Y-83580500D01*
X110163390Y-83580500D01*
X111136610Y-83580500D01*
X111136611Y-83580500D01*
X111307701Y-83553402D01*
X111472445Y-83499873D01*
X111626788Y-83421232D01*
X111766928Y-83319414D01*
X111889414Y-83196928D01*
X111991232Y-83056788D01*
X112069873Y-82902445D01*
X112123402Y-82737701D01*
X112150500Y-82566611D01*
X112150500Y-82393389D01*
X112123402Y-82222299D01*
X112069873Y-82057555D01*
X111991232Y-81903212D01*
X111889414Y-81763072D01*
X111766928Y-81640586D01*
X111626788Y-81538768D01*
X111472445Y-81460127D01*
X111307701Y-81406598D01*
X111307699Y-81406597D01*
X111307698Y-81406597D01*
X111176271Y-81385781D01*
X111136611Y-81379500D01*
X110359097Y-81379500D01*
X110337851Y-81373261D01*
X110315763Y-81371682D01*
X110304979Y-81363609D01*
X110292058Y-81359815D01*
X110277558Y-81343081D01*
X110259830Y-81329810D01*
X110255122Y-81317189D01*
X110246303Y-81307011D01*
X110243151Y-81285093D01*
X110235413Y-81264346D01*
X110238275Y-81251185D01*
X110236359Y-81237853D01*
X110245558Y-81217709D01*
X110250265Y-81196073D01*
X110263533Y-81178347D01*
X110265384Y-81174297D01*
X110271416Y-81167819D01*
X110362416Y-81076819D01*
X110423739Y-81043334D01*
X110450097Y-81040500D01*
X111136610Y-81040500D01*
X111136611Y-81040500D01*
X111307701Y-81013402D01*
X111472445Y-80959873D01*
X111626788Y-80881232D01*
X111766928Y-80779414D01*
X111889414Y-80656928D01*
X111991232Y-80516788D01*
X112069873Y-80362445D01*
X112123402Y-80197701D01*
X112150500Y-80026611D01*
X112150500Y-79853389D01*
X112123402Y-79682299D01*
X112069873Y-79517555D01*
X111991232Y-79363212D01*
X111889414Y-79223072D01*
X111766928Y-79100586D01*
X111626788Y-78998768D01*
X111472445Y-78920127D01*
X111307701Y-78866598D01*
X111307699Y-78866597D01*
X111307698Y-78866597D01*
X111176271Y-78845781D01*
X111136611Y-78839500D01*
X110163389Y-78839500D01*
X110123728Y-78845781D01*
X109992302Y-78866597D01*
X109827552Y-78920128D01*
X109673211Y-78998768D01*
X109631711Y-79028920D01*
X109533072Y-79100586D01*
X109533070Y-79100588D01*
X109533069Y-79100588D01*
X109410588Y-79223069D01*
X109410588Y-79223070D01*
X109410586Y-79223072D01*
X109388988Y-79252799D01*
X109308768Y-79363211D01*
X109230128Y-79517552D01*
X109176597Y-79682302D01*
X109149500Y-79853389D01*
X109149500Y-80026610D01*
X109175914Y-80193386D01*
X109176598Y-80197701D01*
X109213087Y-80310001D01*
X109230126Y-80362442D01*
X109230128Y-80362447D01*
X109239248Y-80380346D01*
X109252143Y-80449015D01*
X109225866Y-80513755D01*
X109216443Y-80524320D01*
X108085594Y-81655169D01*
X108030013Y-81687261D01*
X108018220Y-81690421D01*
X108018209Y-81690426D01*
X107881290Y-81769475D01*
X107881282Y-81769481D01*
X107769481Y-81881282D01*
X107769475Y-81881290D01*
X107690426Y-82018209D01*
X107690423Y-82018216D01*
X107649500Y-82170943D01*
X107649500Y-100120939D01*
X107649499Y-100120943D01*
X107649499Y-100175502D01*
X107629813Y-100242541D01*
X107577009Y-100288295D01*
X107576998Y-100288296D01*
X107525499Y-100299500D01*
X107124998Y-100299500D01*
X107124980Y-100299501D01*
X107022203Y-100310000D01*
X107022200Y-100310001D01*
X106855668Y-100365185D01*
X106855659Y-100365189D01*
X106702596Y-100459599D01*
X106635204Y-100478039D01*
X106572404Y-100459599D01*
X106419340Y-100365189D01*
X106419335Y-100365187D01*
X106419334Y-100365186D01*
X106252797Y-100310001D01*
X106252795Y-100310000D01*
X106150010Y-100299500D01*
X105349998Y-100299500D01*
X105349980Y-100299501D01*
X105247203Y-100310000D01*
X105247200Y-100310001D01*
X105080668Y-100365185D01*
X105080663Y-100365187D01*
X104931342Y-100457289D01*
X104837681Y-100550951D01*
X104776358Y-100584436D01*
X104706666Y-100579452D01*
X104662319Y-100550951D01*
X104568657Y-100457289D01*
X104568656Y-100457288D01*
X104419334Y-100365186D01*
X104252797Y-100310001D01*
X104252795Y-100310000D01*
X104150010Y-100299500D01*
X103349998Y-100299500D01*
X103349980Y-100299501D01*
X103247203Y-100310000D01*
X103247200Y-100310001D01*
X103080668Y-100365185D01*
X103080663Y-100365187D01*
X102931342Y-100457289D01*
X102807289Y-100581342D01*
X102715187Y-100730663D01*
X102715186Y-100730666D01*
X102660001Y-100897203D01*
X102660001Y-100897204D01*
X102660000Y-100897204D01*
X102649500Y-100999983D01*
X102649500Y-102000001D01*
X102649501Y-102000019D01*
X102660000Y-102102796D01*
X102660001Y-102102799D01*
X102700000Y-102223505D01*
X102715186Y-102269334D01*
X102807288Y-102418656D01*
X102931344Y-102542712D01*
X103080666Y-102634814D01*
X103147674Y-102657018D01*
X103148999Y-102657457D01*
X103200791Y-102693022D01*
X103201578Y-102692236D01*
X103205814Y-102696472D01*
X103205843Y-102696492D01*
X103205884Y-102696542D01*
X103597162Y-103087819D01*
X103630647Y-103149142D01*
X103625663Y-103218833D01*
X103583792Y-103274767D01*
X103518327Y-103299184D01*
X103509481Y-103299500D01*
X97091518Y-103299500D01*
X97024479Y-103279815D01*
X97003837Y-103263181D01*
X96652837Y-102912180D01*
X96619352Y-102850857D01*
X96624336Y-102781165D01*
X96666208Y-102725232D01*
X96731672Y-102700815D01*
X96740494Y-102700499D01*
X97425008Y-102700499D01*
X97425016Y-102700498D01*
X97425019Y-102700498D01*
X97481302Y-102694748D01*
X97527797Y-102689999D01*
X97694334Y-102634814D01*
X97834905Y-102548109D01*
X97902296Y-102529670D01*
X97965094Y-102548109D01*
X98105666Y-102634814D01*
X98272203Y-102689999D01*
X98374991Y-102700500D01*
X99125008Y-102700499D01*
X99125016Y-102700498D01*
X99125019Y-102700498D01*
X99181302Y-102694748D01*
X99227797Y-102689999D01*
X99394334Y-102634814D01*
X99543656Y-102542712D01*
X99667712Y-102418656D01*
X99669461Y-102415819D01*
X99671169Y-102414283D01*
X99672193Y-102412989D01*
X99672414Y-102413163D01*
X99721406Y-102369096D01*
X99790368Y-102357872D01*
X99854451Y-102385713D01*
X99880537Y-102415817D01*
X99882288Y-102418656D01*
X100006344Y-102542712D01*
X100155666Y-102634814D01*
X100322203Y-102689999D01*
X100424991Y-102700500D01*
X101175008Y-102700499D01*
X101175016Y-102700498D01*
X101175019Y-102700498D01*
X101231302Y-102694748D01*
X101277797Y-102689999D01*
X101444334Y-102634814D01*
X101593656Y-102542712D01*
X101717712Y-102418656D01*
X101809814Y-102269334D01*
X101864999Y-102102797D01*
X101875500Y-102000009D01*
X101875499Y-100999992D01*
X101864999Y-100897203D01*
X101809814Y-100730666D01*
X101717712Y-100581344D01*
X101593656Y-100457288D01*
X101459402Y-100374480D01*
X101412679Y-100322533D01*
X101400500Y-100268942D01*
X101400500Y-86750097D01*
X101420185Y-86683058D01*
X101436819Y-86662416D01*
X105549735Y-82549500D01*
X109665680Y-78433554D01*
X109727001Y-78400071D01*
X109796693Y-78405055D01*
X109809653Y-78410751D01*
X109827555Y-78419873D01*
X109992299Y-78473402D01*
X110163389Y-78500500D01*
X110163390Y-78500500D01*
X111136610Y-78500500D01*
X111136611Y-78500500D01*
X111307701Y-78473402D01*
X111472445Y-78419873D01*
X111626788Y-78341232D01*
X111766928Y-78239414D01*
X111889414Y-78116928D01*
X111991232Y-77976788D01*
X112069873Y-77822445D01*
X112123402Y-77657701D01*
X112150500Y-77486611D01*
X112150500Y-77313389D01*
X112123402Y-77142299D01*
X112069873Y-76977555D01*
X111991232Y-76823212D01*
X111889414Y-76683072D01*
X111766928Y-76560586D01*
X111626788Y-76458768D01*
X111472445Y-76380127D01*
X111307701Y-76326598D01*
X111307699Y-76326597D01*
X111307698Y-76326597D01*
X111169979Y-76304785D01*
X111136611Y-76299500D01*
X110163389Y-76299500D01*
X110130021Y-76304785D01*
X109992302Y-76326597D01*
X109992299Y-76326598D01*
X109875884Y-76364424D01*
X109827552Y-76380128D01*
X109673211Y-76458768D01*
X109593256Y-76516859D01*
X109533072Y-76560586D01*
X109533070Y-76560588D01*
X109533069Y-76560588D01*
X109410588Y-76683069D01*
X109410588Y-76683070D01*
X109410586Y-76683072D01*
X109397925Y-76700499D01*
X109308768Y-76823211D01*
X109230128Y-76977552D01*
X109176597Y-77142300D01*
X109167493Y-77199780D01*
X109137562Y-77262914D01*
X109132701Y-77268061D01*
X100431286Y-85969478D01*
X100319481Y-86081282D01*
X100319479Y-86081285D01*
X100269361Y-86168094D01*
X100269359Y-86168096D01*
X100240425Y-86218209D01*
X100240424Y-86218210D01*
X100240423Y-86218215D01*
X100199499Y-86370943D01*
X100199499Y-86370945D01*
X100199499Y-86539046D01*
X100199500Y-86539059D01*
X100199500Y-100268942D01*
X100179815Y-100335981D01*
X100140598Y-100374479D01*
X100054209Y-100427764D01*
X100006342Y-100457289D01*
X99882285Y-100581346D01*
X99880537Y-100584182D01*
X99878829Y-100585717D01*
X99877807Y-100587011D01*
X99877585Y-100586836D01*
X99828589Y-100630905D01*
X99759626Y-100642126D01*
X99695544Y-100614282D01*
X99669463Y-100584182D01*
X99667714Y-100581346D01*
X99543657Y-100457289D01*
X99543656Y-100457288D01*
X99394334Y-100365186D01*
X99227797Y-100310001D01*
X99227795Y-100310000D01*
X99125010Y-100299500D01*
X98374998Y-100299500D01*
X98374980Y-100299501D01*
X98272203Y-100310000D01*
X98272200Y-100310001D01*
X98105668Y-100365185D01*
X98105659Y-100365189D01*
X97965096Y-100451889D01*
X97897704Y-100470329D01*
X97834904Y-100451889D01*
X97694340Y-100365189D01*
X97694335Y-100365187D01*
X97694334Y-100365186D01*
X97527797Y-100310001D01*
X97527795Y-100310000D01*
X97425010Y-100299500D01*
X96624998Y-100299500D01*
X96624980Y-100299501D01*
X96522203Y-100310000D01*
X96522200Y-100310001D01*
X96355668Y-100365185D01*
X96355663Y-100365187D01*
X96206342Y-100457289D01*
X96112681Y-100550951D01*
X96051358Y-100584436D01*
X95981666Y-100579452D01*
X95937319Y-100550951D01*
X95843657Y-100457289D01*
X95843656Y-100457288D01*
X95694334Y-100365186D01*
X95527797Y-100310001D01*
X95527795Y-100310000D01*
X95425010Y-100299500D01*
X94624998Y-100299500D01*
X94624980Y-100299501D01*
X94522203Y-100310000D01*
X94522200Y-100310001D01*
X94355668Y-100365185D01*
X94355663Y-100365187D01*
X94206342Y-100457289D01*
X94082289Y-100581342D01*
X93990187Y-100730663D01*
X93990186Y-100730666D01*
X93935001Y-100897203D01*
X93935001Y-100897204D01*
X93935000Y-100897204D01*
X93924500Y-100999983D01*
X93924500Y-102000001D01*
X93924501Y-102000019D01*
X93935000Y-102102796D01*
X93935001Y-102102799D01*
X93975000Y-102223505D01*
X93990186Y-102269334D01*
X94082288Y-102418656D01*
X94206344Y-102542712D01*
X94355666Y-102634814D01*
X94401632Y-102650045D01*
X94459076Y-102689818D01*
X94465729Y-102698859D01*
X94480888Y-102721546D01*
X94847162Y-103087819D01*
X94880647Y-103149142D01*
X94875663Y-103218833D01*
X94833792Y-103274767D01*
X94768327Y-103299184D01*
X94759481Y-103299500D01*
X88341518Y-103299500D01*
X88274479Y-103279815D01*
X88253837Y-103263181D01*
X87902837Y-102912180D01*
X87869352Y-102850857D01*
X87874336Y-102781165D01*
X87916208Y-102725232D01*
X87981672Y-102700815D01*
X87990494Y-102700499D01*
X88675008Y-102700499D01*
X88675016Y-102700498D01*
X88675019Y-102700498D01*
X88731302Y-102694748D01*
X88777797Y-102689999D01*
X88944334Y-102634814D01*
X89072405Y-102555819D01*
X89139796Y-102537380D01*
X89202594Y-102555819D01*
X89330666Y-102634814D01*
X89497203Y-102689999D01*
X89599991Y-102700500D01*
X90350008Y-102700499D01*
X90350016Y-102700498D01*
X90350019Y-102700498D01*
X90406302Y-102694748D01*
X90452797Y-102689999D01*
X90619334Y-102634814D01*
X90768656Y-102542712D01*
X90892712Y-102418656D01*
X90894461Y-102415819D01*
X90896169Y-102414283D01*
X90897193Y-102412989D01*
X90897414Y-102413163D01*
X90946406Y-102369096D01*
X91015368Y-102357872D01*
X91079451Y-102385713D01*
X91105537Y-102415817D01*
X91107288Y-102418656D01*
X91231344Y-102542712D01*
X91380666Y-102634814D01*
X91547203Y-102689999D01*
X91649991Y-102700500D01*
X92400008Y-102700499D01*
X92400016Y-102700498D01*
X92400019Y-102700498D01*
X92456302Y-102694748D01*
X92502797Y-102689999D01*
X92669334Y-102634814D01*
X92818656Y-102542712D01*
X92942712Y-102418656D01*
X93034814Y-102269334D01*
X93089999Y-102102797D01*
X93100500Y-102000009D01*
X93100499Y-100999992D01*
X93089999Y-100897203D01*
X93034814Y-100730666D01*
X92942712Y-100581344D01*
X92818656Y-100457288D01*
X92684402Y-100374480D01*
X92637679Y-100322533D01*
X92625500Y-100268942D01*
X92625500Y-91245097D01*
X92645185Y-91178058D01*
X92661819Y-91157416D01*
X100778146Y-83041089D01*
X108939561Y-74879673D01*
X109000882Y-74846190D01*
X109070574Y-74851174D01*
X109126507Y-74893046D01*
X109149713Y-74947958D01*
X109174237Y-75102799D01*
X109176598Y-75117701D01*
X109230127Y-75282445D01*
X109308768Y-75436788D01*
X109410586Y-75576928D01*
X109533072Y-75699414D01*
X109673212Y-75801232D01*
X109827555Y-75879873D01*
X109992299Y-75933402D01*
X110163389Y-75960500D01*
X110163390Y-75960500D01*
X111136610Y-75960500D01*
X111136611Y-75960500D01*
X111307701Y-75933402D01*
X111472445Y-75879873D01*
X111626788Y-75801232D01*
X111766928Y-75699414D01*
X111889414Y-75576928D01*
X111991232Y-75436788D01*
X112069873Y-75282445D01*
X112123402Y-75117701D01*
X112150500Y-74946611D01*
X112150500Y-74773389D01*
X112123402Y-74602299D01*
X112069873Y-74437555D01*
X111991232Y-74283212D01*
X111889414Y-74143072D01*
X111766928Y-74020586D01*
X111626788Y-73918768D01*
X111472445Y-73840127D01*
X111307701Y-73786598D01*
X111307699Y-73786597D01*
X111307698Y-73786597D01*
X111176271Y-73765781D01*
X111136611Y-73759500D01*
X110359098Y-73759500D01*
X110337852Y-73753261D01*
X110315764Y-73751682D01*
X110304980Y-73743609D01*
X110292059Y-73739815D01*
X110277559Y-73723081D01*
X110259831Y-73709810D01*
X110255123Y-73697189D01*
X110246304Y-73687011D01*
X110243152Y-73665093D01*
X110235414Y-73644346D01*
X110238276Y-73631185D01*
X110236360Y-73617853D01*
X110245559Y-73597709D01*
X110250266Y-73576073D01*
X110263534Y-73558347D01*
X110265385Y-73554297D01*
X110271417Y-73547819D01*
X110362417Y-73456819D01*
X110423740Y-73423334D01*
X110450098Y-73420500D01*
X111136610Y-73420500D01*
X111136611Y-73420500D01*
X111307701Y-73393402D01*
X111472445Y-73339873D01*
X111626788Y-73261232D01*
X111766928Y-73159414D01*
X111889414Y-73036928D01*
X111991232Y-72896788D01*
X112069873Y-72742445D01*
X112123402Y-72577701D01*
X112150500Y-72406611D01*
X112150500Y-72233389D01*
X112123402Y-72062299D01*
X112069873Y-71897555D01*
X111991232Y-71743212D01*
X111889414Y-71603072D01*
X111766928Y-71480586D01*
X111626788Y-71378768D01*
X111472445Y-71300127D01*
X111307701Y-71246598D01*
X111307699Y-71246597D01*
X111307698Y-71246597D01*
X111176271Y-71225781D01*
X111136611Y-71219500D01*
X110163389Y-71219500D01*
X110123728Y-71225781D01*
X109992302Y-71246597D01*
X109827552Y-71300128D01*
X109673211Y-71378768D01*
X109597895Y-71433489D01*
X109533072Y-71480586D01*
X109533070Y-71480588D01*
X109533069Y-71480588D01*
X109410588Y-71603069D01*
X109410588Y-71603070D01*
X109410586Y-71603072D01*
X109400642Y-71616759D01*
X109308768Y-71743211D01*
X109230128Y-71897552D01*
X109230127Y-71897554D01*
X109230127Y-71897555D01*
X109216780Y-71938632D01*
X109176597Y-72062302D01*
X109156272Y-72190633D01*
X109149500Y-72233389D01*
X109149500Y-72406611D01*
X109152638Y-72426421D01*
X109173998Y-72561290D01*
X109176598Y-72577701D01*
X109197285Y-72641368D01*
X109230126Y-72742442D01*
X109230132Y-72742457D01*
X109239246Y-72760343D01*
X109252143Y-72829012D01*
X109225867Y-72893752D01*
X109216443Y-72904319D01*
X91656286Y-90464478D01*
X91544481Y-90576282D01*
X91544479Y-90576285D01*
X91494361Y-90663094D01*
X91494359Y-90663096D01*
X91465425Y-90713209D01*
X91465424Y-90713210D01*
X91465423Y-90713215D01*
X91424499Y-90865943D01*
X91424499Y-90865945D01*
X91424499Y-91034046D01*
X91424500Y-91034059D01*
X91424500Y-100268942D01*
X91404815Y-100335981D01*
X91365598Y-100374479D01*
X91279209Y-100427764D01*
X91231342Y-100457289D01*
X91107285Y-100581346D01*
X91105537Y-100584182D01*
X91103829Y-100585717D01*
X91102807Y-100587011D01*
X91102585Y-100586836D01*
X91053589Y-100630905D01*
X90984626Y-100642126D01*
X90920544Y-100614282D01*
X90894463Y-100584182D01*
X90892714Y-100581346D01*
X90768657Y-100457289D01*
X90768656Y-100457288D01*
X90619334Y-100365186D01*
X90452797Y-100310001D01*
X90452795Y-100310000D01*
X90350010Y-100299500D01*
X89599998Y-100299500D01*
X89599980Y-100299501D01*
X89497203Y-100310000D01*
X89497200Y-100310001D01*
X89330668Y-100365185D01*
X89330659Y-100365189D01*
X89202596Y-100444179D01*
X89135204Y-100462619D01*
X89072404Y-100444179D01*
X88944340Y-100365189D01*
X88944335Y-100365187D01*
X88944334Y-100365186D01*
X88777797Y-100310001D01*
X88777795Y-100310000D01*
X88675010Y-100299500D01*
X87874998Y-100299500D01*
X87874980Y-100299501D01*
X87772203Y-100310000D01*
X87772200Y-100310001D01*
X87605668Y-100365185D01*
X87605663Y-100365187D01*
X87456342Y-100457289D01*
X87362681Y-100550951D01*
X87301358Y-100584436D01*
X87231666Y-100579452D01*
X87187319Y-100550951D01*
X87093657Y-100457289D01*
X87093656Y-100457288D01*
X86944334Y-100365186D01*
X86777797Y-100310001D01*
X86777795Y-100310000D01*
X86675010Y-100299500D01*
X85874998Y-100299500D01*
X85874980Y-100299501D01*
X85772203Y-100310000D01*
X85772200Y-100310001D01*
X85605668Y-100365185D01*
X85605663Y-100365187D01*
X85456342Y-100457289D01*
X85332289Y-100581342D01*
X85240187Y-100730663D01*
X85240186Y-100730666D01*
X85185001Y-100897203D01*
X85185001Y-100897204D01*
X85185000Y-100897204D01*
X85174500Y-100999983D01*
X85174500Y-102000001D01*
X85174501Y-102000019D01*
X85185000Y-102102796D01*
X85185001Y-102102799D01*
X85225000Y-102223505D01*
X85240186Y-102269334D01*
X85332288Y-102418656D01*
X85456344Y-102542712D01*
X85605666Y-102634814D01*
X85651632Y-102650045D01*
X85709076Y-102689818D01*
X85715729Y-102698859D01*
X85730888Y-102721546D01*
X87455886Y-104446542D01*
X87511354Y-104502010D01*
X87553459Y-104544115D01*
X87668182Y-104620771D01*
X87668186Y-104620773D01*
X87668189Y-104620775D01*
X87742866Y-104651707D01*
X87795671Y-104673580D01*
X87822591Y-104678934D01*
X87919630Y-104698237D01*
X87931006Y-104700500D01*
X87931007Y-104700500D01*
X110568996Y-104700500D01*
X110677412Y-104678934D01*
X110704328Y-104673580D01*
X110768069Y-104647177D01*
X110831807Y-104620777D01*
X110831808Y-104620776D01*
X110831811Y-104620775D01*
X110946543Y-104544114D01*
X116294114Y-99196543D01*
X116370775Y-99081811D01*
X116423580Y-98954329D01*
X116423580Y-98954325D01*
X116423582Y-98954322D01*
X116428934Y-98927411D01*
X116428934Y-98927409D01*
X116450500Y-98818993D01*
X116450500Y-97066488D01*
X116470185Y-96999449D01*
X116522989Y-96953694D01*
X116555102Y-96944015D01*
X116558842Y-96943422D01*
X116739660Y-96914784D01*
X116956799Y-96844231D01*
X117160228Y-96740579D01*
X117344937Y-96606379D01*
X117506379Y-96444937D01*
X117640579Y-96260228D01*
X117640582Y-96260221D01*
X117640897Y-96259710D01*
X117641067Y-96259556D01*
X117643443Y-96256286D01*
X117644129Y-96256785D01*
X117692708Y-96212835D01*
X117746624Y-96200500D01*
X126253376Y-96200500D01*
X126320415Y-96220185D01*
X126356086Y-96256628D01*
X126356557Y-96256286D01*
X126358876Y-96259478D01*
X126359103Y-96259710D01*
X126359417Y-96260222D01*
X126359420Y-96260226D01*
X126359421Y-96260228D01*
X126493621Y-96444937D01*
X126655063Y-96606379D01*
X126839772Y-96740579D01*
X126935884Y-96789550D01*
X127043196Y-96844229D01*
X127043198Y-96844229D01*
X127043201Y-96844231D01*
X127146719Y-96877866D01*
X127260339Y-96914784D01*
X127485838Y-96950500D01*
X127485843Y-96950500D01*
X129014162Y-96950500D01*
X129239660Y-96914784D01*
X129239663Y-96914783D01*
X129456799Y-96844231D01*
X129660228Y-96740579D01*
X129844937Y-96606379D01*
X130006379Y-96444937D01*
X130140579Y-96260228D01*
X130244231Y-96056799D01*
X130314784Y-95839660D01*
X130320162Y-95805703D01*
X130350500Y-95614162D01*
X130350500Y-95385837D01*
X130314784Y-95160339D01*
X130244229Y-94943196D01*
X130160982Y-94779815D01*
X130140579Y-94739772D01*
X130006379Y-94555063D01*
X129844937Y-94393621D01*
X129660228Y-94259421D01*
X129456803Y-94155770D01*
X129239660Y-94085215D01*
X129014162Y-94049500D01*
X129014157Y-94049500D01*
X127841518Y-94049500D01*
X127774479Y-94029815D01*
X127753837Y-94013181D01*
X124209309Y-90468652D01*
X124126494Y-90385837D01*
X126149500Y-90385837D01*
X126149500Y-90614162D01*
X126185215Y-90839660D01*
X126255770Y-91056803D01*
X126328988Y-91200500D01*
X126359421Y-91260228D01*
X126493621Y-91444937D01*
X126655063Y-91606379D01*
X126839772Y-91740579D01*
X126935884Y-91789550D01*
X127043196Y-91844229D01*
X127043198Y-91844229D01*
X127043201Y-91844231D01*
X127159592Y-91882049D01*
X127260339Y-91914784D01*
X127485838Y-91950500D01*
X127485843Y-91950500D01*
X129014162Y-91950500D01*
X129239660Y-91914784D01*
X129456799Y-91844231D01*
X129660228Y-91740579D01*
X129844937Y-91606379D01*
X130006379Y-91444937D01*
X130140579Y-91260228D01*
X130181551Y-91179815D01*
X130187467Y-91168205D01*
X130197916Y-91157140D01*
X130204239Y-91143297D01*
X130221419Y-91132255D01*
X130235442Y-91117409D01*
X130251121Y-91113167D01*
X130263017Y-91105523D01*
X130297952Y-91100500D01*
X130319699Y-91100500D01*
X130386738Y-91120185D01*
X130432493Y-91172989D01*
X130437403Y-91185492D01*
X130465186Y-91269334D01*
X130557288Y-91418656D01*
X130681344Y-91542712D01*
X130830666Y-91634814D01*
X130997203Y-91689999D01*
X131099991Y-91700500D01*
X131900008Y-91700499D01*
X131900016Y-91700498D01*
X131900019Y-91700498D01*
X131956302Y-91694748D01*
X132002797Y-91689999D01*
X132169334Y-91634814D01*
X132318656Y-91542712D01*
X132412675Y-91448692D01*
X132473994Y-91415210D01*
X132543686Y-91420194D01*
X132588034Y-91448695D01*
X132681654Y-91542315D01*
X132830875Y-91634356D01*
X132830880Y-91634358D01*
X132997302Y-91689505D01*
X132997309Y-91689506D01*
X133100019Y-91699999D01*
X133249999Y-91699999D01*
X133750000Y-91699999D01*
X133899972Y-91699999D01*
X133899986Y-91699998D01*
X134002697Y-91689505D01*
X134169119Y-91634358D01*
X134169124Y-91634356D01*
X134318345Y-91542315D01*
X134442315Y-91418345D01*
X134534356Y-91269124D01*
X134534358Y-91269119D01*
X134589505Y-91102697D01*
X134589506Y-91102690D01*
X134599999Y-90999986D01*
X134600000Y-90999973D01*
X134600000Y-90750000D01*
X133750000Y-90750000D01*
X133750000Y-91699999D01*
X133249999Y-91699999D01*
X133250000Y-91699998D01*
X133250000Y-90250000D01*
X133750000Y-90250000D01*
X134599999Y-90250000D01*
X134599999Y-90000028D01*
X134599998Y-90000013D01*
X134589505Y-89897302D01*
X134534358Y-89730880D01*
X134534356Y-89730875D01*
X134442315Y-89581654D01*
X134318345Y-89457684D01*
X134169124Y-89365643D01*
X134169119Y-89365641D01*
X134002697Y-89310494D01*
X134002690Y-89310493D01*
X133899986Y-89300000D01*
X133750000Y-89300000D01*
X133750000Y-90250000D01*
X133250000Y-90250000D01*
X133250000Y-89300000D01*
X133100027Y-89300000D01*
X133100012Y-89300001D01*
X132997302Y-89310494D01*
X132830880Y-89365641D01*
X132830875Y-89365643D01*
X132681657Y-89457682D01*
X132588034Y-89551305D01*
X132526710Y-89584789D01*
X132457019Y-89579805D01*
X132412672Y-89551304D01*
X132318657Y-89457289D01*
X132318656Y-89457288D01*
X132169334Y-89365186D01*
X132002797Y-89310001D01*
X132002795Y-89310000D01*
X131900010Y-89299500D01*
X131099998Y-89299500D01*
X131099980Y-89299501D01*
X130997203Y-89310000D01*
X130997200Y-89310001D01*
X130830668Y-89365185D01*
X130830663Y-89365187D01*
X130681342Y-89457289D01*
X130557289Y-89581342D01*
X130465187Y-89730663D01*
X130465185Y-89730668D01*
X130437405Y-89814504D01*
X130423534Y-89834536D01*
X130413412Y-89856703D01*
X130403999Y-89862751D01*
X130397632Y-89871949D01*
X130375133Y-89881302D01*
X130354634Y-89894477D01*
X130337532Y-89896935D01*
X130333116Y-89898772D01*
X130319699Y-89899500D01*
X130297952Y-89899500D01*
X130230913Y-89879815D01*
X130187467Y-89831795D01*
X130140578Y-89739771D01*
X130140577Y-89739769D01*
X130006379Y-89555063D01*
X129844937Y-89393621D01*
X129660228Y-89259421D01*
X129456803Y-89155770D01*
X129239660Y-89085215D01*
X129014162Y-89049500D01*
X129014157Y-89049500D01*
X127485843Y-89049500D01*
X127485838Y-89049500D01*
X127260339Y-89085215D01*
X127043196Y-89155770D01*
X126839771Y-89259421D01*
X126655061Y-89393622D01*
X126493622Y-89555061D01*
X126359421Y-89739771D01*
X126255770Y-89943196D01*
X126185215Y-90160339D01*
X126149500Y-90385837D01*
X124126494Y-90385837D01*
X120986819Y-87246162D01*
X120953334Y-87184839D01*
X120950500Y-87158481D01*
X120950500Y-75931004D01*
X120923581Y-75795677D01*
X120923580Y-75795676D01*
X120923580Y-75795672D01*
X120899202Y-75736818D01*
X120870778Y-75668195D01*
X120870771Y-75668182D01*
X120794115Y-75553459D01*
X120748509Y-75507853D01*
X120696542Y-75455886D01*
X117703337Y-72462681D01*
X117669852Y-72401358D01*
X117674836Y-72331666D01*
X117703337Y-72287319D01*
X120794111Y-69196546D01*
X120794112Y-69196545D01*
X120794112Y-69196544D01*
X120794114Y-69196543D01*
X120870775Y-69081811D01*
X120886391Y-69044112D01*
X120919753Y-68963567D01*
X120923580Y-68954328D01*
X120950500Y-68818994D01*
X120950500Y-68681006D01*
X120950500Y-51385837D01*
X126149500Y-51385837D01*
X126149500Y-51614162D01*
X126185215Y-51839660D01*
X126255770Y-52056803D01*
X126321343Y-52185496D01*
X126359421Y-52260228D01*
X126493621Y-52444937D01*
X126655063Y-52606379D01*
X126839772Y-52740579D01*
X126935884Y-52789550D01*
X127043196Y-52844229D01*
X127043198Y-52844229D01*
X127043201Y-52844231D01*
X127159592Y-52882049D01*
X127260339Y-52914784D01*
X127485838Y-52950500D01*
X127485843Y-52950500D01*
X129014162Y-52950500D01*
X129239660Y-52914784D01*
X129456799Y-52844231D01*
X129660228Y-52740579D01*
X129844937Y-52606379D01*
X130006379Y-52444937D01*
X130140579Y-52260228D01*
X130187467Y-52168205D01*
X130197916Y-52157140D01*
X130204239Y-52143297D01*
X130221419Y-52132255D01*
X130235442Y-52117409D01*
X130251121Y-52113167D01*
X130263017Y-52105523D01*
X130297952Y-52100500D01*
X130319699Y-52100500D01*
X130386738Y-52120185D01*
X130432493Y-52172989D01*
X130437403Y-52185492D01*
X130465186Y-52269334D01*
X130557288Y-52418656D01*
X130681344Y-52542712D01*
X130830666Y-52634814D01*
X130997203Y-52689999D01*
X131099991Y-52700500D01*
X131900008Y-52700499D01*
X131900016Y-52700498D01*
X131900019Y-52700498D01*
X131956302Y-52694748D01*
X132002797Y-52689999D01*
X132169334Y-52634814D01*
X132318656Y-52542712D01*
X132412675Y-52448692D01*
X132473994Y-52415210D01*
X132543686Y-52420194D01*
X132588034Y-52448695D01*
X132681654Y-52542315D01*
X132830875Y-52634356D01*
X132830880Y-52634358D01*
X132997302Y-52689505D01*
X132997309Y-52689506D01*
X133100019Y-52699999D01*
X133249999Y-52699999D01*
X133750000Y-52699999D01*
X133899972Y-52699999D01*
X133899986Y-52699998D01*
X134002697Y-52689505D01*
X134169119Y-52634358D01*
X134169124Y-52634356D01*
X134318345Y-52542315D01*
X134442315Y-52418345D01*
X134534356Y-52269124D01*
X134534358Y-52269119D01*
X134589505Y-52102697D01*
X134589506Y-52102690D01*
X134599999Y-51999986D01*
X134600000Y-51999973D01*
X134600000Y-51750000D01*
X133750000Y-51750000D01*
X133750000Y-52699999D01*
X133249999Y-52699999D01*
X133250000Y-52699998D01*
X133250000Y-51250000D01*
X133750000Y-51250000D01*
X134599999Y-51250000D01*
X134599999Y-51000028D01*
X134599998Y-51000013D01*
X134589505Y-50897302D01*
X134534358Y-50730880D01*
X134534356Y-50730875D01*
X134442315Y-50581654D01*
X134318345Y-50457684D01*
X134169124Y-50365643D01*
X134169119Y-50365641D01*
X134002697Y-50310494D01*
X134002690Y-50310493D01*
X133899986Y-50300000D01*
X133750000Y-50300000D01*
X133750000Y-51250000D01*
X133250000Y-51250000D01*
X133250000Y-50300000D01*
X133100027Y-50300000D01*
X133100012Y-50300001D01*
X132997302Y-50310494D01*
X132830880Y-50365641D01*
X132830875Y-50365643D01*
X132681657Y-50457682D01*
X132588034Y-50551305D01*
X132526710Y-50584789D01*
X132457019Y-50579805D01*
X132412672Y-50551304D01*
X132318657Y-50457289D01*
X132318656Y-50457288D01*
X132169334Y-50365186D01*
X132002797Y-50310001D01*
X132002795Y-50310000D01*
X131900010Y-50299500D01*
X131099998Y-50299500D01*
X131099980Y-50299501D01*
X130997203Y-50310000D01*
X130997200Y-50310001D01*
X130830668Y-50365185D01*
X130830663Y-50365187D01*
X130681342Y-50457289D01*
X130557289Y-50581342D01*
X130465187Y-50730663D01*
X130465185Y-50730668D01*
X130450329Y-50775500D01*
X130443644Y-50795677D01*
X130437405Y-50814504D01*
X130423534Y-50834536D01*
X130413412Y-50856703D01*
X130403999Y-50862751D01*
X130397632Y-50871949D01*
X130375133Y-50881302D01*
X130354634Y-50894477D01*
X130337532Y-50896935D01*
X130333116Y-50898772D01*
X130319699Y-50899500D01*
X130297952Y-50899500D01*
X130230913Y-50879815D01*
X130187467Y-50831795D01*
X130140578Y-50739771D01*
X130006379Y-50555063D01*
X129844937Y-50393621D01*
X129660228Y-50259421D01*
X129456803Y-50155770D01*
X129239660Y-50085215D01*
X129014162Y-50049500D01*
X129014157Y-50049500D01*
X127485843Y-50049500D01*
X127485838Y-50049500D01*
X127260339Y-50085215D01*
X127043196Y-50155770D01*
X126839771Y-50259421D01*
X126655061Y-50393622D01*
X126493622Y-50555061D01*
X126359421Y-50739771D01*
X126255770Y-50943196D01*
X126185215Y-51160339D01*
X126149500Y-51385837D01*
X120950500Y-51385837D01*
X120950500Y-50931007D01*
X120950500Y-50931004D01*
X120923581Y-50795677D01*
X120923580Y-50795676D01*
X120923580Y-50795672D01*
X120900425Y-50739771D01*
X120870778Y-50668195D01*
X120870776Y-50668191D01*
X120870775Y-50668189D01*
X120812747Y-50581344D01*
X120811719Y-50579805D01*
X120794116Y-50553459D01*
X117656623Y-47415966D01*
X117642528Y-47390153D01*
X117626098Y-47365748D01*
X117625971Y-47359832D01*
X117623138Y-47354643D01*
X117625235Y-47325306D01*
X117624609Y-47295894D01*
X117627882Y-47288302D01*
X117628122Y-47284951D01*
X117638583Y-47263484D01*
X117640903Y-47259699D01*
X117692720Y-47212829D01*
X117746624Y-47200500D01*
X126253376Y-47200500D01*
X126320415Y-47220185D01*
X126356086Y-47256628D01*
X126356557Y-47256286D01*
X126358876Y-47259478D01*
X126359103Y-47259710D01*
X126359417Y-47260222D01*
X126359420Y-47260226D01*
X126359421Y-47260228D01*
X126493621Y-47444937D01*
X126655063Y-47606379D01*
X126839772Y-47740579D01*
X126935884Y-47789550D01*
X127043196Y-47844229D01*
X127043198Y-47844229D01*
X127043201Y-47844231D01*
X127159592Y-47882049D01*
X127260339Y-47914784D01*
X127485838Y-47950500D01*
X127485843Y-47950500D01*
X129014162Y-47950500D01*
X129239660Y-47914784D01*
X129456799Y-47844231D01*
X129660228Y-47740579D01*
X129844937Y-47606379D01*
X130006379Y-47444937D01*
X130140579Y-47260228D01*
X130244231Y-47056799D01*
X130314784Y-46839660D01*
X130325379Y-46772764D01*
X130350500Y-46614162D01*
X130350500Y-46385837D01*
X130314784Y-46160339D01*
X130274724Y-46037049D01*
X130244231Y-45943201D01*
X130244229Y-45943198D01*
X130244229Y-45943196D01*
X130171012Y-45799500D01*
X130140579Y-45739772D01*
X130006379Y-45555063D01*
X129844937Y-45393621D01*
X129660228Y-45259421D01*
X129641738Y-45250000D01*
X129456803Y-45155770D01*
X129239660Y-45085215D01*
X129014162Y-45049500D01*
X129014157Y-45049500D01*
X127485843Y-45049500D01*
X127485838Y-45049500D01*
X127260339Y-45085215D01*
X127043196Y-45155770D01*
X126839771Y-45259421D01*
X126655060Y-45393623D01*
X126493622Y-45555061D01*
X126359417Y-45739777D01*
X126359103Y-45740290D01*
X126358932Y-45740443D01*
X126356557Y-45743714D01*
X126355870Y-45743214D01*
X126307292Y-45787165D01*
X126253376Y-45799500D01*
X117746624Y-45799500D01*
X117679585Y-45779815D01*
X117643913Y-45743371D01*
X117643443Y-45743714D01*
X117641123Y-45740521D01*
X117640897Y-45740290D01*
X117640582Y-45739777D01*
X117640580Y-45739774D01*
X117640579Y-45739772D01*
X117506379Y-45555063D01*
X117344937Y-45393621D01*
X117160228Y-45259421D01*
X117141738Y-45250000D01*
X116956803Y-45155770D01*
X116739660Y-45085215D01*
X116514162Y-45049500D01*
X116514157Y-45049500D01*
X115091519Y-45049500D01*
X115024480Y-45029815D01*
X115003838Y-45013181D01*
X111446546Y-41455888D01*
X111446545Y-41455887D01*
X111331807Y-41379222D01*
X111204332Y-41326421D01*
X111204322Y-41326418D01*
X111068996Y-41299500D01*
X111068994Y-41299500D01*
X111068993Y-41299500D01*
X88681007Y-41299500D01*
X88681003Y-41299500D01*
X88583760Y-41318843D01*
X88583758Y-41318843D01*
X88572591Y-41321065D01*
X88545671Y-41326420D01*
X88492866Y-41348292D01*
X88418189Y-41379225D01*
X88418188Y-41379226D01*
X88397199Y-41393249D01*
X88397192Y-41393253D01*
X88303457Y-41455886D01*
X88303453Y-41455889D01*
X84705888Y-45053453D01*
X84705887Y-45053454D01*
X84629222Y-45168192D01*
X84576421Y-45295667D01*
X84576418Y-45295679D01*
X84556937Y-45393619D01*
X84556937Y-45393622D01*
X84549500Y-45431006D01*
X84549500Y-50775500D01*
X84529815Y-50842539D01*
X84477011Y-50888294D01*
X84425501Y-50899500D01*
X84202130Y-50899500D01*
X84202123Y-50899501D01*
X84142516Y-50905908D01*
X84007671Y-50956202D01*
X84007664Y-50956206D01*
X83892455Y-51042452D01*
X83892452Y-51042455D01*
X83806206Y-51157664D01*
X83806202Y-51157671D01*
X83755908Y-51292517D01*
X83749501Y-51352116D01*
X83749501Y-51352123D01*
X83749500Y-51352135D01*
X76837500Y-51352135D01*
X76837500Y-50072500D01*
X73387500Y-50072500D01*
X73387500Y-53222499D01*
X72887499Y-53222499D01*
X72887500Y-53222498D01*
X72887500Y-50072500D01*
X69437501Y-50072500D01*
X69437501Y-52522488D01*
X68435959Y-52522488D01*
X68438000Y-52502509D01*
X68437999Y-51702492D01*
X68428975Y-51614157D01*
X68427499Y-51599703D01*
X68427498Y-51599700D01*
X68423968Y-51589046D01*
X68372314Y-51433166D01*
X68280212Y-51283844D01*
X68156156Y-51159788D01*
X68006834Y-51067686D01*
X67840297Y-51012501D01*
X67840295Y-51012500D01*
X67737510Y-51002000D01*
X65937498Y-51002000D01*
X65937481Y-51002001D01*
X65834703Y-51012500D01*
X65834700Y-51012501D01*
X65668168Y-51067685D01*
X65668163Y-51067687D01*
X65518842Y-51159789D01*
X65394789Y-51283842D01*
X65302687Y-51433163D01*
X65302686Y-51433166D01*
X65247501Y-51599703D01*
X65247501Y-51599704D01*
X65247500Y-51599704D01*
X65237000Y-51702483D01*
X65237000Y-52502501D01*
X65237001Y-52502519D01*
X65247500Y-52605296D01*
X65247501Y-52605299D01*
X65279048Y-52700499D01*
X65302686Y-52771834D01*
X65394788Y-52921156D01*
X65518844Y-53045212D01*
X65640597Y-53120309D01*
X65687321Y-53172255D01*
X65699500Y-53225847D01*
X65699500Y-53625270D01*
X65679815Y-53692309D01*
X65663181Y-53712951D01*
X65569789Y-53806342D01*
X65477685Y-53955667D01*
X65474756Y-53964507D01*
X65434982Y-54021951D01*
X65370465Y-54048772D01*
X65357051Y-54049500D01*
X63681004Y-54049500D01*
X63545677Y-54076418D01*
X63545667Y-54076421D01*
X63418192Y-54129222D01*
X63303454Y-54205887D01*
X59455887Y-58053454D01*
X59379223Y-58168192D01*
X59326421Y-58295668D01*
X59326418Y-58295680D01*
X59317565Y-58340187D01*
X59317565Y-58340188D01*
X59299500Y-58431004D01*
X59299500Y-74760217D01*
X59279815Y-74827256D01*
X59227011Y-74873011D01*
X59157853Y-74882955D01*
X59094297Y-74853930D01*
X59087819Y-74847898D01*
X57561571Y-73321651D01*
X57528086Y-73260328D01*
X57526088Y-73230834D01*
X57525500Y-73230834D01*
X57525500Y-72974038D01*
X57522625Y-72955885D01*
X57486090Y-72725215D01*
X57408241Y-72485621D01*
X57408239Y-72485618D01*
X57408239Y-72485616D01*
X57334370Y-72340641D01*
X57293870Y-72261155D01*
X57242633Y-72190633D01*
X57145798Y-72057350D01*
X57145794Y-72057345D01*
X56967654Y-71879205D01*
X56967649Y-71879201D01*
X56763848Y-71731132D01*
X56763847Y-71731131D01*
X56763845Y-71731130D01*
X56693747Y-71695413D01*
X56539383Y-71616760D01*
X56299785Y-71538910D01*
X56050962Y-71499500D01*
X55799038Y-71499500D01*
X55674626Y-71519205D01*
X55550214Y-71538910D01*
X55310616Y-71616760D01*
X55086151Y-71731132D01*
X54882350Y-71879201D01*
X54882345Y-71879205D01*
X54704205Y-72057345D01*
X54704201Y-72057350D01*
X54556132Y-72261151D01*
X54441760Y-72485616D01*
X54363910Y-72725214D01*
X54328583Y-72948257D01*
X54324500Y-72974038D01*
X54324500Y-73225962D01*
X54337811Y-73310001D01*
X54363910Y-73474785D01*
X54441760Y-73714383D01*
X54504145Y-73836819D01*
X54548901Y-73924658D01*
X54556132Y-73938848D01*
X54704201Y-74142649D01*
X54704205Y-74142654D01*
X54882345Y-74320794D01*
X54882350Y-74320798D01*
X55032519Y-74429901D01*
X55086155Y-74468870D01*
X55229184Y-74541747D01*
X55310616Y-74583239D01*
X55310618Y-74583239D01*
X55310621Y-74583241D01*
X55550215Y-74661090D01*
X55799038Y-74700500D01*
X55799039Y-74700500D01*
X56055834Y-74700500D01*
X56055834Y-74702030D01*
X56117577Y-74714976D01*
X56146651Y-74736571D01*
X57713181Y-76303101D01*
X57746666Y-76364424D01*
X57749500Y-76390782D01*
X57749500Y-77002752D01*
X57729815Y-77069791D01*
X57677011Y-77115546D01*
X57607853Y-77125490D01*
X57544297Y-77096465D01*
X57506523Y-77037687D01*
X57503027Y-77022150D01*
X57486090Y-76915214D01*
X57422720Y-76720183D01*
X57408241Y-76675621D01*
X57408239Y-76675618D01*
X57408239Y-76675616D01*
X57349628Y-76560586D01*
X57293870Y-76451155D01*
X57270032Y-76418345D01*
X57145798Y-76247350D01*
X57145794Y-76247345D01*
X56967654Y-76069205D01*
X56967649Y-76069201D01*
X56763848Y-75921132D01*
X56763847Y-75921131D01*
X56763845Y-75921130D01*
X56693747Y-75885413D01*
X56539383Y-75806760D01*
X56299785Y-75728910D01*
X56244685Y-75720183D01*
X56050962Y-75689500D01*
X55799038Y-75689500D01*
X55674626Y-75709205D01*
X55550214Y-75728910D01*
X55310616Y-75806760D01*
X55086151Y-75921132D01*
X54882350Y-76069201D01*
X54882345Y-76069205D01*
X54704205Y-76247345D01*
X54704201Y-76247350D01*
X54556132Y-76451151D01*
X54441760Y-76675616D01*
X54363910Y-76915214D01*
X54363910Y-76915215D01*
X54324500Y-77164038D01*
X54324500Y-77415962D01*
X54331124Y-77457783D01*
X54363910Y-77664785D01*
X54441760Y-77904383D01*
X54520413Y-78058747D01*
X54548901Y-78114658D01*
X54556132Y-78128848D01*
X54704201Y-78332649D01*
X54704205Y-78332654D01*
X54882345Y-78510794D01*
X54882350Y-78510798D01*
X54976008Y-78578844D01*
X55086155Y-78658870D01*
X55229184Y-78731747D01*
X55310616Y-78773239D01*
X55310618Y-78773239D01*
X55310621Y-78773241D01*
X55550215Y-78851090D01*
X55799038Y-78890500D01*
X55799039Y-78890500D01*
X56050961Y-78890500D01*
X56050962Y-78890500D01*
X56299785Y-78851090D01*
X56539379Y-78773241D01*
X56763845Y-78658870D01*
X56967656Y-78510793D01*
X57145793Y-78332656D01*
X57293870Y-78128845D01*
X57408241Y-77904379D01*
X57486090Y-77664785D01*
X57503027Y-77557848D01*
X57532956Y-77494714D01*
X57592268Y-77457783D01*
X57662130Y-77458781D01*
X57720363Y-77497391D01*
X57748477Y-77561354D01*
X57749500Y-77577247D01*
X57749500Y-81192752D01*
X57729815Y-81259791D01*
X57677011Y-81305546D01*
X57607853Y-81315490D01*
X57544297Y-81286465D01*
X57506523Y-81227687D01*
X57503027Y-81212150D01*
X57486090Y-81105214D01*
X57408239Y-80865616D01*
X57364315Y-80779411D01*
X57293870Y-80641155D01*
X57228333Y-80550951D01*
X57145798Y-80437350D01*
X57145794Y-80437345D01*
X56967654Y-80259205D01*
X56967649Y-80259201D01*
X56763848Y-80111132D01*
X56763847Y-80111131D01*
X56763845Y-80111130D01*
X56693747Y-80075413D01*
X56539383Y-79996760D01*
X56299785Y-79918910D01*
X56284190Y-79916440D01*
X56050962Y-79879500D01*
X55799038Y-79879500D01*
X55762204Y-79885334D01*
X55565805Y-79916440D01*
X55496511Y-79907485D01*
X55458726Y-79881648D01*
X47586819Y-72009741D01*
X47553334Y-71948418D01*
X47550500Y-71922060D01*
X47550500Y-68774038D01*
X54324500Y-68774038D01*
X54324500Y-69025962D01*
X54330378Y-69063072D01*
X54363910Y-69274785D01*
X54441760Y-69514383D01*
X54520137Y-69668205D01*
X54548901Y-69724658D01*
X54556132Y-69738848D01*
X54704201Y-69942649D01*
X54704205Y-69942654D01*
X54882345Y-70120794D01*
X54882350Y-70120798D01*
X54994731Y-70202447D01*
X55086155Y-70268870D01*
X55229184Y-70341747D01*
X55310616Y-70383239D01*
X55310618Y-70383239D01*
X55310621Y-70383241D01*
X55550215Y-70461090D01*
X55799038Y-70500500D01*
X55799039Y-70500500D01*
X56050961Y-70500500D01*
X56050962Y-70500500D01*
X56299785Y-70461090D01*
X56539379Y-70383241D01*
X56763845Y-70268870D01*
X56967656Y-70120793D01*
X57145793Y-69942656D01*
X57293870Y-69738845D01*
X57408241Y-69514379D01*
X57486090Y-69274785D01*
X57525500Y-69025962D01*
X57525500Y-68774038D01*
X57486090Y-68525215D01*
X57408241Y-68285621D01*
X57408239Y-68285618D01*
X57408239Y-68285616D01*
X57358252Y-68187512D01*
X57293870Y-68061155D01*
X57225105Y-67966508D01*
X57145798Y-67857350D01*
X57145794Y-67857345D01*
X56967654Y-67679205D01*
X56967649Y-67679201D01*
X56763848Y-67531132D01*
X56763847Y-67531131D01*
X56763845Y-67531130D01*
X56674499Y-67485606D01*
X56539383Y-67416760D01*
X56299785Y-67338910D01*
X56231483Y-67328092D01*
X56050962Y-67299500D01*
X55799038Y-67299500D01*
X55674626Y-67319205D01*
X55550214Y-67338910D01*
X55310616Y-67416760D01*
X55086151Y-67531132D01*
X54882350Y-67679201D01*
X54882345Y-67679205D01*
X54704205Y-67857345D01*
X54704201Y-67857350D01*
X54556132Y-68061151D01*
X54441760Y-68285616D01*
X54363910Y-68525214D01*
X54334597Y-68710288D01*
X54324500Y-68774038D01*
X47550500Y-68774038D01*
X47550500Y-64584038D01*
X54324500Y-64584038D01*
X54324500Y-64835961D01*
X54363910Y-65084785D01*
X54441760Y-65324383D01*
X54488916Y-65416930D01*
X54551323Y-65539411D01*
X54556132Y-65548848D01*
X54704201Y-65752649D01*
X54704205Y-65752654D01*
X54882345Y-65930794D01*
X54882350Y-65930798D01*
X54994365Y-66012181D01*
X55086155Y-66078870D01*
X55206130Y-66140000D01*
X55310616Y-66193239D01*
X55310618Y-66193239D01*
X55310621Y-66193241D01*
X55550215Y-66271090D01*
X55799038Y-66310500D01*
X55799039Y-66310500D01*
X56050961Y-66310500D01*
X56050962Y-66310500D01*
X56299785Y-66271090D01*
X56539379Y-66193241D01*
X56763845Y-66078870D01*
X56967656Y-65930793D01*
X57145793Y-65752656D01*
X57293870Y-65548845D01*
X57408241Y-65324379D01*
X57486090Y-65084785D01*
X57525500Y-64835962D01*
X57525500Y-64584038D01*
X57486090Y-64335215D01*
X57408241Y-64095621D01*
X57408239Y-64095618D01*
X57408239Y-64095616D01*
X57350893Y-63983069D01*
X57293870Y-63871155D01*
X57235345Y-63790602D01*
X57145798Y-63667350D01*
X57145794Y-63667345D01*
X56967654Y-63489205D01*
X56967649Y-63489201D01*
X56763848Y-63341132D01*
X56763847Y-63341131D01*
X56763845Y-63341130D01*
X56693747Y-63305413D01*
X56539383Y-63226760D01*
X56299785Y-63148910D01*
X56050962Y-63109500D01*
X55799038Y-63109500D01*
X55674626Y-63129205D01*
X55550214Y-63148910D01*
X55310616Y-63226760D01*
X55086151Y-63341132D01*
X54882350Y-63489201D01*
X54882345Y-63489205D01*
X54704205Y-63667345D01*
X54704201Y-63667350D01*
X54556132Y-63871151D01*
X54441760Y-64095616D01*
X54363910Y-64335214D01*
X54324500Y-64584038D01*
X47550500Y-64584038D01*
X47550500Y-63067236D01*
X47570185Y-63000197D01*
X47622989Y-62954442D01*
X47692147Y-62944498D01*
X47755703Y-62973523D01*
X47781887Y-63005236D01*
X47908075Y-63223803D01*
X48067718Y-63431851D01*
X48067726Y-63431860D01*
X48253140Y-63617274D01*
X48253148Y-63617281D01*
X48253149Y-63617282D01*
X48265290Y-63626598D01*
X48461196Y-63776924D01*
X48688299Y-63908041D01*
X48688309Y-63908046D01*
X48930571Y-64008394D01*
X48930581Y-64008398D01*
X49183884Y-64076270D01*
X49443880Y-64110500D01*
X49443887Y-64110500D01*
X49706113Y-64110500D01*
X49706120Y-64110500D01*
X49966116Y-64076270D01*
X50219419Y-64008398D01*
X50461697Y-63908043D01*
X50688803Y-63776924D01*
X50896851Y-63617282D01*
X50896855Y-63617277D01*
X50896860Y-63617274D01*
X51082274Y-63431860D01*
X51082277Y-63431855D01*
X51082282Y-63431851D01*
X51241924Y-63223803D01*
X51373043Y-62996697D01*
X51473398Y-62754419D01*
X51541270Y-62501116D01*
X51575500Y-62241120D01*
X51575500Y-61978880D01*
X51541270Y-61718884D01*
X51473398Y-61465581D01*
X51473394Y-61465571D01*
X51373046Y-61223309D01*
X51373041Y-61223299D01*
X51241924Y-60996196D01*
X51082281Y-60788148D01*
X51082274Y-60788140D01*
X50896860Y-60602726D01*
X50896851Y-60602718D01*
X50746817Y-60487591D01*
X50746806Y-60487584D01*
X50688803Y-60443076D01*
X50688798Y-60443072D01*
X50603925Y-60394071D01*
X54325000Y-60394071D01*
X54325000Y-60645928D01*
X54364397Y-60894669D01*
X54442219Y-61134184D01*
X54556557Y-61358583D01*
X54630748Y-61460697D01*
X54630748Y-61460698D01*
X55360387Y-60731058D01*
X55365889Y-60751591D01*
X55444881Y-60888408D01*
X55556592Y-61000119D01*
X55693409Y-61079111D01*
X55713940Y-61084612D01*
X54984300Y-61814250D01*
X55086416Y-61888442D01*
X55310815Y-62002780D01*
X55550330Y-62080602D01*
X55799072Y-62120000D01*
X56050928Y-62120000D01*
X56299669Y-62080602D01*
X56539184Y-62002780D01*
X56763575Y-61888446D01*
X56763581Y-61888442D01*
X56865697Y-61814250D01*
X56865698Y-61814250D01*
X56136059Y-61084612D01*
X56156591Y-61079111D01*
X56293408Y-61000119D01*
X56405119Y-60888408D01*
X56484111Y-60751591D01*
X56489612Y-60731060D01*
X57219250Y-61460698D01*
X57219250Y-61460697D01*
X57293442Y-61358581D01*
X57293446Y-61358575D01*
X57407780Y-61134184D01*
X57485602Y-60894669D01*
X57525000Y-60645928D01*
X57525000Y-60394071D01*
X57485602Y-60145330D01*
X57407780Y-59905815D01*
X57293442Y-59681416D01*
X57219250Y-59579301D01*
X57219250Y-59579300D01*
X56489612Y-60308939D01*
X56484111Y-60288409D01*
X56405119Y-60151592D01*
X56293408Y-60039881D01*
X56156591Y-59960889D01*
X56136058Y-59955387D01*
X56865698Y-59225748D01*
X56763583Y-59151557D01*
X56539184Y-59037219D01*
X56299669Y-58959397D01*
X56050928Y-58920000D01*
X55799072Y-58920000D01*
X55550330Y-58959397D01*
X55310815Y-59037219D01*
X55086413Y-59151559D01*
X54984301Y-59225747D01*
X54984300Y-59225748D01*
X55713940Y-59955387D01*
X55693409Y-59960889D01*
X55556592Y-60039881D01*
X55444881Y-60151592D01*
X55365889Y-60288409D01*
X55360387Y-60308940D01*
X54630748Y-59579300D01*
X54630747Y-59579301D01*
X54556559Y-59681413D01*
X54442219Y-59905815D01*
X54364397Y-60145330D01*
X54325000Y-60394071D01*
X50603925Y-60394071D01*
X50461700Y-60311958D01*
X50461690Y-60311953D01*
X50219428Y-60211605D01*
X50219421Y-60211603D01*
X50219419Y-60211602D01*
X49966116Y-60143730D01*
X49908339Y-60136123D01*
X49706127Y-60109500D01*
X49706120Y-60109500D01*
X49443880Y-60109500D01*
X49443872Y-60109500D01*
X49212772Y-60139926D01*
X49183884Y-60143730D01*
X49089478Y-60169026D01*
X48930581Y-60211602D01*
X48930571Y-60211605D01*
X48688309Y-60311953D01*
X48688299Y-60311958D01*
X48461196Y-60443075D01*
X48253148Y-60602718D01*
X48067718Y-60788148D01*
X47908075Y-60996196D01*
X47781887Y-61214763D01*
X47731320Y-61262978D01*
X47662713Y-61276202D01*
X47597848Y-61250234D01*
X47557320Y-61193320D01*
X47550500Y-61152763D01*
X47550500Y-57632940D01*
X47570185Y-57565901D01*
X47586819Y-57545259D01*
X56752759Y-48379319D01*
X56814082Y-48345834D01*
X56840440Y-48343000D01*
X65325269Y-48343000D01*
X65392308Y-48362685D01*
X65412950Y-48379318D01*
X65518844Y-48485212D01*
X65668166Y-48577314D01*
X65834703Y-48632499D01*
X65937491Y-48643000D01*
X67737508Y-48642999D01*
X67840297Y-48632499D01*
X68006834Y-48577314D01*
X68156156Y-48485212D01*
X68280212Y-48361156D01*
X68372314Y-48211834D01*
X68427499Y-48045297D01*
X68438000Y-47942509D01*
X68437999Y-47142492D01*
X68437927Y-47141792D01*
X68436924Y-47131960D01*
X68435958Y-47122511D01*
X69437500Y-47122511D01*
X69437500Y-49572500D01*
X72887500Y-49572500D01*
X73387500Y-49572500D01*
X76837499Y-49572500D01*
X76837499Y-47122526D01*
X76837498Y-47122511D01*
X76827005Y-47019800D01*
X76771859Y-46853379D01*
X76771857Y-46853374D01*
X76679816Y-46704153D01*
X76555846Y-46580183D01*
X76406625Y-46488142D01*
X76406620Y-46488140D01*
X76240198Y-46432994D01*
X76137488Y-46422500D01*
X73387500Y-46422500D01*
X73387500Y-49572500D01*
X72887500Y-49572500D01*
X72887500Y-46422500D01*
X70137526Y-46422500D01*
X70137510Y-46422501D01*
X70034800Y-46432994D01*
X69868379Y-46488140D01*
X69868374Y-46488142D01*
X69719153Y-46580183D01*
X69595183Y-46704153D01*
X69503142Y-46853374D01*
X69503140Y-46853379D01*
X69447994Y-47019801D01*
X69437500Y-47122511D01*
X68435958Y-47122511D01*
X68432327Y-47086974D01*
X68427499Y-47039703D01*
X68372314Y-46873166D01*
X68280212Y-46723844D01*
X68156156Y-46599788D01*
X68006834Y-46507686D01*
X67840297Y-46452501D01*
X67840295Y-46452500D01*
X67737516Y-46442000D01*
X67737509Y-46442000D01*
X67424500Y-46442000D01*
X67415814Y-46439449D01*
X67406853Y-46440738D01*
X67382812Y-46429759D01*
X67357461Y-46422315D01*
X67351533Y-46415474D01*
X67343297Y-46411713D01*
X67329007Y-46389478D01*
X67311706Y-46369511D01*
X67309418Y-46358996D01*
X67305523Y-46352935D01*
X67300500Y-46318000D01*
X67300500Y-46124730D01*
X67320185Y-46057691D01*
X67336819Y-46037049D01*
X67430212Y-45943656D01*
X67432252Y-45940347D01*
X67434245Y-45938555D01*
X67434693Y-45937989D01*
X67434789Y-45938065D01*
X67484194Y-45893623D01*
X67553156Y-45882395D01*
X67617240Y-45910234D01*
X67643329Y-45940339D01*
X67645181Y-45943341D01*
X67645183Y-45943344D01*
X67769154Y-46067315D01*
X67918375Y-46159356D01*
X67918380Y-46159358D01*
X68084802Y-46214505D01*
X68084809Y-46214506D01*
X68187519Y-46224999D01*
X68324999Y-46224999D01*
X68825000Y-46224999D01*
X68962472Y-46224999D01*
X68962486Y-46224998D01*
X69065197Y-46214505D01*
X69231619Y-46159358D01*
X69231624Y-46159356D01*
X69380845Y-46067315D01*
X69504815Y-45943345D01*
X69596856Y-45794124D01*
X69596858Y-45794119D01*
X69652005Y-45627697D01*
X69652006Y-45627690D01*
X69662499Y-45524986D01*
X69662500Y-45524973D01*
X69662500Y-45250000D01*
X68825000Y-45250000D01*
X68825000Y-46224999D01*
X68324999Y-46224999D01*
X68325000Y-46224998D01*
X68325000Y-44750000D01*
X68825000Y-44750000D01*
X69662499Y-44750000D01*
X69662499Y-44475028D01*
X69662498Y-44475013D01*
X69652005Y-44372302D01*
X69596858Y-44205880D01*
X69596856Y-44205875D01*
X69504815Y-44056654D01*
X69380845Y-43932684D01*
X69231624Y-43840643D01*
X69231619Y-43840641D01*
X69065197Y-43785494D01*
X69065190Y-43785493D01*
X68962486Y-43775000D01*
X68825000Y-43775000D01*
X68825000Y-44750000D01*
X68325000Y-44750000D01*
X68325000Y-43775000D01*
X68187527Y-43775000D01*
X68187512Y-43775001D01*
X68084802Y-43785494D01*
X67918380Y-43840641D01*
X67918375Y-43840643D01*
X67769154Y-43932684D01*
X67645183Y-44056655D01*
X67645179Y-44056660D01*
X67643326Y-44059665D01*
X67641518Y-44061290D01*
X67640702Y-44062323D01*
X67640525Y-44062183D01*
X67591374Y-44106385D01*
X67522411Y-44117601D01*
X67458331Y-44089752D01*
X67432253Y-44059653D01*
X67432237Y-44059628D01*
X67430212Y-44056344D01*
X67306156Y-43932288D01*
X67156834Y-43840186D01*
X66990297Y-43785001D01*
X66990295Y-43785000D01*
X66887510Y-43774500D01*
X66112498Y-43774500D01*
X66112480Y-43774501D01*
X66009703Y-43785000D01*
X66009700Y-43785001D01*
X65843168Y-43840185D01*
X65843163Y-43840187D01*
X65693842Y-43932289D01*
X65569789Y-44056342D01*
X65477687Y-44205663D01*
X65477685Y-44205668D01*
X65477615Y-44205880D01*
X65422501Y-44372203D01*
X65422501Y-44372204D01*
X65422500Y-44372204D01*
X65412000Y-44474983D01*
X65412000Y-45525001D01*
X65412001Y-45525019D01*
X65422500Y-45627796D01*
X65422501Y-45627799D01*
X65477685Y-45794331D01*
X65477687Y-45794336D01*
X65506789Y-45841518D01*
X65569596Y-45943345D01*
X65569789Y-45943657D01*
X65663181Y-46037049D01*
X65696666Y-46098372D01*
X65699500Y-46124730D01*
X65699500Y-46419152D01*
X65679815Y-46486191D01*
X65640598Y-46524689D01*
X65577988Y-46563307D01*
X65518845Y-46599787D01*
X65412950Y-46705682D01*
X65351627Y-46739166D01*
X65325269Y-46742000D01*
X56378655Y-46742000D01*
X56224008Y-46772761D01*
X56223998Y-46772764D01*
X56078327Y-46833102D01*
X56078314Y-46833109D01*
X55947211Y-46920710D01*
X55947207Y-46920713D01*
X46239712Y-56628209D01*
X46239711Y-56628211D01*
X46225554Y-56642368D01*
X46212180Y-56655742D01*
X46150856Y-56689226D01*
X46081164Y-56684240D01*
X46025232Y-56642368D01*
X46000816Y-56576903D01*
X46000500Y-56568059D01*
X46000500Y-39503246D01*
X46000670Y-39496756D01*
X46016592Y-39192953D01*
X46017949Y-39180046D01*
X46065028Y-38882794D01*
X46067723Y-38870107D01*
X46145627Y-38579368D01*
X46149636Y-38567033D01*
X46257493Y-38286054D01*
X46262763Y-38274215D01*
X46399415Y-38006023D01*
X46405891Y-37994808D01*
X46569819Y-37742380D01*
X46577434Y-37731899D01*
X46766858Y-37497979D01*
X46775525Y-37488354D01*
X46988354Y-37275525D01*
X46997979Y-37266858D01*
X47231899Y-37077434D01*
X47242380Y-37069819D01*
X47494808Y-36905891D01*
X47506023Y-36899415D01*
X47774215Y-36762763D01*
X47786054Y-36757493D01*
X48067040Y-36649633D01*
X48079368Y-36645627D01*
X48370107Y-36567723D01*
X48382786Y-36565029D01*
X48680046Y-36517949D01*
X48692951Y-36516592D01*
X48996756Y-36500669D01*
X49003246Y-36500500D01*
X49065892Y-36500500D01*
X133184108Y-36500500D01*
X133246754Y-36500500D01*
X133253244Y-36500670D01*
G37*
%TD.AperFunction*%
%TA.AperFunction,Conductor*%
G36*
X64825520Y-73820185D02*
G01*
X64846162Y-73836819D01*
X65363181Y-74353838D01*
X65396666Y-74415161D01*
X65399500Y-74441519D01*
X65399500Y-75000001D01*
X65399501Y-75000019D01*
X65410000Y-75102796D01*
X65410001Y-75102799D01*
X65436761Y-75183554D01*
X65465186Y-75269334D01*
X65557288Y-75418656D01*
X65681344Y-75542712D01*
X65830666Y-75634814D01*
X65997203Y-75689999D01*
X66099991Y-75700500D01*
X66900008Y-75700499D01*
X66900016Y-75700498D01*
X66900019Y-75700498D01*
X66956302Y-75694748D01*
X67002797Y-75689999D01*
X67169334Y-75634814D01*
X67318656Y-75542712D01*
X67412319Y-75449049D01*
X67473642Y-75415564D01*
X67543334Y-75420548D01*
X67587681Y-75449049D01*
X67681344Y-75542712D01*
X67830666Y-75634814D01*
X67997203Y-75689999D01*
X68099991Y-75700500D01*
X68658479Y-75700499D01*
X68725518Y-75720183D01*
X68746160Y-75736818D01*
X69053454Y-76044112D01*
X69053457Y-76044114D01*
X69141133Y-76102697D01*
X69173254Y-76124159D01*
X69172463Y-76125342D01*
X69217211Y-76169287D01*
X69226627Y-76190693D01*
X69252614Y-76269119D01*
X69252686Y-76269334D01*
X69344788Y-76418656D01*
X69468844Y-76542712D01*
X69618166Y-76634814D01*
X69784703Y-76689999D01*
X69887491Y-76700500D01*
X70587401Y-76700499D01*
X70654440Y-76720183D01*
X70675082Y-76736818D01*
X71668784Y-77730520D01*
X71668786Y-77730521D01*
X71668790Y-77730524D01*
X71805709Y-77809573D01*
X71805712Y-77809575D01*
X71805716Y-77809577D01*
X71958443Y-77850501D01*
X71958445Y-77850501D01*
X72124154Y-77850501D01*
X72124170Y-77850500D01*
X77693331Y-77850500D01*
X77693347Y-77850501D01*
X77700943Y-77850501D01*
X77859054Y-77850501D01*
X77859057Y-77850501D01*
X78011785Y-77809577D01*
X78082558Y-77768716D01*
X78148716Y-77730520D01*
X78260520Y-77618716D01*
X78260520Y-77618714D01*
X78270724Y-77608511D01*
X78270728Y-77608506D01*
X79587821Y-76291412D01*
X79649142Y-76257929D01*
X79718834Y-76262913D01*
X79774767Y-76304785D01*
X79799184Y-76370249D01*
X79799500Y-76379095D01*
X79799500Y-77150001D01*
X79799501Y-77150019D01*
X79810000Y-77252796D01*
X79810001Y-77252799D01*
X79815539Y-77269511D01*
X79865186Y-77419334D01*
X79950622Y-77557849D01*
X79957289Y-77568657D01*
X80050951Y-77662319D01*
X80084436Y-77723642D01*
X80079452Y-77793334D01*
X80050951Y-77837681D01*
X79957289Y-77931342D01*
X79865187Y-78080663D01*
X79865185Y-78080668D01*
X79853169Y-78116930D01*
X79810001Y-78247203D01*
X79810001Y-78247204D01*
X79810000Y-78247204D01*
X79799500Y-78349983D01*
X79799500Y-79150001D01*
X79799501Y-79150019D01*
X79810000Y-79252796D01*
X79810001Y-79252799D01*
X79865185Y-79419331D01*
X79865187Y-79419336D01*
X79873420Y-79432684D01*
X79957288Y-79568656D01*
X80081344Y-79692712D01*
X80112955Y-79712210D01*
X80118635Y-79718524D01*
X80126455Y-79721839D01*
X80141648Y-79744110D01*
X80159678Y-79764156D01*
X80161042Y-79772539D01*
X80165830Y-79779558D01*
X80166570Y-79806508D01*
X80170901Y-79833119D01*
X80167565Y-79842730D01*
X80167749Y-79849401D01*
X80153974Y-79881896D01*
X80105824Y-79961547D01*
X80054297Y-80008735D01*
X79985438Y-80020574D01*
X79921109Y-79993306D01*
X79893590Y-79961548D01*
X79805072Y-79815122D01*
X79684877Y-79694927D01*
X79539395Y-79606980D01*
X79539396Y-79606980D01*
X79377105Y-79556409D01*
X79377106Y-79556409D01*
X79306572Y-79550000D01*
X79300000Y-79550000D01*
X79300000Y-82449999D01*
X79306579Y-82449999D01*
X79315459Y-82449192D01*
X79384005Y-82462728D01*
X79434351Y-82511174D01*
X79450513Y-82579149D01*
X79427360Y-82645071D01*
X79390834Y-82678799D01*
X79364811Y-82694530D01*
X79244530Y-82814811D01*
X79156522Y-82960393D01*
X79105913Y-83122807D01*
X79099500Y-83193386D01*
X79099500Y-84806613D01*
X79105913Y-84877192D01*
X79105913Y-84877194D01*
X79105914Y-84877196D01*
X79156522Y-85039606D01*
X79205618Y-85120821D01*
X79244530Y-85185188D01*
X79364811Y-85305469D01*
X79364813Y-85305470D01*
X79364815Y-85305472D01*
X79510394Y-85393478D01*
X79672804Y-85444086D01*
X79743384Y-85450500D01*
X79743387Y-85450500D01*
X80256613Y-85450500D01*
X80256616Y-85450500D01*
X80327196Y-85444086D01*
X80351873Y-85436395D01*
X80421730Y-85435244D01*
X80476443Y-85467099D01*
X80605867Y-85596524D01*
X80703927Y-85694584D01*
X80708559Y-85701516D01*
X80712797Y-85704459D01*
X80730807Y-85734812D01*
X80790137Y-85878047D01*
X80797606Y-85947517D01*
X80766331Y-86009996D01*
X80706242Y-86045648D01*
X80675576Y-86049500D01*
X67886518Y-86049500D01*
X67819479Y-86029815D01*
X67798837Y-86013181D01*
X63841840Y-82056183D01*
X63808355Y-81994860D01*
X63811589Y-81930187D01*
X63836090Y-81854785D01*
X63875500Y-81605962D01*
X63875500Y-81354038D01*
X63836090Y-81105215D01*
X63758241Y-80865621D01*
X63758239Y-80865618D01*
X63758239Y-80865616D01*
X63714315Y-80779411D01*
X63643870Y-80641155D01*
X63578333Y-80550951D01*
X63495798Y-80437350D01*
X63495794Y-80437345D01*
X63317654Y-80259205D01*
X63317649Y-80259201D01*
X63113848Y-80111132D01*
X63113847Y-80111131D01*
X63113845Y-80111130D01*
X63043747Y-80075413D01*
X62889383Y-79996760D01*
X62649785Y-79918910D01*
X62634190Y-79916440D01*
X62400962Y-79879500D01*
X62149038Y-79879500D01*
X62112204Y-79885334D01*
X61900211Y-79918910D01*
X61824813Y-79943408D01*
X61754972Y-79945403D01*
X61698815Y-79913158D01*
X60736819Y-78951162D01*
X60703334Y-78889839D01*
X60700500Y-78863481D01*
X60700500Y-78227452D01*
X60720185Y-78160413D01*
X60772989Y-78114658D01*
X60842147Y-78104714D01*
X60905703Y-78133739D01*
X60924818Y-78154567D01*
X61054201Y-78332650D01*
X61232345Y-78510794D01*
X61232350Y-78510798D01*
X61326008Y-78578844D01*
X61436155Y-78658870D01*
X61579184Y-78731747D01*
X61660616Y-78773239D01*
X61660618Y-78773239D01*
X61660621Y-78773241D01*
X61900215Y-78851090D01*
X62149038Y-78890500D01*
X62149039Y-78890500D01*
X62400961Y-78890500D01*
X62400962Y-78890500D01*
X62649785Y-78851090D01*
X62725186Y-78826589D01*
X62795024Y-78824594D01*
X62851183Y-78856840D01*
X65325681Y-81331338D01*
X65359166Y-81392661D01*
X65362000Y-81419019D01*
X65362000Y-82000001D01*
X65362001Y-82000019D01*
X65372500Y-82102796D01*
X65372501Y-82102799D01*
X65399803Y-82185189D01*
X65427686Y-82269334D01*
X65519788Y-82418656D01*
X65643844Y-82542712D01*
X65793166Y-82634814D01*
X65959703Y-82689999D01*
X66062491Y-82700500D01*
X66862508Y-82700499D01*
X66862516Y-82700498D01*
X66862519Y-82700498D01*
X66920961Y-82694528D01*
X66965297Y-82689999D01*
X67131834Y-82634814D01*
X67281156Y-82542712D01*
X67374819Y-82449049D01*
X67436142Y-82415564D01*
X67505834Y-82420548D01*
X67550181Y-82449049D01*
X67643844Y-82542712D01*
X67793166Y-82634814D01*
X67959703Y-82689999D01*
X68062491Y-82700500D01*
X68620979Y-82700499D01*
X68688018Y-82720183D01*
X68708660Y-82736818D01*
X69015954Y-83044112D01*
X69015957Y-83044114D01*
X69092406Y-83095195D01*
X69137210Y-83148806D01*
X69141221Y-83159292D01*
X69177686Y-83269334D01*
X69269788Y-83418656D01*
X69393844Y-83542712D01*
X69543166Y-83634814D01*
X69709703Y-83689999D01*
X69812491Y-83700500D01*
X70612508Y-83700499D01*
X70612516Y-83700498D01*
X70612519Y-83700498D01*
X70668802Y-83694748D01*
X70715297Y-83689999D01*
X70881834Y-83634814D01*
X71031156Y-83542712D01*
X71125175Y-83448692D01*
X71186494Y-83415210D01*
X71256186Y-83420194D01*
X71300534Y-83448695D01*
X71394154Y-83542315D01*
X71543375Y-83634356D01*
X71543380Y-83634358D01*
X71709802Y-83689505D01*
X71709809Y-83689506D01*
X71812519Y-83699999D01*
X71962499Y-83699999D01*
X72462500Y-83699999D01*
X72612472Y-83699999D01*
X72612486Y-83699998D01*
X72715197Y-83689505D01*
X72881619Y-83634358D01*
X72881624Y-83634356D01*
X73030845Y-83542315D01*
X73154815Y-83418345D01*
X73246856Y-83269124D01*
X73246858Y-83269119D01*
X73302005Y-83102697D01*
X73302006Y-83102690D01*
X73312499Y-82999986D01*
X73312500Y-82999973D01*
X73312500Y-82750000D01*
X72462500Y-82750000D01*
X72462500Y-83699999D01*
X71962499Y-83699999D01*
X71962500Y-83699998D01*
X71962500Y-81855000D01*
X72462500Y-81855000D01*
X72462500Y-82250000D01*
X73312499Y-82250000D01*
X73312499Y-82000028D01*
X73312498Y-82000013D01*
X73302005Y-81897302D01*
X73271943Y-81806582D01*
X78150001Y-81806582D01*
X78156408Y-81877102D01*
X78156409Y-81877107D01*
X78206981Y-82039396D01*
X78294927Y-82184877D01*
X78415122Y-82305072D01*
X78560604Y-82393019D01*
X78560603Y-82393019D01*
X78722894Y-82443590D01*
X78722893Y-82443590D01*
X78793408Y-82449998D01*
X78793426Y-82449999D01*
X78799999Y-82449998D01*
X78800000Y-82449998D01*
X78800000Y-81250000D01*
X78150001Y-81250000D01*
X78150001Y-81806582D01*
X73271943Y-81806582D01*
X73246858Y-81730880D01*
X73246856Y-81730875D01*
X73163060Y-81595020D01*
X73144620Y-81527627D01*
X73165543Y-81460964D01*
X73175353Y-81449018D01*
X73175339Y-81449007D01*
X73179815Y-81443346D01*
X73271856Y-81294124D01*
X73271858Y-81294119D01*
X73316422Y-81159634D01*
X73316422Y-81159633D01*
X73327005Y-81127694D01*
X73327006Y-81127690D01*
X73337499Y-81024986D01*
X73337500Y-81024973D01*
X73337500Y-80750000D01*
X72500000Y-80750000D01*
X72500000Y-81766138D01*
X72491355Y-81795578D01*
X72484832Y-81825565D01*
X72481077Y-81830580D01*
X72480315Y-81833177D01*
X72463681Y-81853819D01*
X72462500Y-81855000D01*
X71962500Y-81855000D01*
X71962500Y-81258862D01*
X71982185Y-81191823D01*
X71998819Y-81171181D01*
X72000000Y-81170000D01*
X72000000Y-80250000D01*
X72500000Y-80250000D01*
X73337499Y-80250000D01*
X73337499Y-80193427D01*
X78150000Y-80193427D01*
X78150000Y-80750000D01*
X78800000Y-80750000D01*
X78800000Y-79550000D01*
X78799999Y-79549999D01*
X78793436Y-79550000D01*
X78793417Y-79550001D01*
X78722897Y-79556408D01*
X78722892Y-79556409D01*
X78560603Y-79606981D01*
X78415122Y-79694927D01*
X78294927Y-79815122D01*
X78206980Y-79960604D01*
X78156409Y-80122893D01*
X78150000Y-80193427D01*
X73337499Y-80193427D01*
X73337499Y-79975028D01*
X73337498Y-79975013D01*
X73327005Y-79872302D01*
X73271858Y-79705880D01*
X73271856Y-79705875D01*
X73179815Y-79556654D01*
X73055845Y-79432684D01*
X72906624Y-79340643D01*
X72906619Y-79340641D01*
X72740197Y-79285494D01*
X72740190Y-79285493D01*
X72637486Y-79275000D01*
X72500000Y-79275000D01*
X72500000Y-80250000D01*
X72000000Y-80250000D01*
X72000000Y-79275000D01*
X71862527Y-79275000D01*
X71862512Y-79275001D01*
X71759802Y-79285494D01*
X71593380Y-79340641D01*
X71593375Y-79340643D01*
X71444154Y-79432684D01*
X71320183Y-79556655D01*
X71320179Y-79556660D01*
X71318326Y-79559665D01*
X71316518Y-79561290D01*
X71315702Y-79562323D01*
X71315525Y-79562183D01*
X71266374Y-79606385D01*
X71197411Y-79617601D01*
X71133331Y-79589752D01*
X71107253Y-79559653D01*
X71107237Y-79559628D01*
X71105212Y-79556344D01*
X70981156Y-79432288D01*
X70981155Y-79432287D01*
X70909402Y-79388029D01*
X70902578Y-79380442D01*
X70893297Y-79376204D01*
X70879609Y-79354905D01*
X70862678Y-79336081D01*
X70860033Y-79324444D01*
X70855523Y-79317426D01*
X70850500Y-79282491D01*
X70850500Y-79079765D01*
X70870185Y-79012726D01*
X70871398Y-79010874D01*
X70876460Y-79003299D01*
X70959394Y-78879179D01*
X71019737Y-78733497D01*
X71050500Y-78578842D01*
X71050500Y-78421158D01*
X71050500Y-78421155D01*
X71050499Y-78421153D01*
X71047297Y-78405055D01*
X71019737Y-78266503D01*
X71011743Y-78247203D01*
X70959397Y-78120827D01*
X70959390Y-78120814D01*
X70871789Y-77989711D01*
X70871786Y-77989707D01*
X70760292Y-77878213D01*
X70760288Y-77878210D01*
X70629185Y-77790609D01*
X70629172Y-77790602D01*
X70483501Y-77730264D01*
X70483489Y-77730261D01*
X70328845Y-77699500D01*
X70328842Y-77699500D01*
X70171158Y-77699500D01*
X70171155Y-77699500D01*
X70016510Y-77730261D01*
X70016498Y-77730264D01*
X69870827Y-77790602D01*
X69870814Y-77790609D01*
X69739711Y-77878210D01*
X69739707Y-77878213D01*
X69628213Y-77989707D01*
X69628210Y-77989711D01*
X69540609Y-78120814D01*
X69540602Y-78120827D01*
X69480264Y-78266498D01*
X69480261Y-78266510D01*
X69449500Y-78421153D01*
X69449500Y-78578846D01*
X69480261Y-78733489D01*
X69480264Y-78733501D01*
X69540602Y-78879172D01*
X69540609Y-78879185D01*
X69628602Y-79010874D01*
X69634252Y-79028920D01*
X69644477Y-79044830D01*
X69648928Y-79075789D01*
X69649480Y-79077551D01*
X69649500Y-79079765D01*
X69649500Y-79207125D01*
X69629815Y-79274164D01*
X69577011Y-79319919D01*
X69564509Y-79324829D01*
X69530554Y-79336081D01*
X69518166Y-79340186D01*
X69518163Y-79340187D01*
X69368842Y-79432289D01*
X69244789Y-79556342D01*
X69152687Y-79705663D01*
X69152686Y-79705666D01*
X69098473Y-79869269D01*
X69058700Y-79926713D01*
X69049660Y-79933365D01*
X69015956Y-79955886D01*
X69015953Y-79955888D01*
X68708660Y-80263181D01*
X68647337Y-80296666D01*
X68620979Y-80299500D01*
X68062498Y-80299500D01*
X68062480Y-80299501D01*
X67959703Y-80310000D01*
X67959700Y-80310001D01*
X67793168Y-80365185D01*
X67793163Y-80365187D01*
X67643842Y-80457289D01*
X67550181Y-80550951D01*
X67488858Y-80584436D01*
X67419166Y-80579452D01*
X67374819Y-80550951D01*
X67281157Y-80457289D01*
X67281156Y-80457288D01*
X67188388Y-80400069D01*
X67131836Y-80365187D01*
X67131831Y-80365185D01*
X67123553Y-80362442D01*
X66965297Y-80310001D01*
X66965295Y-80310000D01*
X66862516Y-80299500D01*
X66862509Y-80299500D01*
X66326519Y-80299500D01*
X66259480Y-80279815D01*
X66238838Y-80263181D01*
X63841840Y-77866183D01*
X63808355Y-77804860D01*
X63811589Y-77740187D01*
X63836090Y-77664785D01*
X63875500Y-77415962D01*
X63875500Y-77164038D01*
X63836090Y-76915215D01*
X63758241Y-76675621D01*
X63758239Y-76675618D01*
X63758239Y-76675616D01*
X63699628Y-76560586D01*
X63643870Y-76451155D01*
X63620032Y-76418345D01*
X63495798Y-76247350D01*
X63495794Y-76247345D01*
X63317654Y-76069205D01*
X63317649Y-76069201D01*
X63113848Y-75921132D01*
X63113847Y-75921131D01*
X63113845Y-75921130D01*
X63043747Y-75885413D01*
X62889383Y-75806760D01*
X62649785Y-75728910D01*
X62594685Y-75720183D01*
X62400962Y-75689500D01*
X62149038Y-75689500D01*
X62024626Y-75709205D01*
X61900214Y-75728910D01*
X61660616Y-75806760D01*
X61436151Y-75921132D01*
X61232350Y-76069201D01*
X61232345Y-76069205D01*
X61054205Y-76247345D01*
X61054201Y-76247350D01*
X60924818Y-76425432D01*
X60869488Y-76468098D01*
X60799875Y-76474077D01*
X60738080Y-76441472D01*
X60703723Y-76380633D01*
X60700500Y-76352547D01*
X60700500Y-74037452D01*
X60720185Y-73970413D01*
X60772989Y-73924658D01*
X60842147Y-73914714D01*
X60905703Y-73943739D01*
X60924818Y-73964567D01*
X61054201Y-74142650D01*
X61232345Y-74320794D01*
X61232350Y-74320798D01*
X61382519Y-74429901D01*
X61436155Y-74468870D01*
X61579184Y-74541747D01*
X61660616Y-74583239D01*
X61660618Y-74583239D01*
X61660621Y-74583241D01*
X61900215Y-74661090D01*
X62149038Y-74700500D01*
X62149039Y-74700500D01*
X62400961Y-74700500D01*
X62400962Y-74700500D01*
X62649785Y-74661090D01*
X62889379Y-74583241D01*
X63113845Y-74468870D01*
X63317656Y-74320793D01*
X63495793Y-74142656D01*
X63643870Y-73938845D01*
X63679863Y-73868205D01*
X63727838Y-73817409D01*
X63790348Y-73800500D01*
X64758481Y-73800500D01*
X64825520Y-73820185D01*
G37*
%TD.AperFunction*%
%TD*%
M02*
