%TF.GenerationSoftware,KiCad,Pcbnew,9.0.3*%
%TF.CreationDate,2026-01-18T23:43:33+07:00*%
%TF.ProjectId,TSPD_v1,54535044-5f76-4312-9e6b-696361645f70,rev?*%
%TF.SameCoordinates,Original*%
%TF.FileFunction,Soldermask,Top*%
%TF.FilePolarity,Negative*%
%FSLAX46Y46*%
G04 Gerber Fmt 4.6, Leading zero omitted, Abs format (unit mm)*
G04 Created by KiCad (PCBNEW 9.0.3) date 2026-01-18 23:43:33*
%MOMM*%
%LPD*%
G01*
G04 APERTURE LIST*
G04 Aperture macros list*
%AMRoundRect*
0 Rectangle with rounded corners*
0 $1 Rounding radius*
0 $2 $3 $4 $5 $6 $7 $8 $9 X,Y pos of 4 corners*
0 Add a 4 corners polygon primitive as box body*
4,1,4,$2,$3,$4,$5,$6,$7,$8,$9,$2,$3,0*
0 Add four circle primitives for the rounded corners*
1,1,$1+$1,$2,$3*
1,1,$1+$1,$4,$5*
1,1,$1+$1,$6,$7*
1,1,$1+$1,$8,$9*
0 Add four rect primitives between the rounded corners*
20,1,$1+$1,$2,$3,$4,$5,0*
20,1,$1+$1,$4,$5,$6,$7,0*
20,1,$1+$1,$6,$7,$8,$9,0*
20,1,$1+$1,$8,$9,$2,$3,0*%
G04 Aperture macros list end*
%ADD10RoundRect,0.250000X-0.850000X-0.350000X0.850000X-0.350000X0.850000X0.350000X-0.850000X0.350000X0*%
%ADD11RoundRect,0.249997X-2.950003X-2.650003X2.950003X-2.650003X2.950003X2.650003X-2.950003X2.650003X0*%
%ADD12RoundRect,0.250000X-0.337500X-0.475000X0.337500X-0.475000X0.337500X0.475000X-0.337500X0.475000X0*%
%ADD13C,3.000000*%
%ADD14RoundRect,0.250000X-0.350000X-0.450000X0.350000X-0.450000X0.350000X0.450000X-0.350000X0.450000X0*%
%ADD15C,2.000000*%
%ADD16C,0.800000*%
%ADD17C,6.400000*%
%ADD18C,3.500000*%
%ADD19RoundRect,0.150000X0.960000X-0.950000X0.960000X0.950000X-0.960000X0.950000X-0.960000X-0.950000X0*%
%ADD20C,2.200000*%
%ADD21R,1.200000X1.200000*%
%ADD22RoundRect,0.250000X0.450000X-0.350000X0.450000X0.350000X-0.450000X0.350000X-0.450000X-0.350000X0*%
%ADD23R,2.000000X1.200000*%
%ADD24O,2.000000X1.200000*%
%ADD25RoundRect,0.250000X0.325000X0.450000X-0.325000X0.450000X-0.325000X-0.450000X0.325000X-0.450000X0*%
%ADD26O,3.200000X1.900000*%
%ADD27RoundRect,0.200000X-0.200000X0.750000X-0.200000X-0.750000X0.200000X-0.750000X0.200000X0.750000X0*%
G04 APERTURE END LIST*
D10*
%TO.C,U2*%
X66837500Y-47542500D03*
D11*
X73137500Y-49822500D03*
D10*
X66837500Y-52102500D03*
%TD*%
D12*
%TO.C,C5*%
X70250000Y-66500000D03*
X72325000Y-66500000D03*
%TD*%
D13*
%TO.C,U4*%
X69075000Y-89250000D03*
X69075000Y-97250000D03*
X75375000Y-97250000D03*
X80025000Y-97250000D03*
X80025000Y-89250000D03*
X75375000Y-89250000D03*
%TD*%
D14*
%TO.C,R13*%
X95025000Y-101500000D03*
X97025000Y-101500000D03*
%TD*%
%TO.C,R12*%
X103750000Y-101500000D03*
X105750000Y-101500000D03*
%TD*%
D12*
%TO.C,C1*%
X66500000Y-45000000D03*
X68575000Y-45000000D03*
%TD*%
D15*
%TO.C,U3*%
X115750000Y-74830000D03*
X115750000Y-72290000D03*
X115750000Y-69750000D03*
X115750000Y-67210000D03*
%TD*%
D16*
%TO.C,H3*%
X60450000Y-102000000D03*
X61152944Y-100302944D03*
X61152944Y-103697056D03*
X62850000Y-99600000D03*
D17*
X62850000Y-102000000D03*
D16*
X62850000Y-104400000D03*
X64547056Y-100302944D03*
X64547056Y-103697056D03*
X65250000Y-102000000D03*
%TD*%
D12*
%TO.C,C3*%
X70175000Y-80500000D03*
X72250000Y-80500000D03*
%TD*%
%TO.C,C6*%
X70250000Y-59500000D03*
X72325000Y-59500000D03*
%TD*%
D14*
%TO.C,R3*%
X66500000Y-74500000D03*
X68500000Y-74500000D03*
%TD*%
%TO.C,R6*%
X70287500Y-68500000D03*
X72287500Y-68500000D03*
%TD*%
D12*
%TO.C,C2*%
X66500000Y-54750000D03*
X68575000Y-54750000D03*
%TD*%
D14*
%TO.C,R10*%
X131500000Y-90500000D03*
X133500000Y-90500000D03*
%TD*%
D12*
%TO.C,C4*%
X70250000Y-73500000D03*
X72325000Y-73500000D03*
%TD*%
D18*
%TO.C,J1*%
X49575000Y-79890000D03*
X49575000Y-62110000D03*
D19*
X62275000Y-60520000D03*
D20*
X62275000Y-64710000D03*
X62275000Y-68900000D03*
X62275000Y-73100000D03*
X62275000Y-77290000D03*
X62275000Y-81480000D03*
X55925000Y-81480000D03*
X55925000Y-77290000D03*
X55925000Y-73100000D03*
X55925000Y-68900000D03*
X55925000Y-64710000D03*
X55925000Y-60520000D03*
%TD*%
D14*
%TO.C,R9*%
X131500000Y-51500000D03*
X133500000Y-51500000D03*
%TD*%
%TO.C,R5*%
X66500000Y-67500000D03*
X68500000Y-67500000D03*
%TD*%
D21*
%TO.C,D1*%
X63875000Y-92000000D03*
X63875000Y-94800000D03*
%TD*%
D22*
%TO.C,R11*%
X81000000Y-78750000D03*
X81000000Y-76750000D03*
%TD*%
D23*
%TO.C,U1*%
X85250000Y-52000000D03*
D24*
X85250000Y-54540000D03*
X85250000Y-57080000D03*
X85250000Y-59620000D03*
X85250000Y-62160000D03*
X85250000Y-64700000D03*
X85250000Y-67240000D03*
X85250000Y-69780000D03*
X85250000Y-72320000D03*
X85250000Y-74860000D03*
X85250000Y-77400000D03*
X85250000Y-79940000D03*
X85250000Y-82480000D03*
X85250000Y-85020000D03*
X85250000Y-87560000D03*
X85250000Y-90100000D03*
X85250000Y-92640000D03*
X85250000Y-95180000D03*
X85250000Y-97720000D03*
X110646320Y-97717280D03*
X110646320Y-95177280D03*
X110650000Y-92640000D03*
X110650000Y-90100000D03*
X110650000Y-87560000D03*
X110650000Y-85020000D03*
X110650000Y-82480000D03*
X110650000Y-79940000D03*
X110650000Y-77400000D03*
X110650000Y-74860000D03*
X110650000Y-72320000D03*
X110650000Y-69780000D03*
X110650000Y-67240000D03*
X110650000Y-64700000D03*
X110650000Y-62160000D03*
X110650000Y-59620000D03*
X110650000Y-57080000D03*
X110650000Y-54540000D03*
X110650000Y-52000000D03*
%TD*%
D25*
%TO.C,D2*%
X109550000Y-101500000D03*
X107500000Y-101500000D03*
%TD*%
%TO.C,D3*%
X100800000Y-101500000D03*
X98750000Y-101500000D03*
%TD*%
D14*
%TO.C,R2*%
X70212500Y-82500000D03*
X72212500Y-82500000D03*
%TD*%
D16*
%TO.C,H4*%
X130402944Y-102000000D03*
X131105888Y-100302944D03*
X131105888Y-103697056D03*
X132802944Y-99600000D03*
D17*
X132802944Y-102000000D03*
D16*
X132802944Y-104400000D03*
X134500000Y-100302944D03*
X134500000Y-103697056D03*
X135202944Y-102000000D03*
%TD*%
D14*
%TO.C,R8*%
X70250000Y-61500000D03*
X72250000Y-61500000D03*
%TD*%
D26*
%TO.C,SW1*%
X128250000Y-51500000D03*
X115750000Y-51500000D03*
X128250000Y-46500000D03*
X115750000Y-46500000D03*
%TD*%
D27*
%TO.C,U5*%
X80950000Y-81000000D03*
X79050000Y-81000000D03*
X80000000Y-84000000D03*
%TD*%
D16*
%TO.C,H1*%
X60450000Y-40000000D03*
X61152944Y-38302944D03*
X61152944Y-41697056D03*
X62850000Y-37600000D03*
D17*
X62850000Y-40000000D03*
D16*
X62850000Y-42400000D03*
X64547056Y-38302944D03*
X64547056Y-41697056D03*
X65250000Y-40000000D03*
%TD*%
D14*
%TO.C,R1*%
X66462500Y-81500000D03*
X68462500Y-81500000D03*
%TD*%
%TO.C,R4*%
X70287500Y-75500000D03*
X72287500Y-75500000D03*
%TD*%
%TO.C,R14*%
X86275000Y-101500000D03*
X88275000Y-101500000D03*
%TD*%
D16*
%TO.C,H2*%
X130402944Y-40000000D03*
X131105888Y-38302944D03*
X131105888Y-41697056D03*
X132802944Y-37600000D03*
D17*
X132802944Y-40000000D03*
D16*
X132802944Y-42400000D03*
X134500000Y-38302944D03*
X134500000Y-41697056D03*
X135202944Y-40000000D03*
%TD*%
D25*
%TO.C,D4*%
X92025000Y-101500000D03*
X89975000Y-101500000D03*
%TD*%
D14*
%TO.C,R7*%
X66500000Y-60500000D03*
X68500000Y-60500000D03*
%TD*%
D26*
%TO.C,SW2*%
X115750000Y-90500000D03*
X128250000Y-90500000D03*
X115750000Y-95500000D03*
X128250000Y-95500000D03*
%TD*%
M02*
